<?xml version="1.0" encoding="utf-8"?>
<!-- Generator: Adobe Illustrator 23.0.1, SVG Export Plug-In . SVG Version: 6.00 Build 0)  -->
<svg version="1.1" id="Layer_1" xmlns="http://www.w3.org/2000/svg" xmlns:xlink="http://www.w3.org/1999/xlink" x="0px" y="0px"
	 viewBox="0 0 311.05 755.56" style="enable-background:new 0 0 311.05 755.56;" xml:space="preserve">
<defs>
    <filter id="shadow">
        <feDropShadow dx="0" dy="0" stdDeviation="10"/>
    </filter>
</defs>
<style type="text/css">
	.st0{fill:#206b5a;stroke:#050f0d;stroke-width:1px;filter:url(#shadow);}
</style>
<path class="st0" d="M311.05,509.86c-0.06-1.37-0.12-2.65-0.18-3.9l0,0l-0.24-5.15h0c-0.01-0.26-0.02-0.53-0.04-0.79
	c-3.53,0.03-7.5-0.21-6.52-4.28c1.25-5.19-1.08-7.45-5.14-9.32c6.43-6.08-5.71-7.85-3.02-12.6c1.83-0.92,4.02-1.28,4.48-2.38
	c2.22-5.29,5.19-10.15,2.68-16.76c-2.52-6.63-5.88-10.21-12.99-9.74c-4.01,0.26-7.79-0.75-9.91-4.24
	c-2.84-4.67-7.41-6.63-12.07-7.34c-3.91-0.6-5.57-2.78-7.25-5.49c-1.88-3.04-4.52-3.46-7.34-1.19c-1.92,1.55-4.09,2.79-6.47,4.38
	c-0.52-5.37-6.59-12.43-12.49-14.97c7.86-5.55-5.04-6.27-1.78-10.78c-2.96-0.45-5.4-0.82-8.51-1.29c1.29-4.03,1.56-8.78,4.02-11.64
	c4.09-4.76,2.26-8.61,0.62-13.03c-7.4,2.03-11.36,0.58-11.7-2.99c-0.59-6.09-2.95-9.7-9.92-10.19c1.35-0.93,2.04-1.17,2.36-1.66
	c5.79-8.81,13.98-15.31,21.58-22.35c2.96-2.74,6.64-4.69,9.84-7.2c1.43-1.12,2.63-2.62,3.65-4.14c0.68-1.01,0.78-2.4,1.29-3.55
	c1.44-3.2,4.06-6.31,4.22-9.55c0.27-5.58,2.26-3.44,4.55-1.72c1.11,0.83,2.04,1.91,3.04,2.86c8.14-3.95,24.84-21.7,26.65-28.05
	c-7.63-6.09-14.95-2.98-22.54,0.8c1.79-2.6,4.3-4.17,5.93-6.39c1.48-2.01,1.88-4.79,2.99-7.12c1.91-3.96,1.39-6.06-3.88-4.93
	c1.33-2.55,2.48-4.74,4.38-8.39c-3.5,0.16-5.98-0.21-8.11,0.5c-2.55,0.85-3.74,0.8-5.73-1.56c-3.52-4.17-0.59-7.87-0.22-11.67
	c0.61-6.35,6.57-10.38,7.05-17.43c0.37-5.45,4.65-10.64,7.22-15.93c2.39-4.93,4.83-9.83,7.25-14.75c3.16-4,6.51-7.87,9.42-12.05
	c2.17-3.12,3.76-6.64,5.62-9.98c-0.03,0.02-0.05,0.05-0.08,0.07c2.92-4.14,5.84-8.28,8.82-12.49c-4.35-4.11-12.9-0.9-12.18-9.34
	c-3.16,0.61-5.78,1.11-8.31,1.6c0-1.52,0.52-3.2-0.08-3.84c-5.67-6.13-4.12-12.49-1.33-19.23c0.73-1.77,0.38-5.81-0.43-6.09
	c-2.79-0.97-1.46-2.7-1.46-4.12c0-2.71,0.29-5.11-3.55-5.87c-2.85-0.57-3.86-2.57-0.59-4.61c4.77-2.97,9.6-5.87,14.19-9.09
	c2.72-1.91,4.7-5.12,7.61-6.46c4.53-2.08,9.57-3.05,14.4-4.5c-2.7-1.91,2.28-6.35-3.03-6.71c-2.61-0.18-5.06-2.9-7.67-3.06
	c-7.69-0.49-11.4-4.14-11.33-12.17c4.43-1.16,1.31-4.01,0.78-5.68c-1.6-5.09-0.86-6.78,3.74-9.48c2.1-1.23,5.57-5.43,7.37-7.49
	c0.16-0.09,0.26-0.17,0.25-0.2c-1.28-3.5-1.93-7.54-4.13-10.33c-5.25-6.63-11.33-12.63-9.29-22.22c0.03-0.12-0.15-0.28-0.24-0.43
	c-6.61,1.72-11.91-6.15-12.93-19.88c-5.44-1.44-5.1,3.08-6.23,5.94c0,0-2.34,1.37-3.22,1.3c-0.42-0.09-0.84-0.16-1.25-0.23
	c-0.02,0-0.04-0.01-0.06-0.02l0.04,0.01c-4.93-0.82-9.51-0.34-13.76,2.89c-0.81,0.61-2.13,0.57-3.22,0.78
	c-1.91,0.37-4.54,0.03-5.62,1.17c-4.78,5-7.58,0.2-11.51-2.04c-0.62,1.5-1.03,3.03-1.83,4.34c-2.28,3.75-3.9,9.07-7.27,10.7
	c-5.1,2.47-11.2,2.88-15.43,7.45c-0.25,0.27-1.32-0.22-2-0.35c-0.25,1.79-0.45,3.2-0.49,3.49c-5.44,1.19-10.15,2.32-14.91,3.22
	c-2.84,0.54-5.75,1.04-8.63,1.02c-8.11-0.06-9.58,0.87-12.24,8.9c-2.56-1.61-4.09,1.28-6.08,1.44c-2.94,0.23-5.96-0.68-8.95-0.8
	c-2.04-0.08-4.8-0.39-6.01,0.73c-2.75,2.56-4.85,5.87-7.03,9.01c-2.39,3.44-5.01,6.83-6.69,10.61c-1.52,3.43-3.36,7.8-2.43,10.97
	c1.33,4.49,2.58,10.75,9.86,10.35c0.43-0.02,1.01,0.73,1.36,1.24c4.12,6,8.21,12.03,12.42,18.22c0.47-0.24,1.49-0.77,2.54-1.31
	c0,3.52,0,6.66,0,10.28c-2.97,0.8-4.18,3.54-4.18,7.4c0,1.2-1.56,2.45-2.53,3.57c-1.02,1.16-2.97,2.07-3.17,3.3
	c-0.68,4.33-0.89,8.74-1.07,13.14c-0.11,2.66-0.47,5.2,2.42,7.36c1.83,1.37,3.42,4.56,3.27,6.81c-0.37,5.64-1.44,11.3-2.88,16.78
	c-1.59,6.06-3.82,11.97-5.95,17.88c-0.82,2.28-0.93,4.94-4.47,5.77c-1.24,0.29-1.84,4.12-2.26,6.42c-0.09,0.47,1.78,1.3,2.82,1.98
	c4.7,7.54,2.57,18.84,14.09,22.61c-4.8,2.9-8.2,5.51-12.74,2.64c-0.78-0.5-2.53,0.1-3.63,0.61c-5.78,2.69-11.5,5.51-17.32,8.33
	c-0.69-1.15-1.01-1.7-1.34-2.25c-1.26-2.08-2.14-4.72-3.97-5.97c-0.79-0.54-3.73,1.57-5.37,2.88c-4.73,3.77-9.32,7.7-13.89,11.65
	c-1.44,1.24-3.72,2.78-3.7,4.15c0.04,2.21,1.69,4.38,2.62,6.58c0.79,1.87,2.09,3.75,2.14,5.65c0.08,3.34-0.62,6.7-0.97,9.93
	c-7.3,0.33-7.3,0.33-8.48,4.88c-6.42,0.74-9.08,1.4-10.2,3.52c-0.09,0.2-0.15,0.38-0.21,0.55c-0.34,0.87-0.51,1.94-0.58,3.33
	c1.97-0.35,3.84-0.68,5.26-0.93c2.09,1.74,3.86,3.2,5.99,4.97c-7.38,1.9-13.92,3.59-20.68,5.33c0.87,2.08,1.41,3.39,1.99,4.78
	c-1.03,1.23-2.06,2.47-2.15,2.57c0.3,2.56,1.02,4.69,0.5,5.06c-3.22,2.27-6.64,4.31-10.17,6.09c-2.27,1.15-5.22,1.36-5.1,4.85
	c0.17,5.15-1.46,7.35-6.77,8.12c-7.53,1.08-14.43,3.79-21.11,7.29c-1.84,0.96-3.89,1.51-5.96,2.29c-0.17,1.39-0.34,2.83-0.41,3.42
	c-4.23,2.4-7.85,4.45-12.26,6.96c6,6.91,11.36,14.15,21.77,14.49c0,2.61,0,4.91,0,7.34c4.89,0.16,4.95,3.21,4.35,7.14
	c-0.34,2.23-0.14,4.82,0.7,6.9c1.79,4.45,0.32,12.91-3.76,13.7c-6.87,1.33-4.61,4.9-2.51,10.03c-10.02-4.24-15.41,4.02-23.89,6.46
	c1.9,3.2,4,6.03,5.33,9.18c1.9,4.49,6.56,3.41,9.71,5.34c2.97,1.83,14.28,0.41,15.31-0.82c1.96,0.17,3.53,0.25,5.08,0.45
	c2.47,0.31,5.04,0.39,7.38,1.13c4.56,1.43,8.99,3.26,13.97,5.1c1.6,3.71,3.53,8.18,5.35,12.4c3.94,0,7.51,0,11.87,0
	c-1.4,1.83-2.17,2.84-3.24,4.25c5.57,1.62,10.75,3.13,16.69,4.86c-6.02,9.21-17.63,7.8-24.32,14.45c2.95,2.13,6.16,4.39,9.31,6.73
	c3.31,2.46,3.01,7.94-0.57,9.86c-1.26,0.67-2.69,1.03-3.55,1.36c0.57,2.88,0.87,5.4,1.58,7.79c0.77,2.61,2.06,5.06,2.83,7.67
	c0.43,1.44,0.87,3.39,0.25,4.53c-2.47,4.54-0.19,6.48,3.58,8.23c1.29,0.59,2.95,2.08,3.02,3.24c0.16,2.76-0.52,5.56-0.86,8.35
	c-2.26,2.35-0.57,4.06,1.2,5.54c4.16,3.48,8.19,6.89,7.35,13.24c-0.27,2.06,0.02,4.32,0.58,6.34c1.3,4.69,1.64,10.67,4.75,13.58
	c3.92,3.67,6.92,7.39,7.38,12.29c0.4,4.26,5.42,7.73,1.58,12.91c-1.95,2.64-1.98,6.7-2.87,10.12c-0.69,0.66-1.83,1.45-1.71,1.87
	c1.44,4.93,2.5,10.11,4.9,14.56c1.92,3.57,2.85,6.75,2.8,10.8c-0.04,3.49,1.57,7,2.55,10.91c0.03-0.03-1.36,0.8-1.33,1.59
	c0.1,3.51-0.65,8.11,1.24,10.26c3.55,4.06,5.32,8.68,7.66,13.24c2.28,4.44,5.81,8.23,9.1,12.72c-2.1,0.79-2.97,1.12-3.16,1.19
	c-0.35,3.03,0.24,6.51-1.21,7.98c-1.49,1.51-4.97,1.04-8.35,1.55c1.11,1.55,1.75,3.5,2.92,3.91c5.2,1.83,5.45,6.17,7.07,10.49
	c1.25,3.33,1.46,9.27,8.05,9.19c2.18-0.03,4.94,1.85,3.67,5.5c-0.2,0.57,0.88,1.85,1.64,2.45c3.35,2.59,6.81,5.06,10.23,7.57
	c1.12,0.7,3.2-0.07,4.46,0.64c2.9,1.61,5.68,14,3.78,16.65c-2.53,3.53-0.95,5.26,1.93,6.3c2.88-1.18,5.76-2.61,8.34-2.19
	c2.62,0.43,4.95,2.68,7.79,4.35c0-3.21,0-5.26,0-6.8c2.19-0.87,3.92-1.68,5.72-2.24c5.4-1.66,10.91-6.76,15.75,0.71
	c4.72-4.81,4.96-4.86,10.22-2.29c0-3,0.95-6.25-0.18-8.42c-3.3-6.37,0.83-9.96,4.17-14.02c0.53-0.64,1.19-1.17,1.7-1.82
	c4.89-6.16,8.17-13.72,16.04-17.3c1.34-0.61,1.45-3.73,2.33-5.59c0.96-2.03,2-4.06,3.29-5.89c2.1-2.97,5.16-5.46,6.51-8.7
	c2.53-6.08,4.27-12.21,10.16-16.44c3.57-2.56,6.92-6.44,3.9-11.77l1.07-4.16c-0.15-0.62-0.1-1.46-0.49-1.83
	c-4.26-4.01-8.59-7.95-12.9-11.92c0.28-0.31,0.55-0.61,0.83-0.92c-1.47,0.28-2.94,0.55-5.06,0.95c-0.14-0.03-0.28-0.1-0.41-0.23
	c-0.34-3.16-1.26-6.16-0.65-8.79c0.74-3.15,0.85-5.6-1.21-8.19c-0.51-0.64-0.37-2.1-0.07-3.04c0.88-2.74,1.86-5.46,3.05-8.07
	c2.18-4.78,1.03-9.31-2.59-13.04c-2.4-2.47-3.78-5.91-6.01-8.6c-1.4-1.7-3.91-4.25-5.23-3.89c-3.35,0.91-4.53-0.82-5.12-3.02
	c-0.44-1.62,0.33-3.56,0.56-5.36c-0.97-6.33-5.72-11.28-3.46-19.68c1.75-6.5,2.13-13.62,3.75-20.76c2.29,1.73,3.7,2.8,5.33,4.04
	c0.73-3.33,1.29-5.92,2.14-9.79c2.75,4.9,5.51,6.04,9.29,3.39c1.43-1,3.21-1.51,4.85-2.19c3.15-1.31,7.88-4.54,9.17-3.5
	c4.04,3.24,4.98-0.25,7.04-1.77c0.58-0.43,1.42-0.63,2.16-0.71c3.6-0.36,7.21-0.93,10.8-0.84c1.97,0.05,4.03,1.05,5.85,2.01
	c2.8,1.48,5.3,5.23,8.24,0.02c0.55-0.98,2.56-1.13,3.89-1.67c0.22-1.48,0.42-2.91,0.62-4.22c7.4-0.51,14.23,5.23,22.02,1.63
	C304.81,515.86,305.13,515.16,311.05,509.86z"/>
</svg>
