<?xml version="1.0" encoding="UTF-8"?>
<svg width="31px" height="38px" viewBox="0 0 31 38" version="1.1" xmlns="http://www.w3.org/2000/svg" xmlns:xlink="http://www.w3.org/1999/xlink">
    <!-- Generator: Sketch 52.6 (67491) - http://www.bohemiancoding.com/sketch -->
    <title>Combined Shape</title>
    <desc>Created with Sketch.</desc>
    <g id="Designs" stroke="none" stroke-width="1" fill="none" fill-rule="evenodd">
        <g id="Home" transform="translate(-467.000000, -24.000000)" fill="#033846" fill-rule="nonzero">
            <g id="Group" transform="translate(440.000000, 0.000000)">
                <path d="M42.5,24 C51.0604136,24 58,30.908788 58,39.4312098 C58,45.1128244 52.8333333,52.6357544 42.5,62 C32.1666667,52.6357544 27,45.1128244 27,39.4312098 C27,30.908788 33.9395864,24 42.5,24 Z M43.6552921,36 C42.4360904,36 41.2267208,36.309375 40.0271833,36.928125 C39.0242915,37.434375 38.149219,38.08125 37.4019664,38.86875 L34.8357432,37.0125 C34.6390976,36.8812499 34.4424524,36.8671874 34.2458068,36.9703125 C34.0491612,37.0734376 33.9705033,37.2187499 34.0098322,37.40625 L34.7472527,40.5 L34.0098322,43.59375 C33.9705033,43.7812501 34.0491612,43.9265624 34.2458068,44.0296875 C34.4424524,44.1328126 34.6292654,44.1187501 34.8062463,43.9875 L37.4019664,42.13125 C38.149219,42.91875 39.0242915,43.565625 40.0271833,44.071875 C41.2267208,44.690625 42.4360904,45 43.6552921,45 C44.5991903,45 45.5529206,44.803125 46.5164835,44.409375 C47.3227297,44.0906251 48.0994796,43.65 48.8467322,43.0875 C49.4759975,42.6000001 49.9971082,42.0937501 50.4100636,41.56875 C50.8033544,41.0999999 51,40.7437501 51,40.5 C51,40.2562499 50.8033544,39.8906249 50.4100636,39.403125 C49.9971082,38.896875 49.4759975,38.3999999 48.8467322,37.9125 C48.0994796,37.35 47.3227297,36.9 46.5164835,36.5625 C45.5529206,36.1875001 44.5991903,36 43.6552921,36 Z" id="Combined-Shape"></path>
            </g>
        </g>
    </g>
</svg>