<?xml version="1.0" encoding="UTF-8"?>
<svg width="109px" height="60px" viewBox="0 0 109 60" version="1.1" xmlns="http://www.w3.org/2000/svg" xmlns:xlink="http://www.w3.org/1999/xlink">
    <!-- Generator: Sketch 52.6 (67491) - http://www.bohemiancoding.com/sketch -->
    <title>Combined Shape</title>
    <desc>Created with Sketch.</desc>
    <g id="Designs" stroke="none" stroke-width="1" fill="none" fill-rule="evenodd">
        <g id="Detail-View" transform="translate(-367.000000, -1384.000000)" fill="#401110">
            <g id="Fish" transform="translate(367.000000, 1384.000000)">
                <path d="M95.9930629,46.6922585 C90.9262168,43.2628355 84.2097388,42.7705575 78.6336533,45.9899119 C77.8506803,46.4419616 77.5890513,47.4546416 78.0492886,48.251796 C78.5095259,49.0489503 79.517347,49.328713 80.30032,48.8766633 C84.4147574,46.5011917 89.3053106,46.6517417 93.2206365,48.8421552 C89.118803,51.8412939 84.8802948,54.2480761 80.5051155,56.0625 C74.3812139,58.6875 68.3198031,60 62.32088,60 C54.572272,60 46.8861519,57.9375 39.2625195,53.8125 C32.8886638,50.4375 27.3271612,46.125 22.5780148,40.875 L6.08097639,53.25 C4.95617832,54.125001 3.76889242,54.218751 2.51911583,53.53125 C1.26933924,52.843749 0.769430895,51.875001 1.01938507,50.625 L5.7060437,30 L1.01938507,9.375 C0.769430895,8.12499905 1.26933924,7.15625095 2.51911583,6.46875 C3.76889242,5.78124905 5.01866615,5.87499905 6.26844274,6.75 L22.5780148,19.125 C27.3271612,13.875 32.8886638,9.5625 39.2625195,6.1875 C46.8861519,2.0625 54.572272,0 62.32088,0 C68.3198031,0 74.3812139,1.25000095 80.5051155,3.75 C85.6291947,6 90.5658103,9 95.3149568,12.75 C99.3142379,15.999999 102.626144,19.3125 105.250673,22.6875 C107.750223,25.937499 109,28.374999 109,30 C109,31.625001 107.750223,33.999999 105.250673,37.125 C102.77595,40.4252245 99.6900788,43.6143107 95.9930629,46.6922585 Z M88.0670219,28.0434783 L91.524375,25.0120702 C92.210383,24.4105781 92.265995,23.3811884 91.6485877,22.7128639 C91.0311804,22.0445394 89.9745536,21.990361 89.2885455,22.591853 L85.5689655,25.8531818 L81.8493855,22.591853 C81.1633775,21.990361 80.1067506,22.0445394 79.4893433,22.7128639 C78.8719361,23.3811884 78.927548,24.4105781 79.6135561,25.0120702 L83.0709092,28.0434783 L79.6135561,31.0748864 C78.927548,31.6763784 78.8719361,32.7057681 79.4893433,33.3740926 C80.1067506,34.0424171 81.1633775,34.0965955 81.8493855,33.4951035 L85.5689655,30.2337748 L89.2885455,33.4951035 C89.9745536,34.0965955 91.0311804,34.0424171 91.6485877,33.3740926 C92.265995,32.7057681 92.210383,31.6763784 91.524375,31.0748864 L88.0670219,28.0434783 Z" id="Combined-Shape"></path>
            </g>
        </g>
    </g>
</svg>
