<?xml version="1.0" encoding="UTF-8"?>
<svg width="108px" height="60px" viewBox="0 0 108 60" version="1.1" xmlns="http://www.w3.org/2000/svg" xmlns:xlink="http://www.w3.org/1999/xlink">
    <!-- Generator: Sketch 52.6 (67491) - http://www.bohemiancoding.com/sketch -->
    <title>Combined Shape</title>
    <desc>Created with Sketch.</desc>
    <g id="Designs" stroke="none" stroke-width="1" fill="none" fill-rule="evenodd">
        <g id="Detail-View" transform="translate(-357.000000, -772.000000)" fill="#033846">
            <g id="Happy-fish-Copy" transform="translate(357.000000, 772.000000)">
                <path d="M94.420009,47.1688923 C90.8215357,48.4720377 86.6906702,47.0402591 84.7023726,43.5964266 C84.065121,42.4926744 82.657566,42.1123027 81.5585106,42.7468426 C80.4594552,43.3813826 80.0850893,44.7905468 80.722341,45.894299 C82.3964888,48.7940081 85.0372768,50.7859599 87.9980608,51.6954078 C85.2303894,53.4091802 82.4031966,54.8648778 79.5164834,56.0625 C73.395025,58.6875 67.3360323,60 61.3395025,60 C53.5939858,60 45.910932,57.9375 38.2903411,53.8125 C31.9190282,50.4375 26.3597444,46.125 21.6124926,40.875 L5.12203561,53.25 C3.99768627,54.125001 2.81087403,54.218751 1.56159604,53.53125 C0.312318043,52.843749 -0.187390868,51.875001 0.0624635873,50.625 L4.74725249,30 L0.0624635873,9.375 C-0.187390868,8.12499905 0.312318043,7.15625095 1.56159604,6.46875 C2.81087403,5.78124905 4.06014917,5.87499905 5.30942716,6.75 L21.6124926,19.125 C26.3597444,13.875 31.9190282,9.5625 38.2903411,6.1875 C45.910932,2.0625 53.5939858,0 61.3395025,0 C67.3360323,0 73.395025,1.25000095 79.5164834,3.75 C84.6385184,6 89.5731646,9 94.3204164,12.75 C98.318102,15.999999 101.628687,19.3125 104.252169,22.6875 C106.750722,25.937499 108,28.374999 108,30 C108,31.625001 106.750722,33.999999 104.252169,37.125 C101.650504,40.5958947 98.3731166,43.9438588 94.420009,47.1688923 Z M77.8299594,34.5 C78.9543088,34.5 79.9849623,34.062501 80.9219201,33.1875 C81.8588779,32.312499 82.3273568,31.250001 82.3273568,30 C82.3273568,28.749999 81.8588779,27.687501 80.9219201,26.8125 C79.9849623,25.937499 78.9230759,25.5 77.7362637,25.5 C76.5494514,25.5 75.5187979,25.937499 74.644303,26.8125 C73.7698081,27.687501 73.3325621,28.749999 73.3325621,30 C73.3325621,31.250001 73.7698081,32.312499 74.644303,33.1875 C75.5187979,34.062501 76.5806814,34.5 77.8299594,34.5 Z" id="Combined-Shape"></path>
            </g>
        </g>
    </g>
</svg>
