<?xml version="1.0" encoding="UTF-8"?>
<svg width="251px" height="251px" viewBox="0 0 251 251" version="1.1" xmlns="http://www.w3.org/2000/svg" xmlns:xlink="http://www.w3.org/1999/xlink">
    <!-- Generator: Sketch 52.6 (67491) - http://www.bohemiancoding.com/sketch -->
    <title>Combined Shape Copy 3</title>
    <desc>Created with Sketch.</desc>
    <defs>
        <circle id="path-1" cx="125.5" cy="125.5" r="125.5"></circle>
    </defs>
    <g id="Designs" stroke="none" stroke-width="1" fill="none" fill-rule="evenodd">
        <g id="Detail-View" transform="translate(-296.000000, -1304.000000)">
            <g id="Combined-Shape-Copy-3" transform="translate(296.000000, 1304.000000)">
                <mask id="mask-2" fill="white">
                    <use xlink:href="#path-1"></use>
                </mask>
                <use id="Mask" fill="#D2ECEE" fill-rule="nonzero" xlink:href="#path-1"></use>
                <path d="M-114,33.5 L-114,34.5 L-113.988862,34.5 C-113.715702,40.6193081 -108.452606,45.5 -102,45.5 C-95.5473943,45.5 -90.2842981,40.6193081 -90.0111383,34.5 L-89.9888617,34.5 C-89.7157019,40.6193081 -84.4526057,45.5 -78,45.5 C-71.5473943,45.5 -66.2842981,40.6193081 -66.0111383,34.5 L-65.9888617,34.5 C-65.7157019,40.6193081 -60.4526057,45.5 -54,45.5 C-47.5473943,45.5 -42.2842981,40.6193081 -42.0111383,34.5 L-41.9888617,34.5 C-41.7157019,40.6193081 -36.4526057,45.5 -30,45.5 C-23.5473943,45.5 -18.2842981,40.6193081 -18.0111383,34.5 L-17.9888617,34.5 C-17.7157019,40.6193081 -12.4526057,45.5 -6,45.5 C0.45260572,45.5 5.71570187,40.6193081 5.98886172,34.5 L6.01113828,34.5 C6.28429813,40.6193081 11.5473943,45.5 18,45.5 C24.4526057,45.5 29.7157019,40.6193081 29.9888617,34.5 L30.0111383,34.5 C30.2842981,40.6193081 35.5473943,45.5 42,45.5 C48.4526057,45.5 53.7157019,40.6193081 53.9888617,34.5 L54.0111383,34.5 C54.2842981,40.6193081 59.5473943,45.5 66,45.5 C72.4526057,45.5 77.7157019,40.6193081 77.9888617,34.5 L78.0111383,34.5 C78.2842981,40.6193081 83.5473943,45.5 90,45.5 C95.432276,45.5 100.021486,42.040807 101.5,37.2955679 C102.978514,42.040807 107.567724,45.5 113,45.5 C119.452606,45.5 124.715702,40.6193081 124.988862,34.5 L125.011138,34.5 C125.284298,40.6193081 130.547394,45.5 137,45.5 C143.452606,45.5 148.715702,40.6193081 148.988862,34.5 L149.011138,34.5 C149.284298,40.6193081 154.547394,45.5 161,45.5 C167.452606,45.5 172.715702,40.6193081 172.988862,34.5 L173.011138,34.5 C173.284298,40.6193081 178.547394,45.5 185,45.5 C191.452606,45.5 196.715702,40.6193081 196.988862,34.5 L197.011138,34.5 C197.284298,40.6193081 202.547394,45.5 209,45.5 C215.452606,45.5 220.715702,40.6193081 220.988862,34.5 L221.011138,34.5 C221.284298,40.6193081 226.547394,45.5 233,45.5 C239.452606,45.5 244.715702,40.6193081 244.988862,34.5 L245.011138,34.5 C245.284298,40.6193081 250.547394,45.5 257,45.5 C263.452606,45.5 268.715702,40.6193081 268.988862,34.5 L269.011138,34.5 C269.284298,40.6193081 274.547394,45.5 281,45.5 C287.452606,45.5 292.715702,40.6193081 292.988862,34.5 L293.011138,34.5 C293.284298,40.6193081 298.547394,45.5 305,45.5 C311.452606,45.5 316.715702,40.6193081 316.988862,34.5 L317.011138,34.5 C317.284298,40.6193081 322.547394,45.5 329,45.5 C335.452606,45.5 340.715702,40.6193081 340.988862,34.5 L341.011138,34.5 C341.284298,40.6193081 346.547394,45.5 353,45.5 C359.452606,45.5 364.715702,40.6193081 364.988862,34.5 L365.011138,34.5 C365.284298,40.6193081 370.547394,45.5 377,45.5 C383.452606,45.5 388.715702,40.6193081 388.988862,34.5 L389.011138,34.5 C389.284298,40.6193081 394.547394,45.5 401,45.5 C407.452606,45.5 412.715702,40.6193081 412.988862,34.5 L413.011138,34.5 C413.284298,40.6193081 418.547394,45.5 425,45.5 C426.402542,45.5 427.748884,45.2694088 429,44.8456281 L429,333.5 L-123,333.5 L-123,33.5 L-114,33.5 Z" id="Combined-Shape" fill="#C35C21" fill-rule="nonzero" mask="url(#mask-2)"></path>
            </g>
        </g>
    </g>
</svg>