<?xml version="1.0" encoding="UTF-8"?>
<svg width="241px" height="241px" viewBox="0 0 241 241" version="1.1" xmlns="http://www.w3.org/2000/svg" xmlns:xlink="http://www.w3.org/1999/xlink">
    <!-- Generator: Sketch 52.6 (67491) - http://www.bohemiancoding.com/sketch -->
    <title>Combined Shape Copy</title>
    <desc>Created with Sketch.</desc>
    <defs>
        <circle id="path-1" cx="120.5" cy="120.5" r="120.5"></circle>
    </defs>
    <g id="Designs" stroke="none" stroke-width="1" fill="none" fill-rule="evenodd">
        <g id="Detail-View" transform="translate(-290.000000, -692.000000)">
            <g id="Combined-Shape-Copy" transform="translate(290.000000, 692.000000)">
                <mask id="mask-2" fill="white">
                    <use xlink:href="#path-1"></use>
                </mask>
                <use id="Mask" fill="#D2ECEE" fill-rule="nonzero" xlink:href="#path-1"></use>
                <path d="M-109.458167,32.1653386 L-109.458167,33.125498 L-109.447473,33.125498 C-109.185196,39.001009 -104.131785,43.687251 -97.936255,43.687251 C-91.7407252,43.687251 -86.6873141,39.001009 -86.4250372,33.125498 L-86.4036481,33.125498 C-86.1413711,39.001009 -81.0879601,43.687251 -74.8924303,43.687251 C-68.6969005,43.687251 -63.6434894,39.001009 -63.3812125,33.125498 L-63.3598234,33.125498 C-63.0975464,39.001009 -58.0441354,43.687251 -51.8486056,43.687251 C-45.6530758,43.687251 -40.5996647,39.001009 -40.3373878,33.125498 L-40.3159987,33.125498 C-40.0537217,39.001009 -35.0003107,43.687251 -28.8047809,43.687251 C-22.6092511,43.687251 -17.55584,39.001009 -17.2935631,33.125498 L-17.272174,33.125498 C-17.009897,39.001009 -11.956486,43.687251 -5.76095618,43.687251 C0.43457362,43.687251 5.48798467,39.001009 5.75026165,33.125498 L5.7716507,33.125498 C6.03392768,39.001009 11.0873387,43.687251 17.2828685,43.687251 C23.4783983,43.687251 28.5318094,39.001009 28.7940864,33.125498 L28.8154754,33.125498 C29.0777524,39.001009 34.1311634,43.687251 40.3266932,43.687251 C46.522223,43.687251 51.5756341,39.001009 51.8379111,33.125498 L51.8593001,33.125498 C52.1215771,39.001009 57.1749881,43.687251 63.3705179,43.687251 C69.5660477,43.687251 74.6194588,39.001009 74.8817358,33.125498 L74.9031248,33.125498 C75.1654018,39.001009 80.2188128,43.687251 86.4143426,43.687251 C91.6301933,43.687251 96.0365667,40.3658745 97.4561753,35.8096887 C98.8757839,40.3658745 103.282157,43.687251 108.498008,43.687251 C114.693538,43.687251 119.746949,39.001009 120.009226,33.125498 L120.030615,33.125498 C120.292892,39.001009 125.346303,43.687251 131.541833,43.687251 C137.737362,43.687251 142.790774,39.001009 143.05305,33.125498 L143.07444,33.125498 C143.336717,39.001009 148.390128,43.687251 154.585657,43.687251 C160.781187,43.687251 165.834598,39.001009 166.096875,33.125498 L166.118264,33.125498 C166.380541,39.001009 171.433952,43.687251 177.629482,43.687251 C183.825012,43.687251 188.878423,39.001009 189.1407,33.125498 L189.162089,33.125498 C189.424366,39.001009 194.477777,43.687251 200.673307,43.687251 C206.868837,43.687251 211.922248,39.001009 212.184525,33.125498 L212.205914,33.125498 C212.468191,39.001009 217.521602,43.687251 223.717131,43.687251 C229.912661,43.687251 234.966072,39.001009 235.228349,33.125498 L235.249738,33.125498 C235.512015,39.001009 240.565426,43.687251 246.760956,43.687251 C252.956486,43.687251 258.009897,39.001009 258.272174,33.125498 L258.293563,33.125498 C258.55584,39.001009 263.609251,43.687251 269.804781,43.687251 C276.000311,43.687251 281.053722,39.001009 281.315999,33.125498 L281.337388,33.125498 C281.599665,39.001009 286.653076,43.687251 292.848606,43.687251 C299.044135,43.687251 304.097546,39.001009 304.359823,33.125498 L304.381212,33.125498 C304.643489,39.001009 309.6969,43.687251 315.89243,43.687251 C322.08796,43.687251 327.141371,39.001009 327.403648,33.125498 L327.425037,33.125498 C327.687314,39.001009 332.740725,43.687251 338.936255,43.687251 C345.131785,43.687251 350.185196,39.001009 350.447473,33.125498 L350.468862,33.125498 C350.731139,39.001009 355.78455,43.687251 361.98008,43.687251 C368.175609,43.687251 373.229021,39.001009 373.491298,33.125498 L373.512687,33.125498 C373.774964,39.001009 378.828375,43.687251 385.023904,43.687251 C391.219434,43.687251 396.272845,39.001009 396.535122,33.125498 L396.556511,33.125498 C396.818788,39.001009 401.872199,43.687251 408.067729,43.687251 C409.414393,43.687251 410.707096,43.4658467 411.908367,43.0589497 L411.908367,320.213147 L-118.099602,320.213147 L-118.099602,32.1653386 L-109.458167,32.1653386 Z" id="Combined-Shape" fill="#66ADBF" fill-rule="nonzero" mask="url(#mask-2)"></path>
            </g>
        </g>
    </g>
</svg>