<svg id="Option_2" data-name="Option 2" xmlns="http://www.w3.org/2000/svg" xmlns:xlink="http://www.w3.org/1999/xlink" viewBox="0 0 500 300"><defs><style>.cls-1,.cls-22{fill:none;}.cls-2{fill:url(#New_Pattern_Swatch_16);}.cls-3{fill:url(#New_Pattern_Swatch_23);}.cls-4{fill:#666;}.cls-5{clip-path:url(#clip-path);}.cls-6{fill:#d2ecee;}.cls-7{clip-path:url(#clip-path-2);}.cls-8{clip-path:url(#clip-path-3);}.cls-9{fill:#e14a47;}.cls-10{fill:#aa1f1c;}.cls-11{fill:#881816;}.cls-12{fill:#671211;}.cls-13,.cls-14{fill:#450c0b;}.cls-14{fill-rule:evenodd;}.cls-15{opacity:0.2;}.cls-16{fill:url(#New_Pattern_Swatch_16-5);}.cls-17{clip-path:url(#clip-path-4);}.cls-18{clip-path:url(#clip-path-5);}.cls-19{clip-path:url(#clip-path-6);}.cls-20{clip-path:url(#clip-path-7);}.cls-21{opacity:0.4;}.cls-22{stroke:#352d00;stroke-linecap:round;stroke-miterlimit:10;stroke-width:8px;}.cls-23{opacity:0.1;}.cls-24{fill:url(#New_Pattern_Swatch_23-3);}.cls-25{clip-path:url(#clip-path-8);}.cls-26{clip-path:url(#clip-path-9);}</style><pattern id="New_Pattern_Swatch_16" data-name="New Pattern Swatch 16" width="10" height="10" patternTransform="translate(0.42 0.7)" patternUnits="userSpaceOnUse" viewBox="0 0 10 10"><rect class="cls-1" width="10" height="10"/><path d="M5,4A1,1,0,1,0,6,5,1,1,0,0,0,5,4Z"/><path d="M10,1V0H9A1,1,0,0,0,10,1Z"/><path d="M1,0H0V1H0A1,1,0,0,0,1,0Z"/><path d="M10,9a1,1,0,0,0-1,1h1Z"/><path d="M0,9H0v1H1A1,1,0,0,0,0,9Z"/></pattern><pattern id="New_Pattern_Swatch_23" data-name="New Pattern Swatch 23" width="10" height="10" patternTransform="translate(-160 -3)" patternUnits="userSpaceOnUse" viewBox="0 0 10 10"><rect class="cls-1" width="10" height="10"/><path class="cls-4" d="M5,4A1,1,0,1,0,6,5,1,1,0,0,0,5,4Z"/><path class="cls-4" d="M10,1V0H9A1,1,0,0,0,10,1Z"/><path class="cls-4" d="M1,0H0V1H0A1,1,0,0,0,1,0Z"/><path class="cls-4" d="M10,9a1,1,0,0,0-1,1h1Z"/><path class="cls-4" d="M0,9H0v1H1A1,1,0,0,0,0,9Z"/></pattern><clipPath id="clip-path"><rect id="_Clipping_mask_" data-name="[Clipping mask]" class="cls-1" x="-0.08" y="-0.3" width="500" height="300"/></clipPath><clipPath id="clip-path-2"><path class="cls-1" d="M499.92,68.83V329.7H-.08V68.79c.3,0,.6,0,.9,0a10.67,10.67,0,0,0,10.86-10h0a10.68,10.68,0,0,0,10.86,10,10.67,10.67,0,0,0,10.86-10h0a10.9,10.9,0,0,0,21.72,0h0a10.9,10.9,0,0,0,21.72,0h0a10.9,10.9,0,0,0,21.72,0h0a10.9,10.9,0,0,0,21.72,0h0a10.9,10.9,0,0,0,21.72,0h0a10.9,10.9,0,0,0,21.72,0h0a10.67,10.67,0,0,0,10.86,10,10.83,10.83,0,0,0,10.41-7.43,10.84,10.84,0,0,0,10.42,7.43,10.67,10.67,0,0,0,10.86-10h0a10.9,10.9,0,0,0,21.72,0h0a10.9,10.9,0,0,0,21.72,0h0a10.9,10.9,0,0,0,21.72,0h0a10.9,10.9,0,0,0,21.72,0h0a10.9,10.9,0,0,0,21.72,0h0a10.9,10.9,0,0,0,21.72,0h0a10.89,10.89,0,0,0,21.71,0h0a10.9,10.9,0,0,0,21.72,0h0a10.9,10.9,0,0,0,21.72,0h0a10.9,10.9,0,0,0,21.72,0h0a10.9,10.9,0,0,0,21.72,0h0a10.9,10.9,0,0,0,21.72,0h0a10.9,10.9,0,0,0,21.72,0h0A10.67,10.67,0,0,0,499.92,68.83Z"/></clipPath><clipPath id="clip-path-3"><rect class="cls-1" x="-673.09" y="-366.86" width="1237.32" height="927.54"/></clipPath><pattern id="New_Pattern_Swatch_16-5" data-name="New Pattern Swatch 16" width="10" height="10" patternTransform="translate(0.42 0.7)" patternUnits="userSpaceOnUse" viewBox="0 0 10 10"><rect class="cls-1" width="10" height="10"/><path d="M5,4A1,1,0,1,0,6,5,1,1,0,0,0,5,4Z"/><path d="M10,1V0H9A1,1,0,0,0,10,1Z"/><path d="M1,0H0V1H0A1,1,0,0,0,1,0Z"/><path d="M10,9a1,1,0,0,0-1,1h1Z"/><path d="M0,9H0v1H1A1,1,0,0,0,0,9Z"/></pattern><clipPath id="clip-path-4"><path class="cls-2" d="M499.92,68.83V329.7H-.08V68.79c.3,0,.6,0,.9,0a10.67,10.67,0,0,0,10.86-10h0a10.68,10.68,0,0,0,10.86,10,10.67,10.67,0,0,0,10.86-10h0a10.9,10.9,0,0,0,21.72,0h0a10.9,10.9,0,0,0,21.72,0h0a10.9,10.9,0,0,0,21.72,0h0a10.9,10.9,0,0,0,21.72,0h0a10.9,10.9,0,0,0,21.72,0h0a10.9,10.9,0,0,0,21.72,0h0a10.67,10.67,0,0,0,10.86,10,10.83,10.83,0,0,0,10.41-7.43,10.84,10.84,0,0,0,10.42,7.43,10.67,10.67,0,0,0,10.86-10h0a10.9,10.9,0,0,0,21.72,0h0a10.9,10.9,0,0,0,21.72,0h0a10.9,10.9,0,0,0,21.72,0h0a10.9,10.9,0,0,0,21.72,0h0a10.9,10.9,0,0,0,21.72,0h0a10.9,10.9,0,0,0,21.72,0h0a10.89,10.89,0,0,0,21.71,0h0a10.9,10.9,0,0,0,21.72,0h0a10.9,10.9,0,0,0,21.72,0h0a10.9,10.9,0,0,0,21.72,0h0a10.9,10.9,0,0,0,21.72,0h0a10.9,10.9,0,0,0,21.72,0h0a10.9,10.9,0,0,0,21.72,0h0A10.67,10.67,0,0,0,499.92,68.83Z"/></clipPath><clipPath id="clip-path-5"><rect class="cls-2" x="-673.09" y="-366.86" width="1237.32" height="927.54"/></clipPath><clipPath id="clip-path-6"><rect id="_Clipping_mask_2" data-name="[Clipping mask]" class="cls-1" x="-520.99" width="500" height="300"/></clipPath><clipPath id="clip-path-7"><path class="cls-1" d="M-20.92,65.13V326h-500V65.09a9.1,9.1,0,0,0,.91,0,10.68,10.68,0,0,0,10.86-10h0a10.67,10.67,0,0,0,10.86,10,10.68,10.68,0,0,0,10.86-10h0a10.67,10.67,0,0,0,10.86,10,10.66,10.66,0,0,0,10.85-10h0a10.66,10.66,0,0,0,10.85,10,10.67,10.67,0,0,0,10.86-10h0a10.68,10.68,0,0,0,10.86,10,10.67,10.67,0,0,0,10.86-10h0a10.68,10.68,0,0,0,10.86,10,10.67,10.67,0,0,0,10.86-10h0a10.68,10.68,0,0,0,10.86,10,10.67,10.67,0,0,0,10.86-10h0a10.68,10.68,0,0,0,10.86,10,10.67,10.67,0,0,0,10.86-10h0a10.68,10.68,0,0,0,10.86,10,10.83,10.83,0,0,0,10.42-7.43,10.81,10.81,0,0,0,10.41,7.43,10.67,10.67,0,0,0,10.86-10h0a10.68,10.68,0,0,0,10.86,10,10.67,10.67,0,0,0,10.86-10h0a10.68,10.68,0,0,0,10.86,10,10.67,10.67,0,0,0,10.86-10h0a10.68,10.68,0,0,0,10.86,10,10.67,10.67,0,0,0,10.86-10h0a10.68,10.68,0,0,0,10.86,10,10.68,10.68,0,0,0,10.86-10h0a10.67,10.67,0,0,0,10.86,10,10.68,10.68,0,0,0,10.86-10h0a10.67,10.67,0,0,0,10.86,10,10.68,10.68,0,0,0,10.86-10h0a10.67,10.67,0,0,0,10.86,10,10.68,10.68,0,0,0,10.86-10h0a10.67,10.67,0,0,0,10.86,10,10.68,10.68,0,0,0,10.86-10h0a10.67,10.67,0,0,0,10.86,10,10.68,10.68,0,0,0,10.86-10h0a10.66,10.66,0,0,0,10.85,10A10.67,10.67,0,0,0-97,55.17h0a10.68,10.68,0,0,0,10.86,10,10.67,10.67,0,0,0,10.86-10h0a10.68,10.68,0,0,0,10.86,10,10.67,10.67,0,0,0,10.86-10h0a10.68,10.68,0,0,0,10.86,10,10.67,10.67,0,0,0,10.86-10h0A10.68,10.68,0,0,0-20.92,65.13Z"/></clipPath><pattern id="New_Pattern_Swatch_23-3" data-name="New Pattern Swatch 23" width="10" height="10" patternTransform="translate(-160 -3)" patternUnits="userSpaceOnUse" viewBox="0 0 10 10"><rect class="cls-1" width="10" height="10"/><path class="cls-4" d="M5,4A1,1,0,1,0,6,5,1,1,0,0,0,5,4Z"/><path class="cls-4" d="M10,1V0H9A1,1,0,0,0,10,1Z"/><path class="cls-4" d="M1,0H0V1H0A1,1,0,0,0,1,0Z"/><path class="cls-4" d="M10,9a1,1,0,0,0-1,1h1Z"/><path class="cls-4" d="M0,9H0v1H1A1,1,0,0,0,0,9Z"/></pattern><clipPath id="clip-path-8"><path class="cls-3" d="M-20.5,65.13V326h-500V65.09a9.1,9.1,0,0,0,.91,0,10.68,10.68,0,0,0,10.86-10h0a10.66,10.66,0,0,0,10.85,10,10.67,10.67,0,0,0,10.86-10h0a10.68,10.68,0,0,0,10.86,10,10.67,10.67,0,0,0,10.86-10h0a10.68,10.68,0,0,0,10.86,10,10.67,10.67,0,0,0,10.86-10h0a10.68,10.68,0,0,0,10.86,10,10.67,10.67,0,0,0,10.86-10h0a10.68,10.68,0,0,0,10.86,10,10.67,10.67,0,0,0,10.86-10h0a10.68,10.68,0,0,0,10.86,10,10.67,10.67,0,0,0,10.86-10h0a10.67,10.67,0,0,0,10.86,10,10.68,10.68,0,0,0,10.86-10h0a10.67,10.67,0,0,0,10.86,10,10.83,10.83,0,0,0,10.42-7.43,10.8,10.8,0,0,0,10.41,7.43,10.67,10.67,0,0,0,10.86-10h0a10.68,10.68,0,0,0,10.86,10,10.67,10.67,0,0,0,10.86-10h0a10.68,10.68,0,0,0,10.86,10,10.67,10.67,0,0,0,10.86-10h0a10.67,10.67,0,0,0,10.86,10,10.68,10.68,0,0,0,10.86-10h0a10.67,10.67,0,0,0,10.86,10,10.68,10.68,0,0,0,10.86-10h0a10.67,10.67,0,0,0,10.86,10,10.68,10.68,0,0,0,10.86-10h0a10.67,10.67,0,0,0,10.86,10,10.68,10.68,0,0,0,10.86-10h0a10.67,10.67,0,0,0,10.86,10,10.68,10.68,0,0,0,10.86-10h0a10.67,10.67,0,0,0,10.86,10,10.66,10.66,0,0,0,10.85-10h0a10.68,10.68,0,0,0,10.86,10,10.67,10.67,0,0,0,10.86-10h0a10.68,10.68,0,0,0,10.86,10,10.67,10.67,0,0,0,10.86-10h0a10.68,10.68,0,0,0,10.86,10,10.67,10.67,0,0,0,10.86-10h0A10.68,10.68,0,0,0-64,65.13a10.67,10.67,0,0,0,10.86-10h0a10.68,10.68,0,0,0,10.86,10,10.67,10.67,0,0,0,10.86-10h0A10.68,10.68,0,0,0-20.5,65.13Z"/></clipPath><clipPath id="clip-path-9"><rect id="_Clipping_mask_3" data-name="[Clipping mask]" class="cls-1" x="-1040.13" width="500" height="300"/></clipPath></defs><title>scene_negative</title><g id="Unhealthy_Mid_fidelity" data-name="Unhealthy, Mid fidelity"><g class="cls-5"><g id="Background"><rect id="Sky" class="cls-6" x="-0.08" y="-0.3" width="500" height="300"/><g id="Water"><g class="cls-7"><g class="cls-8"><rect class="cls-9" x="-4.61" y="54.34" width="509.06" height="279.89"/></g></g></g></g><path id="Rocks_floor_background" data-name="Rocks / floor background" class="cls-10" d="M508.21,203.79c-3.78,0-18.95-7.84-28.79-10.41-8.52-2.22-19.35.16-19.35,4.11,0,4.35,3.85,5.33,3.85,7.48,0,1.88-7.49,5.2-7.57,11a6.11,6.11,0,0,0,.25,2,.61.61,0,0,1-.73.78,78.79,78.79,0,0,0-14.31-2.16c-10.84-.55-25.07,6.51-25.07,11.11,0,3.19,2.16,4.75,3.56,5.91.47.38.78.66.67,1s-1.87.3-5.55.51a.89.89,0,0,1-.8-1.35,3.7,3.7,0,0,0,.59-1.95c0-3.73-6.47-9.75-10.2-9.75s-9,6-9,9.75a5.93,5.93,0,0,0,2.71,4.5.36.36,0,0,1-.16.64l-1.4.25a.32.32,0,0,1-.29,0,.27.27,0,0,1-.09-.23c0-2.44-4.24-6.39-6.69-6.39s-5.89,4-5.89,6.39a3,3,0,0,0,.42,1.46,1,1,0,0,1-.69,1.52l-3.87.83a1.09,1.09,0,0,1-.79-.13c-1.86-1.09-4.34-1.85-4.55-2.46-.35-1-1.1-1.76-2.14-1.51-3.56.85-3.58,3.42-2.33,5.56a.5.5,0,0,1-.33.74c-24.59,5.37-51.18,11.27-63,11.68l-3.6.1a1.65,1.65,0,0,1-1.36-.68c-.89-1.16-2.38-2.23-3.38-2.23s-2.59,1.35-3.28,2.67a.63.63,0,0,1-.57.36h-.66a1.28,1.28,0,0,1-1.28-1.3,4.34,4.34,0,0,0-1.92-3.35,5.05,5.05,0,0,0-5.3-.42c-2.25,1-12.68-1.45-12.68,3.64a2.41,2.41,0,0,0,.05.71s.1.22,0,.32-.52.07-.55.06c-6.77-.22-10.49-.48-10.49-.48a.84.84,0,0,1-.7-.46c-1.76-3.42-8.93-5.26-23.29-7.79-17-3-27.84-6.54-40-3.12-8.87,2.49-6.47,10.26-7.56,10.91a8.17,8.17,0,0,1-1.8.19,1.61,1.61,0,0,1-1.59-1.08,3.77,3.77,0,0,0-1.57-1.76,2.74,2.74,0,0,0-2.84.05c-1.29.7-8-.89-8,2.4,0,.07,0,.14,0,.21a.58.58,0,0,1-.11.29.41.41,0,0,1-.35.15h-2a.9.9,0,0,1-.67-.31,5.17,5.17,0,0,0-3.11-1.91,3.92,3.92,0,0,0-2.53,1.56,2,2,0,0,1-1.54.68c-7.39,0-13.91,0-15.63,0a.7.7,0,0,1-.61-.33,6.25,6.25,0,0,0-4.95-2.67c-3,0-4.88,1.29-5.75,2.64a.73.73,0,0,1-.62.36h-9.94c-1.2,0-1.68-.39-1.75-.92a11.84,11.84,0,0,0-23.47,0,1.12,1.12,0,0,1-1.12.94H98.9c-.53,0-.83-.25-.89-.61-1.67-9.25-10.2-24.65-22-25.39-12-.75-32.92,7.47-44.37,12.91a.73.73,0,0,1-1-.5c-.83-4.27-10.56-7.48-20.78-17.7-13-13-25.23,10.67-25.23,10.67V254h1v46.53a.77.77,0,0,0,.76.77H486.78a.78.78,0,0,0,.77-.77l-.31-71.39s-4.48-1.77-9.26-3.53a.56.56,0,0,1,.18-1.08c7.77-.07,16.67-1.06,22.19,2.29,8.57,5.2,19.39,12.84,23.3,12.84C539.15,239.66,510.8,203.79,508.21,203.79ZM21.32,253.23a.76.76,0,0,1-.77.77H16.48a.76.76,0,0,1-.36-1.44c1.46-.78,2.87-1.55,4.19-2.31a.77.77,0,0,1,1.13.75A21.4,21.4,0,0,0,21.32,253.23Z"/><g id="ROCKS_back_copy_4" data-name="ROCKS back copy 4"><path class="cls-11" d="M-.91,263V214s14-7,27,6,20,19.08,17,23.54S3.09,267-.91,263Z"/><path class="cls-11" d="M500.51,261.58v-49s-41.07,15.7-47.7,21c-5,4-17,19.54-14,24S496.51,265.58,500.51,261.58Z"/><path class="cls-11" d="M17.47,260.09s-1.75-10.6,2.55-13.82S58.69,226.93,75.88,228s27.93,31.16,22.56,34.38S46.87,273.13,38.28,271,20.3,265.32,17.47,260.09Z"/><path class="cls-11" d="M394,263c-1-1,5-6,8-6s4,4,3,6S395,264,394,263Z"/><path class="cls-11" d="M165.47,252.86c2.17-4.52,4.33-7.53,12.64-10.3s5.54-1.38,17.32.7,20.09,9,18.71,10.39c-3.47,3.46-24.25,1.38-29.79,2.77S162.52,259,165.47,252.86Z"/><path class="cls-11" d="M155.83,251c-5.41,0-7.17,4.18-6,5.38s9,1.2,10.76-.6S158.82,251,155.83,251Z"/><path class="cls-11" d="M89.62,266.27c-3.14,0-4.16,2.42-3.46,3.12s5.2.69,6.24-.35S91.36,266.27,89.62,266.27Z"/><path class="cls-11" d="M94.3,280.05c.22-1,4.08-1.85,4.85-1.22s3.11,2.52.3,2.81S93.82,282.24,94.3,280.05Z"/><path class="cls-11" d="M213.05,268.3c.22-1,4.08-1.85,4.85-1.22s3.11,2.51.3,2.81S212.57,270.48,213.05,268.3Z"/><path class="cls-11" d="M251.72,289.16c.22-1,4.08-1.85,4.85-1.22s3.11,2.51.3,2.81S251.24,291.34,251.72,289.16Z"/><path class="cls-11" d="M247.31,285.09c.22-1,4.08-1.85,4.85-1.22s3.11,2.51.3,2.81S246.83,287.27,247.31,285.09Z"/><path class="cls-11" d="M192.8,262.88c.22-1,4.07-1.85,4.85-1.22s3.11,2.52.29,2.81S192.32,265.06,192.8,262.88Z"/><path class="cls-11" d="M155.61,259.38c.21-1,4.07-1.85,4.85-1.22s3.1,2.52.29,2.81S155.13,261.56,155.61,259.38Z"/><path class="cls-11" d="M215.77,252.81c.22-1,4.07-1.85,4.85-1.22s3.11,2.52.3,2.82S215.29,255,215.77,252.81Z"/><path class="cls-11" d="M396.89,269.88c.21-1,4.07-1.85,4.85-1.22s3.1,2.52.29,2.81S396.4,272.06,396.89,269.88Z"/><path class="cls-11" d="M366,249.65c.18-.78,3.29-1.49,3.92-1s2.51,2,.23,2.27S365.62,251.42,366,249.65Z"/><path class="cls-11" d="M406.37,249c.17-.79,3.28-1.5,3.91-1s2.51,2,.24,2.27S406,250.77,406.37,249Z"/><path class="cls-11" d="M376.72,255c.21-1,4.07-1.85,4.84-1.22s3.11,2.52.3,2.81S376.23,257.16,376.72,255Z"/><path class="cls-11" d="M264.18,264.07c.22-1,4.08-1.85,4.85-1.22s3.11,2.52.3,2.81S263.7,266.26,264.18,264.07Z"/><path class="cls-11" d="M447.89,264.3c.22-1,4.08-1.85,4.85-1.22s3.11,2.51.3,2.81S447.41,266.48,447.89,264.3Z"/><path class="cls-11" d="M269,259.18c-1-1.95,6.18-9.25,8.49-9.25s9.26,6.17,8.49,7.71S269.78,260.73,269,259.18Z"/><path class="cls-11" d="M256.73,257.14c-1-1,5-6,8-6s4,4,3,6S257.73,258.14,256.73,257.14Z"/></g><g id="Layer_31_copy_2" data-name="Layer 31 copy 2"><path class="cls-11" d="M313.74,256.63c-1.17-3.49,4.65-9.89,11.06-10.48s22.11,8.15,20.37,10.48S314.9,260.12,313.74,256.63Z"/></g><g id="ROCKS_mid_copy_2" data-name="ROCKS mid copy 2"><path class="cls-12" d="M76.09,264c-9,0-12,7-10,9s15,2,18-1S81.09,264,76.09,264Z"/><path class="cls-12" d="M87.77,274.24c-3.73,0-4.94,2.89-4.12,3.71s6.18.83,7.42-.41S89.83,274.24,87.77,274.24Z"/><path class="cls-12" d="M223.57,267.89c-3.74,0-4.95,2.89-4.13,3.71s6.19.83,7.42-.41S225.63,267.89,223.57,267.89Z"/><path class="cls-12" d="M215.42,255c-9,0-12,7-10,9s15,2,18-1S220.42,255,215.42,255Z"/><path class="cls-12" d="M269.77,273.54c-12.64,0-16.75,9.77-14,12.56s20.93,2.79,25.12-1.4S276.74,273.54,269.77,273.54Z"/><path class="cls-12" d="M437.51,263.43c-3.73,0-4.94,2.88-4.12,3.71s6.18.82,7.42-.41S439.57,263.43,437.51,263.43Z"/><path class="cls-12" d="M382.23,246.2c-3.73,0-4.94,2.89-4.12,3.71s6.18.83,7.42-.41S384.29,246.2,382.23,246.2Z"/><path class="cls-12" d="M411.29,273c-3.74,0-5,2.88-4.12,3.7s6.18.83,7.41-.41S413.35,273,411.29,273Z"/><path class="cls-12" d="M277.47,266.19c-3.73,0-4.94,2.89-4.12,3.71s6.18.82,7.42-.41S279.53,266.19,277.47,266.19Z"/><path class="cls-12" d="M444.84,250.31c-10,0-13.22,7.71-11,9.91s16.52,2.21,19.83-1.1S450.35,250.31,444.84,250.31Z"/><path class="cls-12" d="M231.83,260c-5.41,0-7.17,4.18-6,5.38s9,1.2,10.76-.6S234.82,260,231.83,260Z"/><path class="cls-12" d="M100,254.27c1.9-3.79,6-7.49,12-6s14.24,3.74,17.24,8.24,5.25,9.74-.75,10.49-24,7.5-28.48,6-10.11-5.45-6.93-10.59S97.77,258.77,100,254.27Z"/><path class="cls-12" d="M-9.86,248.22c1.89-3.79,6-7.49,12-6s14.24,3.75,17.24,8.25,5.24,9.74-.75,10.49-24,7.5-28.48,6-10.12-5.45-6.94-10.6S-12.11,252.72-9.86,248.22Z"/><path class="cls-12" d="M459.09,260c2.55-2.55,16-11,19-12s21-3,21-3v40s-32.5-3.5-37-5-10-6-8.56-9.52C454.64,267.77,457.09,262,459.09,260Z"/><path class="cls-12" d="M408.09,268.28C406.9,265.9,415.61,257,418.43,257s11.28,7.52,10.34,9.4S409,270.16,408.09,268.28Z"/><path class="cls-12" d="M397.33,245.85c-1.27-2.53,8-12,11-12s12,8,11,10S398.33,247.85,397.33,245.85Z"/><path class="cls-12" d="M414.86,249.88c-1.55-3.11,9.81-14.72,13.49-14.72s14.72,9.81,13.49,12.26S416.09,252.33,414.86,249.88Z"/><path class="cls-12" d="M132.37,278c-1.26-2.53,8-12,11-12s12,8,11,10S133.37,280,132.37,278Z"/><path class="cls-12" d="M396.92,292.55c6.33-4.22,7-10,14-6s11,5,15,11a103.91,103.91,0,0,1,6,10h-40S390.92,296.55,396.92,292.55Z"/><path class="cls-12" d="M267.49,298.48c6.34-4.22,7-10,14-6s11,5,15,11a103.91,103.91,0,0,1,6,10h-40S261.49,302.48,267.49,298.48Z"/></g><g id="ROCKS_fore_copy_2" data-name="ROCKS fore copy 2"><path class="cls-13" d="M-41.75,237.49s17.54-3.14,31.34-1.69c16.35,1.72,95.18,32.05,100,45C94.23,293.09,77,300,77,300H-41.61Z"/><path class="cls-13" d="M382.07,281.45c-12.41-5-29.53,3.62-42.1,5-13.47,1.48-52.12,3-51.66,10.85.37,6.36,19.8,9.66,19.8,9.66l94.62-5.53A37.2,37.2,0,0,0,382.07,281.45Z"/><path class="cls-13" d="M85.7,293.24c5.66-9.91,72.72-24.24,84.2-24.24s33.18,14,38.28,21.69a29,29,0,0,1,5,17.86H85.7S80.6,302.17,85.7,293.24Z"/><path class="cls-13" d="M422.21,294.38s-5.58-11.91,5.58-16.75,46.14,2.24,51.35,2.24S503.7,281,503.7,281l-.37,20.09-75.16.75-6-7.44"/></g><path id="fish__unhappy" class="cls-14" d="M314.94,189.19a25.9,25.9,0,0,0-27.49-1.12,2.64,2.64,0,0,0,2.64,4.57,20.65,20.65,0,0,1,20.46,0A97,97,0,0,1,290.42,204a72.64,72.64,0,0,1-28.79,6.24q-18.4,0-36.51-9.8A95.41,95.41,0,0,1,198.7,180l-26.12,19.6a4.77,4.77,0,0,1-5.64.44c-2-1.08-2.77-2.62-2.38-4.6L172,162.76l-7.43-32.66q-.59-3,2.38-4.6a5.26,5.26,0,0,1,5.94.44l25.82,19.6a95.6,95.6,0,0,1,26.42-20.49q18.1-9.8,36.51-9.79a75.94,75.94,0,0,1,28.79,5.93,108.43,108.43,0,0,1,23.45,14.25,98.57,98.57,0,0,1,15.73,15.74q5.94,7.71,5.93,11.58T329.6,174A91.42,91.42,0,0,1,314.94,189.19Zm-12.55-29.53,5.47-4.8a2.53,2.53,0,0,0,.2-3.64,2.69,2.69,0,0,0-3.74-.19l-5.89,5.16L292.55,151a2.69,2.69,0,0,0-3.74.19,2.53,2.53,0,0,0,.2,3.64l5.47,4.8-5.47,4.8a2.53,2.53,0,0,0-.2,3.64,2.7,2.7,0,0,0,3.74.19l5.88-5.16,5.89,5.16a2.7,2.7,0,0,0,3.74-.19,2.53,2.53,0,0,0-.2-3.64Z"/><g id="Turbidity" class="cls-15"><path class="cls-16" d="M499.92,68.83V329.7H-.08V68.79c.3,0,.6,0,.9,0a10.67,10.67,0,0,0,10.86-10h0a10.68,10.68,0,0,0,10.86,10,10.67,10.67,0,0,0,10.86-10h0a10.9,10.9,0,0,0,21.72,0h0a10.9,10.9,0,0,0,21.72,0h0a10.9,10.9,0,0,0,21.72,0h0a10.9,10.9,0,0,0,21.72,0h0a10.9,10.9,0,0,0,21.72,0h0a10.9,10.9,0,0,0,21.72,0h0a10.67,10.67,0,0,0,10.86,10,10.83,10.83,0,0,0,10.41-7.43,10.84,10.84,0,0,0,10.42,7.43,10.67,10.67,0,0,0,10.86-10h0a10.9,10.9,0,0,0,21.72,0h0a10.9,10.9,0,0,0,21.72,0h0a10.9,10.9,0,0,0,21.72,0h0a10.9,10.9,0,0,0,21.72,0h0a10.9,10.9,0,0,0,21.72,0h0a10.9,10.9,0,0,0,21.72,0h0a10.89,10.89,0,0,0,21.71,0h0a10.9,10.9,0,0,0,21.72,0h0a10.9,10.9,0,0,0,21.72,0h0a10.9,10.9,0,0,0,21.72,0h0a10.9,10.9,0,0,0,21.72,0h0a10.9,10.9,0,0,0,21.72,0h0a10.9,10.9,0,0,0,21.72,0h0A10.67,10.67,0,0,0,499.92,68.83Z"/><g class="cls-17"><rect class="cls-16" x="-673.09" y="-366.86" width="1237.32" height="927.54"/><g class="cls-18"><rect class="cls-16" x="-4.61" y="54.34" width="509.06" height="279.89"/></g></g></g></g></g><g id="Moderately_healthy_Mid_fidelity" data-name="Moderately healthy, Mid fidelity"><g class="cls-19"><path id="Rocks_floor_background-2" data-name="Rocks / floor background" class="cls-21" d="M-11.95,203.79c-3.78,0-18.94-7.84-28.79-10.41-8.51-2.22-19.35.16-19.35,4.11,0,4.35,3.86,5.33,3.86,7.48,0,1.88-7.49,5.2-7.58,11a6.69,6.69,0,0,0,.25,2,.61.61,0,0,1-.73.78,78.79,78.79,0,0,0-14.31-2.16c-10.84-.55-25.07,6.51-25.07,11.11,0,3.19,2.16,4.75,3.56,5.91.47.38.79.66.67,1s-1.87.3-5.54.51a.88.88,0,0,1-.8-1.35,3.79,3.79,0,0,0,.59-1.95c0-3.73-6.47-9.75-10.21-9.75s-9,6-9,9.75a5.93,5.93,0,0,0,2.71,4.5.36.36,0,0,1-.15.64l-1.41.25a.32.32,0,0,1-.29,0,.27.27,0,0,1-.09-.23c0-2.44-4.24-6.39-6.69-6.39s-5.88,4-5.88,6.39a3,3,0,0,0,.41,1.46,1,1,0,0,1-.69,1.52l-3.87.83a1.06,1.06,0,0,1-.78-.13c-1.87-1.09-4.35-1.85-4.56-2.46-.35-1-1.1-1.76-2.13-1.51-3.57.85-3.58,3.42-2.34,5.56a.49.49,0,0,1-.33.74c-24.59,5.37-51.18,11.27-63,11.68l-3.6.1a1.63,1.63,0,0,1-1.35-.68c-.9-1.16-2.38-2.23-3.39-2.23s-2.59,1.35-3.27,2.67a.66.66,0,0,1-.58.36h-.66a1.28,1.28,0,0,1-1.28-1.3,4.31,4.31,0,0,0-1.92-3.35,5,5,0,0,0-5.3-.42c-2.25,1-12.68-1.45-12.68,3.64a2.41,2.41,0,0,0,.06.71s.09.22,0,.32-.52.07-.55.06c-6.77-.22-10.49-.48-10.49-.48a.87.87,0,0,1-.7-.46c-1.76-3.42-8.93-5.26-23.29-7.79-17-3-27.84-6.54-40-3.12-8.88,2.49-6.48,10.26-7.57,10.91a8.06,8.06,0,0,1-1.8.19,1.61,1.61,0,0,1-1.59-1.08,3.71,3.71,0,0,0-1.57-1.76,2.74,2.74,0,0,0-2.84.05c-1.29.7-8-.89-8,2.4,0,.07,0,.14,0,.21a.58.58,0,0,1-.11.29.39.39,0,0,1-.34.15h-2a.92.92,0,0,1-.67-.31,5.14,5.14,0,0,0-3.11-1.91,3.88,3.88,0,0,0-2.52,1.56,2,2,0,0,1-1.54.68c-7.4,0-13.92,0-15.64,0a.71.71,0,0,1-.61-.33,6.25,6.25,0,0,0-5-2.67c-3,0-4.88,1.29-5.75,2.64a.71.71,0,0,1-.61.36h-9.94c-1.21,0-1.69-.39-1.76-.92a11.85,11.85,0,0,0-11.74-10.26,11.85,11.85,0,0,0-11.73,10.24,1.12,1.12,0,0,1-1.12.94h-1.2c-.53,0-.83-.25-.89-.61-1.67-9.25-10.2-24.65-22-25.39-12-.75-32.93,7.47-44.38,12.91a.73.73,0,0,1-1-.5c-.82-4.27-10.55-7.48-20.78-17.7-13-13-25.23,10.67-25.23,10.67V254h1v46.53a.77.77,0,0,0,.77.77H-33.38a.77.77,0,0,0,.77-.77l-.31-71.39s-4.48-1.77-9.26-3.53a.56.56,0,0,1,.18-1.08c7.77-.07,16.67-1.06,22.19,2.29,8.57,5.2,19.39,12.84,23.3,12.84C19,239.66-9.36,203.79-11.95,203.79Zm-486.89,49.44a.76.76,0,0,1-.76.77h-4.08a.77.77,0,0,1-.36-1.44q2.21-1.17,4.2-2.31a.76.76,0,0,1,1.12.75C-498.8,251.76-498.83,252.51-498.84,253.23Z"/><g id="PLANTS_fore_copy" data-name="PLANTS fore copy"><g id="Plant"><path class="cls-22" d="M1.06,191s-34.62,19.09-56.65,32.65c-29.18,18-39.6,36.09-53.47,83.44"/></g></g><g id="Turbidity-2" data-name="Turbidity" class="cls-23"><path class="cls-24" d="M-20.5,65.13V326h-500V65.09a9.1,9.1,0,0,0,.91,0,10.68,10.68,0,0,0,10.86-10h0a10.66,10.66,0,0,0,10.85,10,10.67,10.67,0,0,0,10.86-10h0a10.68,10.68,0,0,0,10.86,10,10.67,10.67,0,0,0,10.86-10h0a10.68,10.68,0,0,0,10.86,10,10.67,10.67,0,0,0,10.86-10h0a10.68,10.68,0,0,0,10.86,10,10.67,10.67,0,0,0,10.86-10h0a10.68,10.68,0,0,0,10.86,10,10.67,10.67,0,0,0,10.86-10h0a10.68,10.68,0,0,0,10.86,10,10.67,10.67,0,0,0,10.86-10h0a10.67,10.67,0,0,0,10.86,10,10.68,10.68,0,0,0,10.86-10h0a10.67,10.67,0,0,0,10.86,10,10.83,10.83,0,0,0,10.42-7.43,10.8,10.8,0,0,0,10.41,7.43,10.67,10.67,0,0,0,10.86-10h0a10.68,10.68,0,0,0,10.86,10,10.67,10.67,0,0,0,10.86-10h0a10.68,10.68,0,0,0,10.86,10,10.67,10.67,0,0,0,10.86-10h0a10.67,10.67,0,0,0,10.86,10,10.68,10.68,0,0,0,10.86-10h0a10.67,10.67,0,0,0,10.86,10,10.68,10.68,0,0,0,10.86-10h0a10.67,10.67,0,0,0,10.86,10,10.68,10.68,0,0,0,10.86-10h0a10.67,10.67,0,0,0,10.86,10,10.68,10.68,0,0,0,10.86-10h0a10.67,10.67,0,0,0,10.86,10,10.68,10.68,0,0,0,10.86-10h0a10.67,10.67,0,0,0,10.86,10,10.66,10.66,0,0,0,10.85-10h0a10.68,10.68,0,0,0,10.86,10,10.67,10.67,0,0,0,10.86-10h0a10.68,10.68,0,0,0,10.86,10,10.67,10.67,0,0,0,10.86-10h0a10.68,10.68,0,0,0,10.86,10,10.67,10.67,0,0,0,10.86-10h0A10.68,10.68,0,0,0-64,65.13a10.67,10.67,0,0,0,10.86-10h0a10.68,10.68,0,0,0,10.86,10,10.67,10.67,0,0,0,10.86-10h0A10.68,10.68,0,0,0-20.5,65.13Z"/><g class="cls-25"><rect class="cls-24" x="-1193.51" y="-370.56" width="1237.32" height="927.54"/></g></g></g></g></svg>