<svg id="Option_2" data-name="Option 2" xmlns="http://www.w3.org/2000/svg" xmlns:xlink="http://www.w3.org/1999/xlink" viewBox="0 0 500 300"><defs><style>.cls-1,.cls-13,.cls-25,.cls-26,.cls-28,.cls-30,.cls-31,.cls-32{fill:none;}.cls-2{fill:url(#New_Pattern_Swatch_16);}.cls-3{fill:url(#New_Pattern_Swatch_23);}.cls-4{fill:#666;}.cls-5{clip-path:url(#clip-path);}.cls-6{clip-path:url(#clip-path-2);}.cls-7{opacity:0.2;}.cls-8{fill:url(#New_Pattern_Swatch_16-3);}.cls-9{clip-path:url(#clip-path-3);}.cls-10{clip-path:url(#clip-path-4);}.cls-11{clip-path:url(#clip-path-5);}.cls-12{fill:#493e01;}.cls-13{stroke:#352d00;}.cls-13,.cls-25,.cls-26,.cls-28,.cls-30,.cls-31,.cls-32{stroke-linecap:round;stroke-miterlimit:10;}.cls-13,.cls-30{stroke-width:8px;}.cls-14{opacity:0.1;}.cls-15{fill:url(#New_Pattern_Swatch_23-3);}.cls-16{clip-path:url(#clip-path-6);}.cls-17{clip-path:url(#clip-path-7);}.cls-18{fill:#d2ecee;}.cls-19{clip-path:url(#clip-path-8);}.cls-20{clip-path:url(#clip-path-9);}.cls-21{fill:#66adbf;}.cls-22{opacity:0.4;}.cls-23{fill:#30505a;}.cls-24{fill:#233941;}.cls-25,.cls-31,.cls-32{stroke:#2a444e;}.cls-25,.cls-31{stroke-width:3px;}.cls-26{stroke:#1d3941;stroke-width:5px;}.cls-27,.cls-29{fill:#1c2e34;}.cls-28{stroke:#1c2e34;}.cls-28,.cls-29,.cls-31,.cls-32,.cls-33,.cls-35,.cls-36{fill-rule:evenodd;}.cls-30{stroke:#152327;}.cls-33,.cls-34,.cls-35{fill:#2a444e;}.cls-35{opacity:0.5;}</style><pattern id="New_Pattern_Swatch_16" data-name="New Pattern Swatch 16" width="10" height="10" patternTransform="translate(0.42 0.7)" patternUnits="userSpaceOnUse" viewBox="0 0 10 10"><rect class="cls-1" width="10" height="10"/><path d="M5,4A1,1,0,1,0,6,5,1,1,0,0,0,5,4Z"/><path d="M10,1V0H9A1,1,0,0,0,10,1Z"/><path d="M1,0H0V1H0A1,1,0,0,0,1,0Z"/><path d="M10,9a1,1,0,0,0-1,1h1Z"/><path d="M0,9H0v1H1A1,1,0,0,0,0,9Z"/></pattern><pattern id="New_Pattern_Swatch_23" data-name="New Pattern Swatch 23" width="10" height="10" patternTransform="translate(-160 -3)" patternUnits="userSpaceOnUse" viewBox="0 0 10 10"><rect class="cls-1" width="10" height="10"/><path class="cls-4" d="M5,4A1,1,0,1,0,6,5,1,1,0,0,0,5,4Z"/><path class="cls-4" d="M10,1V0H9A1,1,0,0,0,10,1Z"/><path class="cls-4" d="M1,0H0V1H0A1,1,0,0,0,1,0Z"/><path class="cls-4" d="M10,9a1,1,0,0,0-1,1h1Z"/><path class="cls-4" d="M0,9H0v1H1A1,1,0,0,0,0,9Z"/></pattern><clipPath id="clip-path"><rect id="_Clipping_mask_" data-name="[Clipping mask]" class="cls-1" x="1039.97" y="-0.3" width="500" height="300"/></clipPath><clipPath id="clip-path-2"><path class="cls-1" d="M1540,68.83V329.7H1040V68.79c.3,0,.61,0,.91,0a10.67,10.67,0,0,0,10.86-10h0a10.9,10.9,0,0,0,21.72,0h0a10.9,10.9,0,0,0,21.72,0h0a10.9,10.9,0,0,0,21.72,0h0a10.9,10.9,0,0,0,21.72,0h0a10.9,10.9,0,0,0,21.72,0h0a10.9,10.9,0,0,0,21.72,0h0a10.89,10.89,0,0,0,21.71,0h0a10.68,10.68,0,0,0,10.86,10,10.84,10.84,0,0,0,10.42-7.43,10.84,10.84,0,0,0,10.42,7.43,10.68,10.68,0,0,0,10.86-10h0a10.9,10.9,0,0,0,21.72,0h0a10.89,10.89,0,0,0,21.71,0h0a10.89,10.89,0,0,0,21.71,0h0a10.9,10.9,0,0,0,21.72,0h0a10.9,10.9,0,0,0,21.72,0h0a10.9,10.9,0,0,0,21.72,0h0a10.9,10.9,0,0,0,21.72,0h0a10.9,10.9,0,0,0,21.72,0h0a10.9,10.9,0,0,0,21.72,0h0a10.9,10.9,0,0,0,21.72,0h0a10.9,10.9,0,0,0,21.72,0h0a10.9,10.9,0,0,0,21.72,0h0a10.9,10.9,0,0,0,21.72,0h0A10.66,10.66,0,0,0,1540,68.83Z"/></clipPath><pattern id="New_Pattern_Swatch_16-3" data-name="New Pattern Swatch 16" width="10" height="10" patternTransform="translate(0.42 0.7)" patternUnits="userSpaceOnUse" viewBox="0 0 10 10"><rect class="cls-1" width="10" height="10"/><path d="M5,4A1,1,0,1,0,6,5,1,1,0,0,0,5,4Z"/><path d="M10,1V0H9A1,1,0,0,0,10,1Z"/><path d="M1,0H0V1H0A1,1,0,0,0,1,0Z"/><path d="M10,9a1,1,0,0,0-1,1h1Z"/><path d="M0,9H0v1H1A1,1,0,0,0,0,9Z"/></pattern><clipPath id="clip-path-3"><path class="cls-2" d="M1540,68.83V329.7H1040V68.79c.3,0,.61,0,.91,0a10.67,10.67,0,0,0,10.86-10h0a10.9,10.9,0,0,0,21.72,0h0a10.9,10.9,0,0,0,21.72,0h0a10.9,10.9,0,0,0,21.72,0h0a10.9,10.9,0,0,0,21.72,0h0a10.9,10.9,0,0,0,21.72,0h0a10.9,10.9,0,0,0,21.72,0h0a10.89,10.89,0,0,0,21.71,0h0a10.68,10.68,0,0,0,10.86,10,10.84,10.84,0,0,0,10.42-7.43,10.84,10.84,0,0,0,10.42,7.43,10.68,10.68,0,0,0,10.86-10h0a10.9,10.9,0,0,0,21.72,0h0a10.89,10.89,0,0,0,21.71,0h0a10.89,10.89,0,0,0,21.71,0h0a10.9,10.9,0,0,0,21.72,0h0a10.9,10.9,0,0,0,21.72,0h0a10.9,10.9,0,0,0,21.72,0h0a10.9,10.9,0,0,0,21.72,0h0a10.9,10.9,0,0,0,21.72,0h0a10.9,10.9,0,0,0,21.72,0h0a10.9,10.9,0,0,0,21.72,0h0a10.9,10.9,0,0,0,21.72,0h0a10.9,10.9,0,0,0,21.72,0h0a10.9,10.9,0,0,0,21.72,0h0A10.66,10.66,0,0,0,1540,68.83Z"/></clipPath><clipPath id="clip-path-4"><rect id="_Clipping_mask_2" data-name="[Clipping mask]" class="cls-1" x="519.06" width="500" height="300"/></clipPath><clipPath id="clip-path-5"><path class="cls-1" d="M1019.14,65.13V326h-500V65.09c.3,0,.6,0,.9,0a10.67,10.67,0,0,0,10.86-10h0a10.9,10.9,0,0,0,21.72,0h0a10.9,10.9,0,0,0,21.72,0h0a10.9,10.9,0,0,0,21.72,0h0a10.9,10.9,0,0,0,21.72,0h0a10.9,10.9,0,0,0,21.72,0h0a10.9,10.9,0,0,0,21.72,0h0a10.9,10.9,0,0,0,21.72,0h0a10.67,10.67,0,0,0,10.86,10,10.81,10.81,0,0,0,10.41-7.43,10.83,10.83,0,0,0,10.42,7.43,10.68,10.68,0,0,0,10.86-10h0a10.9,10.9,0,0,0,21.72,0h0a10.9,10.9,0,0,0,21.72,0h0a10.9,10.9,0,0,0,21.72,0h0a10.9,10.9,0,0,0,21.72,0h0a10.9,10.9,0,0,0,21.72,0h0a10.9,10.9,0,0,0,21.71,0h0a10.9,10.9,0,0,0,21.72,0h0a10.9,10.9,0,0,0,21.72,0h0a10.9,10.9,0,0,0,21.72,0h0a10.9,10.9,0,0,0,21.72,0h0a10.9,10.9,0,0,0,21.72,0h0a10.9,10.9,0,0,0,21.72,0h0a10.9,10.9,0,0,0,21.72,0h0A10.67,10.67,0,0,0,1019.14,65.13Z"/></clipPath><pattern id="New_Pattern_Swatch_23-3" data-name="New Pattern Swatch 23" width="10" height="10" patternTransform="translate(-160 -3)" patternUnits="userSpaceOnUse" viewBox="0 0 10 10"><rect class="cls-1" width="10" height="10"/><path class="cls-4" d="M5,4A1,1,0,1,0,6,5,1,1,0,0,0,5,4Z"/><path class="cls-4" d="M10,1V0H9A1,1,0,0,0,10,1Z"/><path class="cls-4" d="M1,0H0V1H0A1,1,0,0,0,1,0Z"/><path class="cls-4" d="M10,9a1,1,0,0,0-1,1h1Z"/><path class="cls-4" d="M0,9H0v1H1A1,1,0,0,0,0,9Z"/></pattern><clipPath id="clip-path-6"><path class="cls-3" d="M1019.56,65.13V326h-500V65.09c.3,0,.6,0,.9,0a10.67,10.67,0,0,0,10.86-10h0a10.9,10.9,0,0,0,21.72,0h0a10.9,10.9,0,0,0,21.72,0h0a10.9,10.9,0,0,0,21.72,0h0a10.9,10.9,0,0,0,21.72,0h0a10.9,10.9,0,0,0,21.72,0h0a10.9,10.9,0,0,0,21.72,0h0a10.9,10.9,0,0,0,21.72,0h0a10.67,10.67,0,0,0,10.86,10,10.81,10.81,0,0,0,10.41-7.43,10.83,10.83,0,0,0,10.42,7.43,10.68,10.68,0,0,0,10.86-10h0a10.9,10.9,0,0,0,21.72,0h0a10.9,10.9,0,0,0,21.72,0h0a10.9,10.9,0,0,0,21.72,0h0a10.9,10.9,0,0,0,21.71,0h0a10.9,10.9,0,0,0,21.72,0h0a10.9,10.9,0,0,0,21.72,0h0a10.9,10.9,0,0,0,21.72,0h0a10.9,10.9,0,0,0,21.72,0h0a10.9,10.9,0,0,0,21.72,0h0a10.9,10.9,0,0,0,21.72,0h0a10.9,10.9,0,0,0,21.72,0h0a10.9,10.9,0,0,0,21.72,0h0a10.9,10.9,0,0,0,21.72,0h0A10.67,10.67,0,0,0,1019.56,65.13Z"/></clipPath><clipPath id="clip-path-7"><rect id="_Clipping_mask_3" data-name="[Clipping mask]" class="cls-1" x="-0.07" width="500" height="300"/></clipPath><clipPath id="clip-path-8"><path class="cls-1" d="M500.06,65V300H.06V64.92c.3,0,.6,0,.9,0A10.67,10.67,0,0,0,11.82,55h0A10.68,10.68,0,0,0,22.7,65,10.67,10.67,0,0,0,33.56,55h0A10.9,10.9,0,0,0,55.3,55h0A10.9,10.9,0,0,0,77,55h0a10.9,10.9,0,0,0,21.72,0h0a10.9,10.9,0,0,0,21.72,0h0a10.9,10.9,0,0,0,21.72,0h0A10.9,10.9,0,0,0,164,55h0a10.67,10.67,0,0,0,10.86,10,10.81,10.81,0,0,0,10.41-7.43A10.83,10.83,0,0,0,195.71,65a10.68,10.68,0,0,0,10.86-10h0a10.9,10.9,0,0,0,21.72,0h0a10.9,10.9,0,0,0,21.72,0h0a10.9,10.9,0,0,0,21.72,0h0a10.9,10.9,0,0,0,21.71,0h0a10.9,10.9,0,0,0,21.72,0h0A10.9,10.9,0,0,0,337,55h0a10.9,10.9,0,0,0,21.72,0h0a10.9,10.9,0,0,0,21.72,0h0a10.9,10.9,0,0,0,21.72,0h0A10.9,10.9,0,0,0,424,55h0a10.9,10.9,0,0,0,21.72,0h0a10.9,10.9,0,0,0,21.72,0h0a10.9,10.9,0,0,0,21.72,0h0A10.67,10.67,0,0,0,500.06,65Z"/></clipPath><clipPath id="clip-path-9"><rect class="cls-1" x="-673.08" y="-370.56" width="1237.32" height="927.54"/></clipPath></defs><title>scene_positive</title><g id="Unhealthy_Mid_fidelity" data-name="Unhealthy, Mid fidelity"><g class="cls-5"><g id="Turbidity" class="cls-7"><path class="cls-8" d="M1540,68.83V329.7H1040V68.79c.3,0,.61,0,.91,0a10.67,10.67,0,0,0,10.86-10h0a10.9,10.9,0,0,0,21.72,0h0a10.9,10.9,0,0,0,21.72,0h0a10.9,10.9,0,0,0,21.72,0h0a10.9,10.9,0,0,0,21.72,0h0a10.9,10.9,0,0,0,21.72,0h0a10.9,10.9,0,0,0,21.72,0h0a10.89,10.89,0,0,0,21.71,0h0a10.68,10.68,0,0,0,10.86,10,10.84,10.84,0,0,0,10.42-7.43,10.84,10.84,0,0,0,10.42,7.43,10.68,10.68,0,0,0,10.86-10h0a10.9,10.9,0,0,0,21.72,0h0a10.89,10.89,0,0,0,21.71,0h0a10.89,10.89,0,0,0,21.71,0h0a10.9,10.9,0,0,0,21.72,0h0a10.9,10.9,0,0,0,21.72,0h0a10.9,10.9,0,0,0,21.72,0h0a10.9,10.9,0,0,0,21.72,0h0a10.9,10.9,0,0,0,21.72,0h0a10.9,10.9,0,0,0,21.72,0h0a10.9,10.9,0,0,0,21.72,0h0a10.9,10.9,0,0,0,21.72,0h0a10.9,10.9,0,0,0,21.72,0h0a10.9,10.9,0,0,0,21.72,0h0A10.66,10.66,0,0,0,1540,68.83Z"/><g class="cls-9"><rect class="cls-8" x="366.97" y="-366.86" width="1237.32" height="927.54"/></g></g></g></g><g id="Moderately_healthy_Mid_fidelity" data-name="Moderately healthy, Mid fidelity"><g class="cls-10"><g id="ROCKS_fore_copy" data-name="ROCKS fore copy"><path class="cls-12" d="M478.15,237.49s17.54-3.14,31.34-1.69c16.34,1.72,95.18,32.05,100,45,4.62,12.33-12.62,19.24-12.62,19.24H478.29Z"/></g><g id="PLANTS_fore_copy" data-name="PLANTS fore copy"><g id="Plant"><path class="cls-13" d="M559.27,112.39c2,7.79.43,20.42-8.76,36-9.74,16.56-42.37,36-49.86,62.84"/><path class="cls-13" d="M536.38,105.57c5.36,4.87,5.71,20.89,2.93,27.76-7.31,18-35,35.53-40.91,68.18"/></g></g><g id="Turbidity-2" data-name="Turbidity" class="cls-14"><path class="cls-15" d="M1019.56,65.13V326h-500V65.09c.3,0,.6,0,.9,0a10.67,10.67,0,0,0,10.86-10h0a10.9,10.9,0,0,0,21.72,0h0a10.9,10.9,0,0,0,21.72,0h0a10.9,10.9,0,0,0,21.72,0h0a10.9,10.9,0,0,0,21.72,0h0a10.9,10.9,0,0,0,21.72,0h0a10.9,10.9,0,0,0,21.72,0h0a10.9,10.9,0,0,0,21.72,0h0a10.67,10.67,0,0,0,10.86,10,10.81,10.81,0,0,0,10.41-7.43,10.83,10.83,0,0,0,10.42,7.43,10.68,10.68,0,0,0,10.86-10h0a10.9,10.9,0,0,0,21.72,0h0a10.9,10.9,0,0,0,21.72,0h0a10.9,10.9,0,0,0,21.72,0h0a10.9,10.9,0,0,0,21.71,0h0a10.9,10.9,0,0,0,21.72,0h0a10.9,10.9,0,0,0,21.72,0h0a10.9,10.9,0,0,0,21.72,0h0a10.9,10.9,0,0,0,21.72,0h0a10.9,10.9,0,0,0,21.72,0h0a10.9,10.9,0,0,0,21.72,0h0a10.9,10.9,0,0,0,21.72,0h0a10.9,10.9,0,0,0,21.72,0h0a10.9,10.9,0,0,0,21.72,0h0A10.67,10.67,0,0,0,1019.56,65.13Z"/><g class="cls-16"><rect class="cls-15" x="-153.45" y="-370.56" width="1237.32" height="927.54"/></g></g></g></g><g id="Healthy_Mid_fidelity" data-name="Healthy, Mid fidelity"><g class="cls-17"><g id="Background-3" data-name="Background"><rect id="Sky" class="cls-18" x="-0.07" width="500" height="300"/><g id="Water-3" data-name="Water"><g class="cls-19"><g class="cls-20"><rect class="cls-21" x="0.06" y="50.84" width="509.06" height="249.16"/></g></g></g></g><g id="Wildlife_copy" data-name="Wildlife copy"><path id="Rocks_floor_background" data-name="Rocks / floor background" class="cls-22" d="M522.12,203.79c-3.78,0-18.94-7.84-28.79-10.41-8.51-2.22-19.35.16-19.35,4.11,0,4.35,3.86,5.33,3.86,7.48,0,1.88-7.49,5.2-7.58,11a6.69,6.69,0,0,0,.25,2,.61.61,0,0,1-.73.78,78.79,78.79,0,0,0-14.31-2.16c-10.84-.55-25.07,6.51-25.07,11.11,0,3.19,2.16,4.75,3.56,5.91.47.38.79.66.67,1s-1.86.3-5.54.51a.88.88,0,0,1-.8-1.35,3.79,3.79,0,0,0,.59-1.95c0-3.73-6.47-9.75-10.21-9.75s-9,6-9,9.75a5.91,5.91,0,0,0,2.72,4.5.36.36,0,0,1-.16.64l-1.41.25a.32.32,0,0,1-.29,0,.27.27,0,0,1-.09-.23c0-2.44-4.24-6.39-6.68-6.39s-5.89,4-5.89,6.39a3,3,0,0,0,.41,1.46,1,1,0,0,1-.68,1.52l-3.88.83a1.07,1.07,0,0,1-.78-.13c-1.87-1.09-4.34-1.85-4.55-2.46-.36-1-1.1-1.76-2.14-1.51-3.57.85-3.58,3.42-2.33,5.56a.5.5,0,0,1-.34.74c-24.59,5.37-51.18,11.27-63,11.68l-3.6.1a1.65,1.65,0,0,1-1.36-.68c-.9-1.16-2.38-2.23-3.38-2.23s-2.6,1.35-3.28,2.67a.64.64,0,0,1-.57.36h-.66a1.29,1.29,0,0,1-1.29-1.3,4.32,4.32,0,0,0-1.91-3.35,5.05,5.05,0,0,0-5.3-.42c-2.25,1-12.69-1.45-12.69,3.64a2.41,2.41,0,0,0,.06.71s.09.22,0,.32-.51.07-.55.06c-6.77-.22-10.49-.48-10.49-.48a.87.87,0,0,1-.7-.46c-1.76-3.42-8.93-5.26-23.29-7.79-17-3-27.83-6.54-40-3.12-8.88,2.49-6.47,10.26-7.56,10.91a8.31,8.31,0,0,1-1.81.19,1.59,1.59,0,0,1-1.58-1.08,3.8,3.8,0,0,0-1.58-1.76,2.72,2.72,0,0,0-2.83.05c-1.3.7-8.05-.89-8.05,2.4,0,.07,0,.14,0,.21a.58.58,0,0,1-.11.29.39.39,0,0,1-.34.15h-2a.9.9,0,0,1-.67-.31,5.18,5.18,0,0,0-3.12-1.91,3.9,3.9,0,0,0-2.52,1.56,2,2,0,0,1-1.54.68c-7.4,0-13.92,0-15.64,0a.68.68,0,0,1-.6-.33,6.28,6.28,0,0,0-5-2.67c-3,0-4.88,1.29-5.75,2.64a.74.74,0,0,1-.62.36h-9.94c-1.2,0-1.68-.39-1.76-.92a11.84,11.84,0,0,0-23.47,0A1.1,1.1,0,0,1,114,254h-1.21c-.53,0-.82-.25-.89-.61-1.67-9.25-10.2-24.65-22-25.39-12-.75-32.93,7.47-44.37,12.91a.74.74,0,0,1-1-.5c-.82-4.27-10.55-7.48-20.77-17.7-13-13-25.24,10.67-25.24,10.67V254h1v46.53a.77.77,0,0,0,.77.77H500.69a.77.77,0,0,0,.77-.77l-.31-71.39s-4.48-1.77-9.26-3.53a.56.56,0,0,1,.18-1.08c7.78-.07,16.68-1.06,22.19,2.29,8.57,5.2,19.39,12.84,23.3,12.84C553.07,239.66,524.71,203.79,522.12,203.79ZM35.23,253.23a.76.76,0,0,1-.76.77H30.39a.76.76,0,0,1-.35-1.44q2.19-1.17,4.19-2.31a.76.76,0,0,1,1.12.75C35.27,251.76,35.24,252.51,35.23,253.23Z"/><g id="ROCKS_back_copy" data-name="ROCKS back copy"><path class="cls-23" d="M-.07,263V214s14-7,27,6,20,19.08,17,23.54S3.93,267-.07,263Z"/><path class="cls-23" d="M501.35,261.58v-49s-41.07,15.7-47.7,21c-5,4-17,19.54-14,24S497.35,265.58,501.35,261.58Z"/><path class="cls-23" d="M18.31,260.09s-1.76-10.6,2.54-13.82S59.53,226.93,76.72,228s27.93,31.16,22.56,34.38S47.71,273.13,39.11,271,21.14,265.32,18.31,260.09Z"/><path class="cls-24" d="M394.84,263c-1-1,5-6,8-6s4,4,3,6S395.84,264,394.84,263Z"/><path class="cls-23" d="M166.3,252.86c2.17-4.52,4.33-7.53,12.65-10.3s5.54-1.38,17.32.7,20.09,9,18.7,10.39c-3.46,3.46-24.25,1.38-29.79,2.77S163.36,259,166.3,252.86Z"/><path class="cls-23" d="M156.67,251c-5.42,0-7.18,4.18-6,5.38s9,1.2,10.76-.6S159.65,251,156.67,251Z"/><path class="cls-24" d="M90.46,266.27c-3.14,0-4.16,2.42-3.47,3.12s5.2.69,6.24-.35S92.19,266.27,90.46,266.27Z"/><path class="cls-24" d="M95.14,280.05c.21-1,4.07-1.85,4.85-1.22s3.11,2.52.29,2.81S94.66,282.24,95.14,280.05Z"/><path class="cls-24" d="M213.89,268.3c.22-1,4.07-1.85,4.85-1.22s3.11,2.51.29,2.81S213.41,270.48,213.89,268.3Z"/><path class="cls-24" d="M252.56,289.16c.21-1,4.07-1.85,4.85-1.22s3.11,2.51.29,2.81S252.08,291.34,252.56,289.16Z"/><path class="cls-24" d="M248.15,285.09c.22-1,4.07-1.85,4.85-1.22s3.11,2.51.29,2.81S247.67,287.27,248.15,285.09Z"/><path class="cls-24" d="M193.64,262.88c.21-1,4.07-1.85,4.84-1.22s3.11,2.52.3,2.81S193.15,265.06,193.64,262.88Z"/><path class="cls-23" d="M156.44,259.38c.22-1,4.07-1.85,4.85-1.22s3.11,2.52.3,2.81S156,261.56,156.44,259.38Z"/><path class="cls-23" d="M216.61,252.81c.21-1,4.07-1.85,4.85-1.22s3.1,2.52.29,2.82S216.13,255,216.61,252.81Z"/><path class="cls-24" d="M397.72,269.88c.22-1,4.07-1.85,4.85-1.22s3.11,2.52.3,2.81S397.24,272.06,397.72,269.88Z"/><path class="cls-23" d="M366.85,249.65c.17-.78,3.28-1.49,3.91-1s2.51,2,.24,2.27S366.46,251.42,366.85,249.65Z"/><path class="cls-23" d="M407.2,249c.18-.79,3.29-1.5,3.92-1s2.51,2,.24,2.27S406.81,250.77,407.2,249Z"/><path class="cls-23" d="M377.55,255c.22-1,4.07-1.85,4.85-1.22s3.11,2.52.3,2.81S377.07,257.16,377.55,255Z"/><path class="cls-24" d="M265,264.07c.21-1,4.07-1.85,4.85-1.22s3.11,2.52.29,2.81S264.54,266.26,265,264.07Z"/><path class="cls-23" d="M448.73,264.3c.22-1,4.07-1.85,4.85-1.22s3.11,2.51.29,2.81S448.25,266.48,448.73,264.3Z"/><path class="cls-23" d="M269.84,259.18c-1-1.95,6.17-9.25,8.49-9.25s9.26,6.17,8.48,7.71S270.61,260.73,269.84,259.18Z"/><path class="cls-23" d="M257.56,257.14c-1-1,5-6,8-6s4,4,3,6S258.56,258.14,257.56,257.14Z"/></g><g id="Layer_31" data-name="Layer 31"><path class="cls-23" d="M314.57,256.63c-1.16-3.49,4.66-9.89,11.06-10.48s22.12,8.15,20.37,10.48S315.74,260.12,314.57,256.63Z"/></g><g id="PLANTS_back_copy" data-name="PLANTS back copy"><g id="plant-2" data-name="plant"><path class="cls-25" d="M441,241.38c5.2-12.09-4.67-65.77,26.78-67.16"/><path class="cls-25" d="M503,169.68c-22.25-20.3-55.87-12.65-65,16.71-5.88,19-2.1,40.54,1.39,54.51"/><path class="cls-25" d="M411.63,146.55c-8.39,9.08-15.28,29.16-10.49,49.62,7.87,33.55,34.08,41.94,39,45.43"/><path class="cls-25" d="M417.92,159.13c-8.38,9.09-10.48,33.55-5.24,47.18a83.66,83.66,0,0,0,27.78,36.17"/><path class="cls-25" d="M391.35,183.2c1.48,22.31,6.9,34.85,17.39,44.28,16.2,14.59,26.31,10.45,31.2,14"/><path class="cls-25" d="M493.93,138.86c-10.48-9.78-34.86-10.37-51.72,2.8-22.37,17.47-37.74,68.49-2.8,99.94"/></g><g id="plant-3" data-name="plant"><path class="cls-26" d="M74.15,266.31c3.56-22.95-2.31-28.47-4.17-46.7-2-19.36-1.07-41.79,13.81-48.49"/><path class="cls-26" d="M75.08,267.56c10-22.09,7.89-33.14,7.89-50.49,0-8.53,2.62-18.41,11.56-20"/><path class="cls-26" d="M75,269.66c12.27-9.21,15.77-27.7,15.77-45.06,0-8.52,2.63-18.4,11.57-20"/><path class="cls-26" d="M74.15,266.31c-1.66-7.82-9.75-25.49-12.73-45.58-3-20.47-1.75-47.5,12.11-59.58"/><path class="cls-26" d="M-5.38,184c3.9-.83,12.23-.42,20.53,8.22,7.33,7.62,7.14,20.72,8,30.8,1.39,17.3,10.88,33.77,23.58,38.72"/><path class="cls-26" d="M-7.14,198.11c3.9-.83,10.85-.88,15.54,4.4,4.22,4.75,4.71,16,5.21,26.12.84,16.75,14,34.05,32.37,32.66"/><path class="cls-26" d="M-2.16,169.66C19.55,172,30.4,187,31.94,204c1.77,19.49-.34,51.26,38.45,63.38"/><path class="cls-26" d="M72.61,266.31a82,82,0,0,1-16.86-14.23c-14-16.08-12.56-30.31-13.61-53.38-.88-19.36-23.76-42.83-39.6-41.07"/><path class="cls-26" d="M39.79,164.08C53.84,175.43,51,198,51.66,215.33c.83,21.77,11.35,43.16,21,51"/></g><g id="plant-4" data-name="plant"><path class="cls-25" d="M142.81,255.46c11-25.75-15.66-47.49-13.82-64.33"/><path class="cls-25" d="M142.81,255.46c-5.55-28.81-28.52-52.09-23.31-72.6"/><path class="cls-25" d="M142.81,255.46s-10.17-8.81-14.5-18.36c-9.73-21.48-22.59-35.56-18.61-57.3"/><path class="cls-25" d="M107.56,213.17c4,18.68,27.7,41,33.84,41.78"/><path class="cls-25" d="M107.86,231.55c2.67,6,13.22,16,19,19.9,6.58,4.46,10.27,4.8,15.29,4.25"/><path class="cls-25" d="M169.14,211.28c-10.61-1.67-15.16,2.79-17.3,9.21-3.63,10.88,1.88,24-5.59,34.33"/><path class="cls-25" d="M172.28,224.67c-4.54-6.41-12.06-5.19-15.14.84-4.28,8.38,2,26.24-8.93,29.59"/></g><path class="cls-25" d="M501.61,158.59s-6.46-13.39-29.4-13.77c-22.69-.37-39.44,21.58-42.79,39.44s.75,37.58,6.7,54"/></g><g id="Larvae_top_" data-name="Larvae (top)"><path class="cls-27" d="M352.51,264.12a12.61,12.61,0,0,0-3,1.94,6.23,6.23,0,0,0-1.1,1.22,6.65,6.65,0,0,0-.73,1.41c-.47,1.11-.48,2.18-1,3.23a9.76,9.76,0,0,1-2.16,3.21.18.18,0,0,1-.25,0l0-.06a6.88,6.88,0,0,1-.47-2,8,8,0,0,1,0-1.95,5,5,0,0,1,.65-1.9c.36-.6.77-1.15,1.13-1.68a8.69,8.69,0,0,1,1.37-1.61,7.75,7.75,0,0,1,1.74-1.11,11,11,0,0,1,3.74-1,.16.16,0,0,1,.17.14.16.16,0,0,1-.09.15Z"/><path class="cls-28" d="M355.46,259.67c-1.31,3.34-5.38,5.22-5.38,5.22"/><path class="cls-28" d="M358,263.3a14.59,14.59,0,0,0-8.18,1.79"/><path class="cls-28" d="M345.46,272.84a4.68,4.68,0,0,0,2.42,1.47l-1.36,2.81"/><path class="cls-28" d="M341,275.08c.22-1,.51-2.79.51-2.79s2,.93,3.11.28"/><path class="cls-28" d="M339.38,269.88l2.78-.72a7.47,7.47,0,0,0,2.33,2.08"/><path class="cls-28" d="M350,275.55l-1-2.69a7.47,7.47,0,0,1-3-.72"/><path class="cls-28" d="M340.44,267.22a8.85,8.85,0,0,0,2.92.4,7.36,7.36,0,0,0,2.32,2.08"/><path class="cls-28" d="M352.66,272.85c-1.87.44-2.81-1.86-2.81-1.86a7.53,7.53,0,0,1-3-.71"/><path class="cls-29" d="M345.08,275.08a3.55,3.55,0,0,1-.75.79c-.4.22-.64-1.15-.64-1.15Z"/><circle class="cls-27" cx="350.36" cy="264.77" r="0.34"/><circle class="cls-27" cx="344.48" cy="274.53" r="0.82"/></g><g id="PLANTS_mid_copy" data-name="PLANTS mid copy"><path class="cls-26" d="M432.77,125.47c13.77,4.84,34.78,26,39.44,53.58,4.1,24.19.75,45.77,1.86,66.24,1.14,20.8,16.79,29.75,15.26,43.16"/><path class="cls-26" d="M445.42,112.08c13.77,4.83,35.07,26.14,39.59,53.73,6.85,41.74.93,61.07,3.53,80.05,1.57,11.42,5.9,24.68,4.51,40.36"/><path class="cls-26" d="M489.7,289.94c1-8.08-23.81-10-28.65-38.7s14.14-57.3-21.58-99.35"/><path class="cls-26" d="M494.8,291.53c-26.89-1.1-42.68-16.27-47.52-44.94s8.11-54.15-15.91-79.23"/><path class="cls-26" d="M302.55,229.88c7.26,1.62,14.06,7.71,15.11,18,1.48,14.5-4,28.72,9.62,40.8"/><path class="cls-26" d="M330.45,288.26c-7.07-20.09-.48-30.67-.9-48.47-.35-15-12.41-23.64-23.05-23.64"/><path class="cls-26" d="M337.94,287.31c-10.75-14.07,7.34-37.9.71-58"/><path class="cls-26" d="M292.63,257.75s5.72-.56,8.51,6.14c3.12,7.49-.27,18.81,8.24,23.14S328,289.94,328,289.94c-15.63-1.4-18.55-16.55-19.55-31.1-.68-9.86-4.94-14.52-11.62-15.32"/><path class="cls-25" d="M251.43,244.49a11.4,11.4,0,0,1,5.22,12.67c-1.94,8-3.9,15.41,1.62,24.67"/><path class="cls-25" d="M241.34,259.8s3,.43,3.71,5-1.62,9.48,2.43,13.54,10.17,2.93,10.17,2.93c-8.7-4-9.5-10.24-7.28-18.17,1.51-5.38-.46-9.17-3.51-10.84"/><path class="cls-25" d="M268.64,229c-3.85,2.37-8,7.42-6.66,13.07,1.94,8,2.4,17.15-3.12,26.41a10.59,10.59,0,0,0,1.81,12"/><path class="cls-25" d="M260.83,282c-4.59-11.15,11.65-19.52,8.87-34.29-1-5.49.46-9.17,3.51-10.84"/><path class="cls-25" d="M278.8,247.41s-3,.42-3.7,5,.16,9.35-3.77,14.43c-3.52,4.54-6.73,4.76-8.69,14.27"/></g><g id="ROCKS_mid" data-name="ROCKS mid"><path class="cls-24" d="M76.93,264c-9.06,0-12,7-10,9s15,2,18-1S81.93,264,76.93,264Z"/><path class="cls-24" d="M88.61,274.24c-3.73,0-5,2.89-4.12,3.71s6.18.83,7.42-.41S90.67,274.24,88.61,274.24Z"/><path class="cls-24" d="M224.4,267.89c-3.73,0-4.94,2.89-4.12,3.71s6.18.83,7.42-.41S226.46,267.89,224.4,267.89Z"/><path class="cls-24" d="M216.26,255c-9.06,0-12,7-10,9s15,2,18-1S221.26,255,216.26,255Z"/><path class="cls-24" d="M270.6,273.54c-12.63,0-16.74,9.77-14,12.56s20.93,2.79,25.11-1.4S277.58,273.54,270.6,273.54Z"/><path class="cls-24" d="M438.35,263.43c-3.73,0-5,2.88-4.12,3.71s6.18.82,7.41-.41S440.41,263.43,438.35,263.43Z"/><path class="cls-23" d="M383.07,246.2c-3.73,0-4.95,2.89-4.12,3.71s6.18.83,7.41-.41S385.13,246.2,383.07,246.2Z"/><path class="cls-24" d="M412.12,273c-3.73,0-4.94,2.88-4.12,3.7s6.18.83,7.42-.41S414.18,273,412.12,273Z"/><path class="cls-24" d="M278.31,266.19c-3.73,0-4.95,2.89-4.12,3.71s6.18.82,7.41-.41S280.37,266.19,278.31,266.19Z"/><path class="cls-24" d="M445.68,250.31c-10,0-13.22,7.71-11,9.91s16.53,2.21,19.83-1.1S451.19,250.31,445.68,250.31Z"/><path class="cls-24" d="M232.67,260c-5.42,0-7.18,4.18-6,5.38s9,1.2,10.76-.6S235.65,260,232.67,260Z"/><path class="cls-24" d="M100.85,254.27c1.9-3.79,6-7.49,12-6s14.24,3.74,17.24,8.24,5.24,9.74-.75,10.49-24,7.5-28.48,6-10.12-5.45-6.93-10.59S98.6,258.77,100.85,254.27Z"/><path class="cls-24" d="M-9,248.22c1.9-3.79,6-7.49,12-6S17.2,246,20.2,250.47s5.25,9.74-.75,10.49-24,7.5-28.48,6-10.11-5.45-6.93-10.6S-11.28,252.72-9,248.22Z"/><path class="cls-24" d="M459.93,260c2.55-2.55,16-11,19-12s21-3,21-3v40s-32.5-3.5-37-5-10-6-8.56-9.52C455.47,267.77,457.93,262,459.93,260Z"/><path class="cls-24" d="M408.92,268.28c-1.19-2.38,7.52-11.28,10.34-11.28s11.28,7.52,10.34,9.4S409.86,270.16,408.92,268.28Z"/><path class="cls-23" d="M398.16,245.85c-1.26-2.53,8-12,11-12s12,8,11,10S399.16,247.85,398.16,245.85Z"/><path class="cls-23" d="M415.7,249.88c-1.55-3.11,9.81-14.72,13.49-14.72s14.71,9.81,13.49,12.26S416.93,252.33,415.7,249.88Z"/><path class="cls-24" d="M133.21,278c-1.27-2.53,8-12,11-12s12,8,11,10S134.21,280,133.21,278Z"/><path class="cls-24" d="M397.75,292.55c6.34-4.22,7-10,14-6s11,5,15,11a103.91,103.91,0,0,1,6,10h-40S391.75,296.55,397.75,292.55Z"/><path class="cls-24" d="M268.33,298.48c6.33-4.22,7-10,14-6s11,5,15,11a103.91,103.91,0,0,1,6,10h-40S262.33,302.48,268.33,298.48Z"/></g><g id="ROCKS_fore" data-name="ROCKS fore"><path class="cls-27" d="M-40.91,237.49s17.54-3.14,31.33-1.69c16.35,1.72,95.18,32.05,100,45C95.07,293.09,77.82,300,77.82,300H-40.78Z"/><path class="cls-27" d="M382.9,281.45c-12.41-5-29.53,3.62-42.09,5-13.48,1.48-52.12,3-51.67,10.85.38,6.36,19.8,9.66,19.8,9.66l94.63-5.53A37.19,37.19,0,0,0,382.9,281.45Z"/><path class="cls-27" d="M86.54,293.24c5.66-9.91,72.72-24.24,84.2-24.24s33.17,14,38.27,21.69a29,29,0,0,1,5,17.86H86.54S81.43,302.17,86.54,293.24Z"/><path class="cls-27" d="M423.05,294.38s-5.58-11.91,5.58-16.75,46.14,2.24,51.35,2.24S504.54,281,504.54,281l-.38,20.09-75.16.75-5.95-7.44"/></g><g id="PLANTS_fore" data-name="PLANTS fore"><g id="Plant-5" data-name="Plant"><path class="cls-30" d="M107.94,215c-14.52-10.6-30-8.17-49.68,8.65-32.93,28.19-53,76.74-61.95,81.21"/><path class="cls-30" d="M97.58,165.26c-17.91,2.71-37.82,11.61-57.86,28-30.42,24.84-45.46,71-51.88,76.83"/><path class="cls-30" d="M116.18,188.85c-17.3-5.58-43.46-.11-63.5,16.25-30.42,24.84-50.79,72.16-57.21,78"/><path class="cls-30" d="M85.61,242.87s-16.74-10.05-31,6.36C44.81,260.55,29.24,287.52,12.75,311"/><path class="cls-30" d="M68.66,266c-3.19-.63-7.1.33-11.49,5C46.91,281.87,31.47,317.1,8,333.28"/></g><g id="Plant-6" data-name="Plant"><path class="cls-30" d="M53.36,139.66c-8.65,32.86-49.54,48-62.34,75"/><path class="cls-30" d="M40.21,112.39c1.95,7.79.42,20.42-8.77,36-9.74,16.56-42.36,36-49.85,62.84"/><path class="cls-30" d="M17.32,105.57c5.36,4.87,5.71,20.89,2.92,27.76-7.3,18-35,35.53-40.9,68.18"/></g><g id="Plant-7" data-name="Plant"><path class="cls-30" d="M522.06,191s-34.63,19.09-56.65,32.65c-29.19,18-39.61,36.09-53.48,83.44"/><path class="cls-30" d="M508.85,151.68s-29.56,16.93-67.9,34.81c-33.49,15.63-51.79,56.7-55.81,125"/><path class="cls-30" d="M366.16,188.73s31.37,4.6,16.19,44.09C370.84,262.75,366.16,282.49,379,326"/><path class="cls-30" d="M354,206.33s23.62,3.47,12.19,33.2c-8.66,22.53-17,47.26-2.3,79.8"/><path class="cls-30" d="M502.54,226s-37.57,12.9-60.45,50.57c-7.78,12.81-18.44,45.59-41.88,61.78"/><path class="cls-30" d="M516.48,168.14s-22.5,12.77-56.66,32.65c-33.93,19.76-57.94,63.29-60.73,103.47"/></g><g id="Plant-8" data-name="Plant"><path class="cls-30" d="M194.77,251.49c-16.18,30.28-50.4,42.77-52.24,64.66"/><path class="cls-30" d="M182.49,212.42c3.91,5.58,3,12.18,1.35,17.12-12.55,37.21-57.72,59.34-56.94,82.51"/><path class="cls-30" d="M155.14,208c10.61,3.35,12.28,17.31,5,29-20.67,33.39-51.35,53-52.47,82"/><path class="cls-30" d="M123.82,225.44s19.36,14-4.5,35.07c-18.08,16-25.45,32.23-30.48,66.1"/></g></g><g id="Bugs_copy_2" data-name="Bugs copy 2"><g id="Larvae_top_2" data-name="Larvae (top)"><path class="cls-27" d="M217.39,283.44a15,15,0,0,0,4.12,1.66,7.9,7.9,0,0,0,4.06,0c1.46-.33,2.61-1,4-1.36a14.54,14.54,0,0,1,4.68-.55.18.18,0,0,1,.16.18.19.19,0,0,1,0,.09,9.28,9.28,0,0,1-1.72,1.76,12.05,12.05,0,0,1-2,1.32,7.58,7.58,0,0,1-2.33.75c-.84.11-1.67.14-2.46.19a10.6,10.6,0,0,1-2.55-.11,10.15,10.15,0,0,1-2.36-.83,13.75,13.75,0,0,1-3.79-2.84.16.16,0,0,1,0-.22.17.17,0,0,1,.18,0Z"/><path class="cls-28" d="M210.81,283.8c4.29-1.19,9.17,1.45,9.17,1.45"/><path class="cls-28" d="M212.52,278.58a18.06,18.06,0,0,0,7.85,6.76"/><path class="cls-28" d="M231.31,283.92a5.88,5.88,0,0,0-.35-3.5l3.8-.73"/><path class="cls-28" d="M236.84,286.68c-1.15.53-3.14,1.57-3.14,1.57s-.57-2.69-2-3.29"/><path class="cls-28" d="M232.89,292.14l-2.78-2.22a9.3,9.3,0,0,0,.33-3.86"/><path class="cls-28" d="M230.64,277.45l-1.92,3a9.14,9.14,0,0,1,1.56,3.54"/><path class="cls-28" d="M229.47,293.06a10.77,10.77,0,0,0-1.78-3.18A9.26,9.26,0,0,0,228,286"/><path class="cls-28" d="M226,276.77c1.82,1.53.25,4.18.25,4.18a9.21,9.21,0,0,1,1.55,3.54"/><path class="cls-29" d="M233.8,282.62a4.63,4.63,0,0,1,1.34.16c.52.24-.66,1.49-.66,1.49Z"/><circle class="cls-27" cx="219.66" cy="285.06" r="0.42"/><circle class="cls-27" cx="233.7" cy="283.63" r="1.01"/></g><g id="Mayfly_side_" data-name="Mayfly (side)"><path class="cls-31" d="M45.88,35.6s5.92,4.7,11.55,4.33c4.68-.32,6.27-3.11,13.48-3.53"/><path class="cls-32" d="M31.13,26.68c7.23,8.27,14.11,8.19,14.11,8.19"/><path class="cls-32" d="M31.88,23.49c4,8.26,13.91,11.83,13.91,11.83"/><path class="cls-32" d="M74.67,41.76c-3.19-2.85-8-1.71-9.68-3.31"/><path class="cls-32" d="M73.7,44.62c-3.42-3.83-7.3-1.72-9.23-5.83"/><path class="cls-32" d="M58.52,40.28,52,42.16s4.29,3.6,3.2,3.71"/><path class="cls-33" d="M74.2,34.83a7.35,7.35,0,0,1,.85,2c.07.93-2.31.4-2.31.4Z"/><circle class="cls-34" cx="44.67" cy="34.76" r="1"/><circle class="cls-34" cx="72.74" cy="35.61" r="1.65"/><path class="cls-35" d="M63.22,37.49s-9.14-3.86-9.45-9.21c-.49-8.58,7.81-17.57,8.95-10.39S69.16,38,66.42,38.3c-3.29.34-3.2-.81-3.2-.81"/><path class="cls-35" d="M56,29.5c-3-.19-3.32,3-2.65,5.22.76,2.42,7.5,4.39,9.39,4.86S60.7,29.79,56,29.5Z"/></g><g id="Mayfly_side_2" data-name="Mayfly (side)"><path class="cls-31" d="M432.38,42.7s7.15,2.43,12.33.17c4.29-1.87,4.86-5,11.5-7.86"/><path class="cls-32" d="M415.48,39.27c9.6,5.35,16,2.95,16,2.95"/><path class="cls-32" d="M415.11,36c6.59,6.42,17.08,6.46,17.08,6.46"/><path class="cls-32" d="M461.56,38.78c-4-1.6-8.1,1.09-10.24.16"/><path class="cls-32" d="M461.61,41.8c-4.51-2.45-7.45.84-10.66-2.38"/><path class="cls-32" d="M445.85,42.84l-5.49,4s5.25,2,4.26,2.42"/><path class="cls-33" d="M458.78,32.41a7.48,7.48,0,0,1,1.48,1.64c.38.85-2,1.15-2,1.15Z"/><circle class="cls-34" cx="430.95" cy="42.31" r="1"/><circle class="cls-34" cx="457.67" cy="33.64" r="1.65"/><path class="cls-35" d="M449.33,38.62s-9.9-.54-12-5.48C434,25.23,438.76,14,442.25,20.35s12.86,16.77,10.37,18c-3,1.43-3.29.31-3.29.31"/><path class="cls-35" d="M439.87,33.53c-2.9.84-2.1,4-.73,5.8,1.53,2,8.54,1.61,10.47,1.41S444.36,32.23,439.87,33.53Z"/></g><g id="Mayfly_top_" data-name="Mayfly (top)"><path class="cls-34" d="M202,23.88a12.4,12.4,0,0,0,3.36,1.23,6.56,6.56,0,0,0,1.63.15,6.64,6.64,0,0,0,1.56-.27c1.17-.29,2-.93,3.19-1.14a9.92,9.92,0,0,1,3.86-.2.18.18,0,0,1,.15.21.09.09,0,0,1,0,.06,6.48,6.48,0,0,1-1.32,1.58,7.79,7.79,0,0,1-1.58,1.15,5.28,5.28,0,0,1-1.92.61c-.69.08-1.37.08-2,.1a8.63,8.63,0,0,1-2.12-.12,7.56,7.56,0,0,1-1.93-.73,10.83,10.83,0,0,1-3-2.4.16.16,0,0,1,0-.22.17.17,0,0,1,.17,0Z"/><path class="cls-32" d="M196.68,24.2c3.46-1,7.4,1.16,7.4,1.16"/><path class="cls-32" d="M198.06,20a14.6,14.6,0,0,0,6.34,5.46"/><path class="cls-32" d="M212,24.55c-.18-2.69,2-4.08,3.36-4.73"/><path class="cls-32" d="M209,26c-1.28-.43-2.48-.9-4.19-3.38"/><path class="cls-32" d="M209.5,25.8c-1,.88-2,1.77-2.62,4.71"/><path class="cls-33" d="M215.24,23.24a3.63,3.63,0,0,1,1.08.13c.42.19-.53,1.2-.53,1.2Z"/><circle class="cls-34" cx="203.82" cy="25.21" r="0.34"/><circle class="cls-34" cx="215.15" cy="24.05" r="0.82"/><path class="cls-35" d="M210.16,25s-4.51-1.9-4.67-4.55c-.24-4.24,3.86-8.67,4.42-5.13s3.18,9.94,1.83,10.08c-1.62.17-1.58-.4-1.58-.4"/><path class="cls-35" d="M208.36,22.59c-1.1-.07-1.22,1.13-1,1.93s2.77,1.62,3.46,1.79S210.09,22.7,208.36,22.59Z"/><path class="cls-35" d="M211,27.18s-2,4.46-.31,6.5c2.71,3.27,8.73,3.72,6.73.74S213,25,211.9,25.8c-1.31,1-.89,1.38-.89,1.38"/><path class="cls-35" d="M211.35,30.17c-.77.8-1.67,0-2-.75s.92-3.07,1.31-3.67S212.54,28.91,211.35,30.17Z"/><path class="cls-32" d="M212.23,25.92c2.12,1.66,4.49.65,5.8-.11"/></g><g id="Mayfly_top_2" data-name="Mayfly (top)"><path class="cls-34" d="M366.24,34.38a10.93,10.93,0,0,1-3.8.73,8.21,8.21,0,0,1-2.05-.25,8.55,8.55,0,0,1-1.93-.87c-.56-.32-1.16-.64-1.74-1a5.18,5.18,0,0,1-1.41-1.43,8.16,8.16,0,0,1-.87-1.75,6.58,6.58,0,0,1-.44-2,.17.17,0,0,1,.17-.19h.07a10.24,10.24,0,0,1,3.33,2c.92.73,1.39,1.69,2.29,2.49a6.58,6.58,0,0,0,1.26,1,6.47,6.47,0,0,0,1.52.63,12.46,12.46,0,0,0,3.54.46h0a.15.15,0,0,1,.15.15A.14.14,0,0,1,366.24,34.38Z"/><path class="cls-32" d="M370.76,36.84c-2.63-2.46-7.1-2.39-7.1-2.39"/><path class="cls-32" d="M371.49,32.47a14.57,14.57,0,0,1-8.15,1.9"/><path class="cls-32" d="M357,30c1.41-2.3.13-4.54-.78-5.75"/><path class="cls-32" d="M359,32.76c1.34.21,2.61.35,5.28-1"/><path class="cls-32" d="M358.65,32.32c.5,1.26.92,2.48.14,5.39"/><path class="cls-33" d="M354.76,27.4a3.92,3.92,0,0,0-1-.4c-.46,0-.09,1.32-.09,1.32Z"/><circle class="cls-34" cx="363.95" cy="34.43" r="0.34"/><circle class="cls-34" cx="354.45" cy="28.15" r="0.82"/><path class="cls-35" d="M358.44,31.32s4.88.4,6.24-1.87c2.18-3.64.6-9.47-1.54-6.59s-7.43,7.33-6.29,8.08c1.36.9,1.59.38,1.59.38"/><path class="cls-35" d="M361.15,30c1,.45.56,1.56,0,2.15s-3.21.16-3.9,0S359.57,29.3,361.15,30Z"/><path class="cls-35" d="M356.67,32.84s-.29,4.89-2.73,5.91c-3.92,1.64-9.46-.75-6.31-2.46s8.32-6.3,8.9-5.08c.7,1.48.14,1.63.14,1.63"/><path class="cls-35" d="M355,35.34c.31,1.07,1.47.78,2.14.28s.61-3.15.54-3.87S354.52,33.67,355,35.34Z"/><path class="cls-32" d="M356.18,31.16c-2.65.49-4.28-1.5-5.09-2.78"/></g><g id="Mayfly_top_3" data-name="Mayfly (top)"><path class="cls-34" d="M284.05,35.74a6.81,6.81,0,0,1-2.59-.29,5.11,5.11,0,0,1-1.3-.61,7.12,7.12,0,0,1-1.08-1c-.28-.33-.62-.66-.92-1a2.61,2.61,0,0,1-.54-1.26,4,4,0,0,1,0-1.33,4.26,4.26,0,0,1,.51-1.43.22.22,0,0,1,.29-.08,5.27,5.27,0,0,1,2,1.83c.46.61.35,1.29.66,2a4.2,4.2,0,0,0,.42.85,3.61,3.61,0,0,0,.66.77,8.12,8.12,0,0,0,1.92,1.31h0a.15.15,0,0,1-.06.29Z"/><path class="cls-32" d="M286.21,38.27a7.55,7.55,0,0,0-3.73-3.16"/><path class="cls-32" d="M287.71,35.78a9.5,9.5,0,0,1-5.4-.79"/><path class="cls-32" d="M279.48,30.84a3.29,3.29,0,0,0,.9-3.68"/><path class="cls-32" d="M280.05,33a4.69,4.69,0,0,0,3.45.63"/><path class="cls-32" d="M280,32.63a4.76,4.76,0,0,1-1.2,3.3"/><path class="cls-33" d="M278.76,28.71a2.52,2.52,0,0,0-.52-.49c-.28-.12-.37.78-.37.78Z"/><circle class="cls-34" cx="282.66" cy="35.18" r="0.22"/><circle class="cls-34" cx="278.4" cy="29.09" r="0.53"/><path class="cls-35" d="M280.06,32s2.86,1.42,4.23.36c2.2-1.69,2.63-5.6.65-4.37s-6.26,2.68-5.76,3.41.88.6.88.6"/><path class="cls-35" d="M282,31.82c.5.51,0,1.08-.54,1.3s-2-.67-2.36-.94S281.23,31,282,31.82Z"/><path class="cls-35" d="M278.62,32.47s-1.34,2.9-3.07,2.93c-2.77.06-5.56-2.72-3.24-3s6.56-1.84,6.61-.95c.08,1.06-.3,1-.3,1"/><path class="cls-35" d="M277,33.58c-.08.72.7.83,1.23.68s1.12-1.76,1.25-2.21S277.12,32.46,277,33.58Z"/><path class="cls-32" d="M278.73,31.33a3.28,3.28,0,0,1-2.43-2.91"/></g><g id="Mayfly_top_4" data-name="Mayfly (top)"><path class="cls-34" d="M124.38,41.36a7.84,7.84,0,0,0,2.25.57,3.4,3.4,0,0,0,1,0,4.58,4.58,0,0,0,.92-.25c.75-.24,1.19-.77,1.94-.83a5.28,5.28,0,0,1,2.69.28.23.23,0,0,1,.13.28,4.13,4.13,0,0,1-.73,1.32,4,4,0,0,1-1,.91,2.71,2.71,0,0,1-1.3.42c-.49,0-1,0-1.39,0a6.59,6.59,0,0,1-1.48-.13,5.83,5.83,0,0,1-1.32-.56,7.26,7.26,0,0,1-1.93-1.76.16.16,0,0,1,0-.22.16.16,0,0,1,.15,0Z"/><path class="cls-32" d="M120.87,41.63a7.51,7.51,0,0,1,4.83.72"/><path class="cls-32" d="M121.75,38.87a9.47,9.47,0,0,0,4.16,3.53"/><path class="cls-32" d="M130.89,41.78a3.28,3.28,0,0,1,2.17-3.11"/><path class="cls-32" d="M128.92,42.76a4.7,4.7,0,0,1-2.76-2.18"/><path class="cls-32" d="M129.24,42.61a4.7,4.7,0,0,0-1.68,3.08"/><path class="cls-33" d="M133,40.91a2.68,2.68,0,0,1,.71.07c.27.13-.34.79-.34.79Z"/><circle class="cls-34" cx="125.54" cy="42.26" r="0.22"/><circle class="cls-34" cx="132.92" cy="41.44" r="0.53"/><path class="cls-35" d="M129.67,42.09s-3-1.22-3.07-2.94c-.18-2.77,2.47-5.68,2.85-3.37s2.13,6.46,1.25,6.56c-1.06.12-1-.25-1-.25"/><path class="cls-35" d="M128.48,40.52c-.72,0-.79.74-.62,1.26s1.81,1,2.27,1.15S129.61,40.58,128.48,40.52Z"/><path class="cls-35" d="M130.23,43.5s-1.28,2.92-.16,4.24c1.78,2.12,5.71,2.38,4.39.45s-3-6.13-3.66-5.59-.57.9-.57.9"/><path class="cls-35" d="M130.47,45.45c-.49.53-1.09,0-1.33-.48s.59-2,.84-2.4S131.24,44.62,130.47,45.45Z"/><path class="cls-32" d="M131,42.67a3.3,3.3,0,0,0,3.79-.1"/></g></g></g><path id="fish__happy" class="cls-36" d="M314.05,189.94a12.77,12.77,0,0,1-15.38-5.66,3.64,3.64,0,1,0-6.3,3.64,20.08,20.08,0,0,0,11.52,9.19A93.84,93.84,0,0,1,290.46,204a72.55,72.55,0,0,1-28.78,6.24q-18.41,0-36.5-9.8A95.32,95.32,0,0,1,198.78,180l-26.11,19.6A4.77,4.77,0,0,1,167,200c-2-1.08-2.77-2.62-2.37-4.6l7.41-32.65-7.41-32.66q-.6-3,2.37-4.6a5.24,5.24,0,0,1,5.93.44l25.82,19.6a95.5,95.5,0,0,1,26.4-20.49q18.1-9.8,36.5-9.79a75.85,75.85,0,0,1,28.78,5.93,108.37,108.37,0,0,1,23.44,14.25,98.07,98.07,0,0,1,15.72,15.74q5.94,7.71,5.94,11.58T329.62,174A92.15,92.15,0,0,1,314.05,189.94Zm-26.26-20.06a7,7,0,0,0,4.89-2.08,6.82,6.82,0,0,0,0-10.09,7.16,7.16,0,0,0-5-2.08,6.7,6.7,0,0,0-4.9,2.08,7.13,7.13,0,0,0,5.05,12.17Z"/></g></g></svg>