<svg id="Option_2" data-name="Option 2" xmlns="http://www.w3.org/2000/svg" xmlns:xlink="http://www.w3.org/1999/xlink" viewBox="0 0 500 300"><defs><style>.cls-1,.cls-18,.cls-22,.cls-23,.cls-25,.cls-33{fill:none;}.cls-2{fill:url(#New_Pattern_Swatch_16);}.cls-3{fill:url(#New_Pattern_Swatch_23);}.cls-4{fill:#666;}.cls-5{clip-path:url(#clip-path);}.cls-6{clip-path:url(#clip-path-2);}.cls-7{fill:#450c0b;}.cls-8{opacity:0.2;}.cls-9{fill:url(#New_Pattern_Swatch_16-3);}.cls-10{clip-path:url(#clip-path-3);}.cls-11{clip-path:url(#clip-path-4);}.cls-12{fill:#d2ecee;}.cls-13{clip-path:url(#clip-path-5);}.cls-14{clip-path:url(#clip-path-6);}.cls-15{fill:#ddb726;}.cls-16{opacity:0.4;}.cls-17{fill:#705f01;}.cls-18{stroke:#967f01;}.cls-18,.cls-22,.cls-23,.cls-25,.cls-33{stroke-linecap:round;stroke-miterlimit:10;}.cls-18,.cls-22{stroke-width:3px;}.cls-19,.cls-24{fill:#5c4e01;}.cls-20{fill:#493e01;}.cls-21{fill:#836f01;opacity:0.5;}.cls-21,.cls-22,.cls-23,.cls-24,.cls-26{fill-rule:evenodd;}.cls-22,.cls-23{stroke:#5c4e01;}.cls-25{stroke:#352d00;}.cls-25,.cls-33{stroke-width:8px;}.cls-26{fill:#493809;}.cls-27{opacity:0.1;}.cls-28{fill:url(#New_Pattern_Swatch_23-5);}.cls-29{clip-path:url(#clip-path-7);}.cls-30{clip-path:url(#clip-path-8);}.cls-31{clip-path:url(#clip-path-9);}.cls-32{clip-path:url(#clip-path-10);}.cls-33{stroke:#152327;}</style><pattern id="New_Pattern_Swatch_16" data-name="New Pattern Swatch 16" width="10" height="10" patternTransform="translate(0.42 0.7)" patternUnits="userSpaceOnUse" viewBox="0 0 10 10"><rect class="cls-1" width="10" height="10"/><path d="M5,4A1,1,0,1,0,6,5,1,1,0,0,0,5,4Z"/><path d="M10,1V0H9A1,1,0,0,0,10,1Z"/><path d="M1,0H0V1H0A1,1,0,0,0,1,0Z"/><path d="M10,9a1,1,0,0,0-1,1h1Z"/><path d="M0,9H0v1H1A1,1,0,0,0,0,9Z"/></pattern><pattern id="New_Pattern_Swatch_23" data-name="New Pattern Swatch 23" width="10" height="10" patternTransform="translate(-160 -3)" patternUnits="userSpaceOnUse" viewBox="0 0 10 10"><rect class="cls-1" width="10" height="10"/><path class="cls-4" d="M5,4A1,1,0,1,0,6,5,1,1,0,0,0,5,4Z"/><path class="cls-4" d="M10,1V0H9A1,1,0,0,0,10,1Z"/><path class="cls-4" d="M1,0H0V1H0A1,1,0,0,0,1,0Z"/><path class="cls-4" d="M10,9a1,1,0,0,0-1,1h1Z"/><path class="cls-4" d="M0,9H0v1H1A1,1,0,0,0,0,9Z"/></pattern><clipPath id="clip-path"><rect id="_Clipping_mask_" data-name="[Clipping mask]" class="cls-1" x="520.92" y="-0.3" width="500" height="300"/></clipPath><clipPath id="clip-path-2"><path class="cls-1" d="M1020.92,68.83V329.7h-500V68.79c.3,0,.6,0,.9,0a10.67,10.67,0,0,0,10.86-10h0a10.9,10.9,0,0,0,21.72,0h0a10.9,10.9,0,0,0,21.72,0h0a10.9,10.9,0,0,0,21.72,0h0a10.9,10.9,0,0,0,21.72,0h0a10.9,10.9,0,0,0,21.72,0h0a10.9,10.9,0,0,0,21.72,0h0a10.9,10.9,0,0,0,21.72,0h0a10.67,10.67,0,0,0,10.86,10,10.83,10.83,0,0,0,10.41-7.43,10.84,10.84,0,0,0,10.42,7.43,10.67,10.67,0,0,0,10.86-10h0a10.9,10.9,0,0,0,21.72,0h0a10.9,10.9,0,0,0,21.72,0h0a10.9,10.9,0,0,0,21.72,0h0a10.9,10.9,0,0,0,21.72,0h0a10.9,10.9,0,0,0,21.72,0h0a10.9,10.9,0,0,0,21.72,0h0a10.89,10.89,0,0,0,21.71,0h0a10.9,10.9,0,0,0,21.72,0h0a10.9,10.9,0,0,0,21.72,0h0a10.9,10.9,0,0,0,21.72,0h0a10.9,10.9,0,0,0,21.72,0h0a10.9,10.9,0,0,0,21.72,0h0a10.9,10.9,0,0,0,21.72,0h0A10.67,10.67,0,0,0,1020.92,68.83Z"/></clipPath><pattern id="New_Pattern_Swatch_16-3" data-name="New Pattern Swatch 16" width="10" height="10" patternTransform="translate(0.42 0.7)" patternUnits="userSpaceOnUse" viewBox="0 0 10 10"><rect class="cls-1" width="10" height="10"/><path d="M5,4A1,1,0,1,0,6,5,1,1,0,0,0,5,4Z"/><path d="M10,1V0H9A1,1,0,0,0,10,1Z"/><path d="M1,0H0V1H0A1,1,0,0,0,1,0Z"/><path d="M10,9a1,1,0,0,0-1,1h1Z"/><path d="M0,9H0v1H1A1,1,0,0,0,0,9Z"/></pattern><clipPath id="clip-path-3"><path class="cls-2" d="M1020.92,68.83V329.7h-500V68.79c.3,0,.6,0,.9,0a10.67,10.67,0,0,0,10.86-10h0a10.9,10.9,0,0,0,21.72,0h0a10.9,10.9,0,0,0,21.72,0h0a10.9,10.9,0,0,0,21.72,0h0a10.9,10.9,0,0,0,21.72,0h0a10.9,10.9,0,0,0,21.72,0h0a10.9,10.9,0,0,0,21.72,0h0a10.9,10.9,0,0,0,21.72,0h0a10.67,10.67,0,0,0,10.86,10,10.83,10.83,0,0,0,10.41-7.43,10.84,10.84,0,0,0,10.42,7.43,10.67,10.67,0,0,0,10.86-10h0a10.9,10.9,0,0,0,21.72,0h0a10.9,10.9,0,0,0,21.72,0h0a10.9,10.9,0,0,0,21.72,0h0a10.9,10.9,0,0,0,21.72,0h0a10.9,10.9,0,0,0,21.72,0h0a10.9,10.9,0,0,0,21.72,0h0a10.89,10.89,0,0,0,21.71,0h0a10.9,10.9,0,0,0,21.72,0h0a10.9,10.9,0,0,0,21.72,0h0a10.9,10.9,0,0,0,21.72,0h0a10.9,10.9,0,0,0,21.72,0h0a10.9,10.9,0,0,0,21.72,0h0a10.9,10.9,0,0,0,21.72,0h0A10.67,10.67,0,0,0,1020.92,68.83Z"/></clipPath><clipPath id="clip-path-4"><rect id="_Clipping_mask_2" data-name="[Clipping mask]" class="cls-1" x="0.01" width="500" height="300"/></clipPath><clipPath id="clip-path-5"><path class="cls-1" d="M500.08,65.13V326H.08V65.09a9.1,9.1,0,0,0,.91,0,10.68,10.68,0,0,0,10.86-10h0a10.67,10.67,0,0,0,10.86,10,10.68,10.68,0,0,0,10.86-10h0a10.9,10.9,0,0,0,21.71,0h0a10.9,10.9,0,0,0,21.71,0h0a10.9,10.9,0,0,0,21.72,0h0a10.9,10.9,0,0,0,21.72,0h0a10.9,10.9,0,0,0,21.72,0h0a10.9,10.9,0,0,0,21.72,0h0a10.68,10.68,0,0,0,10.86,10,10.83,10.83,0,0,0,10.42-7.43,10.81,10.81,0,0,0,10.41,7.43,10.67,10.67,0,0,0,10.86-10h0a10.9,10.9,0,0,0,21.72,0h0a10.9,10.9,0,0,0,21.72,0h0a10.9,10.9,0,0,0,21.72,0h0a10.9,10.9,0,0,0,21.72,0h0a10.9,10.9,0,0,0,21.72,0h0a10.9,10.9,0,0,0,21.72,0h0a10.9,10.9,0,0,0,21.72,0h0a10.9,10.9,0,0,0,21.72,0h0a10.9,10.9,0,0,0,21.72,0h0a10.9,10.9,0,0,0,21.71,0h0a10.9,10.9,0,0,0,21.72,0h0a10.9,10.9,0,0,0,21.72,0h0a10.9,10.9,0,0,0,21.72,0h0A10.68,10.68,0,0,0,500.08,65.13Z"/></clipPath><clipPath id="clip-path-6"><rect class="cls-1" x="-672.93" y="-370.56" width="1237.32" height="927.54"/></clipPath><pattern id="New_Pattern_Swatch_23-5" data-name="New Pattern Swatch 23" width="10" height="10" patternTransform="translate(-160 -3)" patternUnits="userSpaceOnUse" viewBox="0 0 10 10"><rect class="cls-1" width="10" height="10"/><path class="cls-4" d="M5,4A1,1,0,1,0,6,5,1,1,0,0,0,5,4Z"/><path class="cls-4" d="M10,1V0H9A1,1,0,0,0,10,1Z"/><path class="cls-4" d="M1,0H0V1H0A1,1,0,0,0,1,0Z"/><path class="cls-4" d="M10,9a1,1,0,0,0-1,1h1Z"/><path class="cls-4" d="M0,9H0v1H1A1,1,0,0,0,0,9Z"/></pattern><clipPath id="clip-path-7"><path class="cls-3" d="M500.5,65.13V326H.5V65.09a9.1,9.1,0,0,0,.91,0,10.68,10.68,0,0,0,10.86-10h0a10.66,10.66,0,0,0,10.85,10A10.67,10.67,0,0,0,34,55.17h0a10.9,10.9,0,0,0,21.72,0h0a10.9,10.9,0,0,0,21.72,0h0a10.9,10.9,0,0,0,21.72,0h0a10.9,10.9,0,0,0,21.72,0h0a10.9,10.9,0,0,0,21.72,0h0a10.9,10.9,0,0,0,21.72,0h0a10.67,10.67,0,0,0,10.86,10,10.83,10.83,0,0,0,10.42-7.43,10.8,10.8,0,0,0,10.41,7.43,10.67,10.67,0,0,0,10.86-10h0a10.9,10.9,0,0,0,21.72,0h0a10.9,10.9,0,0,0,21.72,0h0a10.9,10.9,0,0,0,21.72,0h0a10.9,10.9,0,0,0,21.72,0h0a10.9,10.9,0,0,0,21.72,0h0a10.9,10.9,0,0,0,21.72,0h0a10.9,10.9,0,0,0,21.72,0h0a10.9,10.9,0,0,0,21.71,0h0a10.9,10.9,0,0,0,21.72,0h0a10.9,10.9,0,0,0,21.72,0h0a10.9,10.9,0,0,0,21.72,0h0a10.9,10.9,0,0,0,21.72,0h0a10.9,10.9,0,0,0,21.72,0h0A10.68,10.68,0,0,0,500.5,65.13Z"/></clipPath><clipPath id="clip-path-8"><rect class="cls-3" x="-672.51" y="-370.56" width="1237.32" height="927.54"/></clipPath><clipPath id="clip-path-9"><rect id="_Clipping_mask_3" data-name="[Clipping mask]" class="cls-1" x="-519.13" width="500" height="300"/></clipPath><clipPath id="clip-path-10"><path class="cls-1" d="M-19,65V300H-519V64.92c.3,0,.6,0,.91,0a10.68,10.68,0,0,0,10.86-10h0a10.66,10.66,0,0,0,10.85,10A10.67,10.67,0,0,0-485.5,55h0a10.68,10.68,0,0,0,10.86,10,10.67,10.67,0,0,0,10.86-10h0a10.68,10.68,0,0,0,10.86,10A10.67,10.67,0,0,0-442,55h0a10.68,10.68,0,0,0,10.86,10,10.67,10.67,0,0,0,10.86-10h0A10.68,10.68,0,0,0-409.4,65a10.67,10.67,0,0,0,10.86-10h0a10.68,10.68,0,0,0,10.86,10A10.67,10.67,0,0,0-376.8,55h0a10.67,10.67,0,0,0,10.86,10,10.68,10.68,0,0,0,10.86-10h0a10.67,10.67,0,0,0,10.86,10,10.83,10.83,0,0,0,10.42-7.43A10.8,10.8,0,0,0-323.35,65a10.67,10.67,0,0,0,10.86-10h0a10.68,10.68,0,0,0,10.86,10,10.67,10.67,0,0,0,10.86-10h0a10.68,10.68,0,0,0,10.86,10A10.67,10.67,0,0,0-269,55h0a10.67,10.67,0,0,0,10.86,10,10.68,10.68,0,0,0,10.86-10h0a10.67,10.67,0,0,0,10.86,10,10.68,10.68,0,0,0,10.86-10h0a10.67,10.67,0,0,0,10.86,10,10.68,10.68,0,0,0,10.86-10h0a10.67,10.67,0,0,0,10.86,10A10.68,10.68,0,0,0-182,55h0a10.67,10.67,0,0,0,10.86,10,10.68,10.68,0,0,0,10.86-10h0a10.67,10.67,0,0,0,10.86,10,10.66,10.66,0,0,0,10.85-10h0A10.68,10.68,0,0,0-127.7,65a10.67,10.67,0,0,0,10.86-10h0A10.68,10.68,0,0,0-106,65,10.67,10.67,0,0,0-95.1,55h0A10.68,10.68,0,0,0-84.22,65,10.67,10.67,0,0,0-73.36,55h0A10.68,10.68,0,0,0-62.48,65,10.67,10.67,0,0,0-51.62,55h0A10.68,10.68,0,0,0-40.74,65,10.67,10.67,0,0,0-29.88,55h0A10.68,10.68,0,0,0-19,65Z"/></clipPath></defs><title>scene_warning</title><g id="Unhealthy_Mid_fidelity" data-name="Unhealthy, Mid fidelity"><g class="cls-5"><g id="ROCKS_fore_copy_2" data-name="ROCKS fore copy 2"><path class="cls-7" d="M479.25,237.49s17.54-3.14,31.34-1.69c16.35,1.72,95.18,32.05,100,45C615.23,293.09,598,300,598,300H479.39Z"/></g><g id="Turbidity" class="cls-8"><path class="cls-9" d="M1020.92,68.83V329.7h-500V68.79c.3,0,.6,0,.9,0a10.67,10.67,0,0,0,10.86-10h0a10.9,10.9,0,0,0,21.72,0h0a10.9,10.9,0,0,0,21.72,0h0a10.9,10.9,0,0,0,21.72,0h0a10.9,10.9,0,0,0,21.72,0h0a10.9,10.9,0,0,0,21.72,0h0a10.9,10.9,0,0,0,21.72,0h0a10.9,10.9,0,0,0,21.72,0h0a10.67,10.67,0,0,0,10.86,10,10.83,10.83,0,0,0,10.41-7.43,10.84,10.84,0,0,0,10.42,7.43,10.67,10.67,0,0,0,10.86-10h0a10.9,10.9,0,0,0,21.72,0h0a10.9,10.9,0,0,0,21.72,0h0a10.9,10.9,0,0,0,21.72,0h0a10.9,10.9,0,0,0,21.72,0h0a10.9,10.9,0,0,0,21.72,0h0a10.9,10.9,0,0,0,21.72,0h0a10.89,10.89,0,0,0,21.71,0h0a10.9,10.9,0,0,0,21.72,0h0a10.9,10.9,0,0,0,21.72,0h0a10.9,10.9,0,0,0,21.72,0h0a10.9,10.9,0,0,0,21.72,0h0a10.9,10.9,0,0,0,21.72,0h0a10.9,10.9,0,0,0,21.72,0h0A10.67,10.67,0,0,0,1020.92,68.83Z"/><g class="cls-10"><rect class="cls-9" x="-152.09" y="-366.86" width="1237.32" height="927.54"/></g></g></g></g><g id="Moderately_healthy_Mid_fidelity" data-name="Moderately healthy, Mid fidelity"><g class="cls-11"><g id="Background-2" data-name="Background"><rect id="Sky" class="cls-12" x="0.5" width="500" height="300"/><g id="Water-2" data-name="Water"><g class="cls-13"><g class="cls-14"><rect class="cls-15" x="-4.45" y="50.64" width="509.06" height="279.89"/></g></g></g></g><path id="Rocks_floor_background" data-name="Rocks / floor background" class="cls-16" d="M509.05,203.79c-3.78,0-18.94-7.84-28.79-10.41-8.51-2.22-19.35.16-19.35,4.11,0,4.35,3.86,5.33,3.86,7.48,0,1.88-7.49,5.2-7.58,11a6.69,6.69,0,0,0,.25,2,.61.61,0,0,1-.73.78,78.79,78.79,0,0,0-14.31-2.16c-10.84-.55-25.07,6.51-25.07,11.11,0,3.19,2.16,4.75,3.56,5.91.47.38.79.66.67,1s-1.87.3-5.54.51a.88.88,0,0,1-.8-1.35,3.79,3.79,0,0,0,.59-1.95c0-3.73-6.47-9.75-10.21-9.75s-9,6-9,9.75a5.93,5.93,0,0,0,2.71,4.5.36.36,0,0,1-.15.64l-1.41.25a.32.32,0,0,1-.29,0,.27.27,0,0,1-.09-.23c0-2.44-4.24-6.39-6.69-6.39s-5.88,4-5.88,6.39a3,3,0,0,0,.41,1.46,1,1,0,0,1-.69,1.52l-3.87.83a1.06,1.06,0,0,1-.78-.13c-1.87-1.09-4.35-1.85-4.56-2.46-.35-1-1.1-1.76-2.13-1.51-3.57.85-3.58,3.42-2.34,5.56a.49.49,0,0,1-.33.74c-24.59,5.37-51.18,11.27-63,11.68l-3.6.1a1.63,1.63,0,0,1-1.35-.68c-.9-1.16-2.38-2.23-3.39-2.23s-2.59,1.35-3.27,2.67a.66.66,0,0,1-.58.36h-.66a1.28,1.28,0,0,1-1.28-1.3,4.31,4.31,0,0,0-1.92-3.35,5,5,0,0,0-5.3-.42c-2.25,1-12.68-1.45-12.68,3.64a2.41,2.41,0,0,0,.06.71s.09.22,0,.32-.52.07-.55.06c-6.77-.22-10.49-.48-10.49-.48a.87.87,0,0,1-.7-.46c-1.76-3.42-8.93-5.26-23.29-7.79-17-3-27.84-6.54-40-3.12-8.88,2.49-6.48,10.26-7.57,10.91a8.06,8.06,0,0,1-1.8.19,1.61,1.61,0,0,1-1.59-1.08,3.71,3.71,0,0,0-1.57-1.76,2.74,2.74,0,0,0-2.84.05c-1.29.7-8-.89-8,2.4,0,.07,0,.14,0,.21a.58.58,0,0,1-.11.29.39.39,0,0,1-.34.15h-2a.92.92,0,0,1-.67-.31,5.14,5.14,0,0,0-3.11-1.91,3.88,3.88,0,0,0-2.52,1.56,2,2,0,0,1-1.54.68c-7.4,0-13.92,0-15.64,0a.71.71,0,0,1-.61-.33,6.25,6.25,0,0,0-4.95-2.67c-3,0-4.88,1.29-5.75,2.64a.71.71,0,0,1-.61.36h-9.94c-1.21,0-1.69-.39-1.76-.92a11.84,11.84,0,0,0-23.47,0,1.12,1.12,0,0,1-1.12.94h-1.2c-.53,0-.83-.25-.89-.61-1.67-9.25-10.2-24.65-22-25.39-12-.75-32.93,7.47-44.38,12.91a.73.73,0,0,1-1-.5c-.82-4.27-10.55-7.48-20.78-17.7-13-13-25.23,10.67-25.23,10.67V254h1v46.53a.77.77,0,0,0,.77.77H487.62a.77.77,0,0,0,.77-.77l-.31-71.39s-4.48-1.77-9.26-3.53a.56.56,0,0,1,.18-1.08c7.77-.07,16.67-1.06,22.19,2.29,8.57,5.2,19.39,12.84,23.3,12.84C540,239.66,511.64,203.79,509.05,203.79ZM22.16,253.23a.76.76,0,0,1-.76.77H17.32a.77.77,0,0,1-.36-1.44q2.2-1.17,4.2-2.31a.76.76,0,0,1,1.12.75C22.2,251.76,22.17,252.51,22.16,253.23Z"/><g id="ROCKS_back_copy_2" data-name="ROCKS back copy 2"><path class="cls-17" d="M-.06,263V214s14-7,27,6,20,19.08,17,23.54S3.94,267-.06,263Z"/><path class="cls-17" d="M501.35,261.58v-49s-41.07,15.7-47.69,21c-5,4-17,19.54-14,24S497.35,265.58,501.35,261.58Z"/><path class="cls-17" d="M18.32,260.09s-1.76-10.6,2.54-13.82S59.53,226.93,76.72,228s27.94,31.16,22.57,34.38S47.72,273.13,39.12,271,21.14,265.32,18.32,260.09Z"/><path class="cls-17" d="M394.85,263c-1-1,5-6,8-6s4,4,3,6S395.85,264,394.85,263Z"/><path class="cls-17" d="M166.31,252.86c2.17-4.52,4.33-7.53,12.64-10.3s5.55-1.38,17.32.7,20.09,9,18.71,10.39c-3.46,3.46-24.25,1.38-29.79,2.77S163.37,259,166.31,252.86Z"/><path class="cls-17" d="M156.67,251c-5.41,0-7.17,4.18-6,5.38s9,1.2,10.76-.6S159.66,251,156.67,251Z"/><path class="cls-17" d="M90.47,266.27c-3.14,0-4.16,2.42-3.47,3.12s5.2.69,6.24-.35S92.2,266.27,90.47,266.27Z"/><path class="cls-17" d="M95.15,280.05c.21-1,4.07-1.85,4.84-1.22s3.11,2.52.3,2.81S94.66,282.24,95.15,280.05Z"/><path class="cls-17" d="M213.9,268.3c.21-1,4.07-1.85,4.85-1.22s3.1,2.51.29,2.81S213.42,270.48,213.9,268.3Z"/><path class="cls-17" d="M252.57,289.16c.21-1,4.07-1.85,4.85-1.22s3.1,2.51.29,2.81S252.08,291.34,252.57,289.16Z"/><path class="cls-17" d="M248.16,285.09c.21-1,4.07-1.85,4.85-1.22s3.1,2.51.29,2.81S247.67,287.27,248.16,285.09Z"/><path class="cls-17" d="M193.64,262.88c.22-1,4.07-1.85,4.85-1.22s3.11,2.52.3,2.81S193.16,265.06,193.64,262.88Z"/><path class="cls-17" d="M156.45,259.38c.21-1,4.07-1.85,4.85-1.22s3.11,2.52.29,2.81S156,261.56,156.45,259.38Z"/><path class="cls-17" d="M216.61,252.81c.22-1,4.08-1.85,4.85-1.22s3.11,2.52.3,2.82S216.13,255,216.61,252.81Z"/><path class="cls-17" d="M397.73,269.88c.21-1,4.07-1.85,4.85-1.22s3.11,2.52.29,2.81S397.25,272.06,397.73,269.88Z"/><path class="cls-17" d="M366.85,249.65c.18-.78,3.29-1.49,3.92-1s2.51,2,.24,2.27S366.46,251.42,366.85,249.65Z"/><path class="cls-17" d="M407.21,249c.17-.79,3.29-1.5,3.91-1s2.51,2,.24,2.27S406.82,250.77,407.21,249Z"/><path class="cls-17" d="M377.56,255c.21-1,4.07-1.85,4.85-1.22s3.11,2.52.29,2.81S377.08,257.16,377.56,255Z"/><path class="cls-17" d="M265,264.07c.21-1,4.07-1.85,4.85-1.22s3.1,2.52.29,2.81S264.54,266.26,265,264.07Z"/><path class="cls-17" d="M448.74,264.3c.21-1,4.07-1.85,4.85-1.22s3.1,2.51.29,2.81S448.25,266.48,448.74,264.3Z"/><path class="cls-17" d="M269.85,259.18c-1-1.95,6.17-9.25,8.48-9.25s9.26,6.17,8.49,7.71S270.62,260.73,269.85,259.18Z"/><path class="cls-17" d="M257.57,257.14c-1-1,5-6,8-6s4,4,3,6S258.57,258.14,257.57,257.14Z"/></g><g id="Layer_31_copy" data-name="Layer 31 copy"><path class="cls-17" d="M314.58,256.63c-1.16-3.49,4.66-9.89,11.06-10.48s22.11,8.15,20.37,10.48S315.74,260.12,314.58,256.63Z"/></g><g id="PLANTS_back_copy_2" data-name="PLANTS back copy 2"><g id="plant"><path class="cls-18" d="M441,241.38c5.19-12.09-4.67-65.77,26.78-67.16"/><path class="cls-18" d="M503,169.68c-22.25-20.3-55.87-12.65-65,16.71-5.87,19-2.09,40.54,1.4,54.51"/><path class="cls-18" d="M411.64,146.55c-8.39,9.08-15.28,29.16-10.49,49.62,7.86,33.55,34.08,41.94,39,45.43"/><path class="cls-18" d="M417.93,159.13c-8.39,9.09-10.48,33.55-5.24,47.18a83.59,83.59,0,0,0,27.78,36.17"/><path class="cls-18" d="M391.36,183.2c1.48,22.31,6.9,34.85,17.38,44.28,16.21,14.59,26.31,10.45,31.21,14"/><path class="cls-18" d="M493.94,138.86c-10.49-9.78-34.86-10.37-51.72,2.8-22.37,17.47-37.74,68.49-2.8,99.94"/></g><g id="plant-2" data-name="plant"><path class="cls-18" d="M142.82,255.46c11-25.75-15.66-47.49-13.82-64.33"/><path class="cls-18" d="M142.82,255.46c-5.56-28.81-28.52-52.09-23.32-72.6"/><path class="cls-18" d="M142.82,255.46s-10.18-8.81-14.5-18.36c-9.73-21.48-22.6-35.56-18.61-57.3"/><path class="cls-18" d="M107.56,213.17c4,18.68,27.71,41,33.84,41.78"/><path class="cls-18" d="M107.87,231.55c2.67,6,13.22,16,19,19.9,6.58,4.46,10.28,4.8,15.3,4.25"/><path class="cls-18" d="M169.15,211.28c-10.61-1.67-15.17,2.79-17.31,9.21-3.63,10.88,1.88,24-5.58,34.33"/><path class="cls-18" d="M172.29,224.67c-4.54-6.41-12.06-5.19-15.14.84-4.28,8.38,1.95,26.24-8.94,29.59"/></g><path class="cls-18" d="M501.62,158.59s-6.46-13.39-29.4-13.77c-22.7-.37-39.44,21.58-42.79,39.44s.74,37.58,6.7,54"/></g><g id="ROCKS_mid_copy" data-name="ROCKS mid copy"><path class="cls-19" d="M76.94,264c-9.06,0-12,7-10,9s15,2,18-1S81.94,264,76.94,264Z"/><path class="cls-19" d="M88.62,274.24c-3.74,0-5,2.89-4.12,3.71s6.18.83,7.41-.41S90.68,274.24,88.62,274.24Z"/><path class="cls-19" d="M224.41,267.89c-3.73,0-4.95,2.89-4.12,3.71s6.18.83,7.41-.41S226.47,267.89,224.41,267.89Z"/><path class="cls-19" d="M216.27,255c-9.06,0-12,7-10,9s15,2,18-1S221.27,255,216.27,255Z"/><path class="cls-19" d="M270.61,273.54c-12.64,0-16.75,9.77-13.95,12.56s20.92,2.79,25.11-1.4S277.58,273.54,270.61,273.54Z"/><path class="cls-19" d="M438.36,263.43c-3.74,0-4.95,2.88-4.13,3.71s6.19.82,7.42-.41S440.42,263.43,438.36,263.43Z"/><path class="cls-19" d="M383.07,246.2c-3.73,0-4.94,2.89-4.12,3.71s6.18.83,7.42-.41S385.13,246.2,383.07,246.2Z"/><path class="cls-19" d="M412.13,273c-3.73,0-4.95,2.88-4.12,3.7s6.18.83,7.41-.41S414.19,273,412.13,273Z"/><path class="cls-19" d="M278.31,266.19c-3.73,0-4.94,2.89-4.12,3.71s6.18.82,7.42-.41S280.37,266.19,278.31,266.19Z"/><path class="cls-19" d="M445.69,250.31c-10,0-13.23,7.71-11,9.91s16.53,2.21,19.83-1.1S451.2,250.31,445.69,250.31Z"/><path class="cls-19" d="M232.67,260c-5.41,0-7.17,4.18-6,5.38s9,1.2,10.76-.6S235.66,260,232.67,260Z"/><path class="cls-19" d="M100.86,254.27c1.89-3.79,6-7.49,12-6s14.24,3.74,17.23,8.24,5.25,9.74-.75,10.49-24,7.5-28.47,6-10.12-5.45-6.94-10.59S98.61,258.77,100.86,254.27Z"/><path class="cls-19" d="M-9,248.22c1.9-3.79,6-7.49,12-6s14.24,3.75,17.24,8.25,5.24,9.74-.75,10.49-24,7.5-28.48,6-10.12-5.45-6.93-10.6S-11.27,252.72-9,248.22Z"/><path class="cls-19" d="M459.94,260c2.54-2.55,16-11,19-12s21-3,21-3v40s-32.51-3.5-37-5-10-6-8.57-9.52C455.48,267.77,457.94,262,459.94,260Z"/><path class="cls-19" d="M408.93,268.28c-1.19-2.38,7.52-11.28,10.34-11.28s11.28,7.52,10.34,9.4S409.87,270.16,408.93,268.28Z"/><path class="cls-19" d="M398.17,245.85c-1.27-2.53,8-12,11-12s12,8,11,10S399.17,247.85,398.17,245.85Z"/><path class="cls-19" d="M415.71,249.88c-1.55-3.11,9.81-14.72,13.49-14.72s14.71,9.81,13.48,12.26S416.93,252.33,415.71,249.88Z"/><path class="cls-19" d="M133.21,278c-1.26-2.53,8-12,11-12s12,8,11,10S134.21,280,133.21,278Z"/><path class="cls-19" d="M397.76,292.55c6.34-4.22,7-10,14-6s11,5,15,11a103.91,103.91,0,0,1,6,10h-40S391.76,296.55,397.76,292.55Z"/><path class="cls-19" d="M268.33,298.48c6.34-4.22,7-10,14-6s11,5,15,11a103.91,103.91,0,0,1,6,10h-40S262.33,302.48,268.33,298.48Z"/></g><g id="ROCKS_fore_copy" data-name="ROCKS fore copy"><path class="cls-20" d="M-40.9,237.49s17.53-3.14,31.33-1.69c16.35,1.72,95.18,32.05,100,45C95.08,293.09,77.83,300,77.83,300H-40.77Z"/><path class="cls-20" d="M382.91,281.45c-12.41-5-29.53,3.62-42.1,5-13.47,1.48-52.12,3-51.66,10.85.37,6.36,19.8,9.66,19.8,9.66l94.63-5.53A37.24,37.24,0,0,0,382.91,281.45Z"/><path class="cls-20" d="M86.54,293.24C92.2,283.33,159.26,269,170.75,269s33.17,14,38.27,21.69a29,29,0,0,1,5,17.86H86.54S81.44,302.17,86.54,293.24Z"/><path class="cls-20" d="M423.06,294.38s-5.59-11.91,5.58-16.75,46.14,2.24,51.35,2.24S504.54,281,504.54,281l-.37,20.09-75.16.75-5.95-7.44"/></g><g id="Bugs_copy_3" data-name="Bugs copy 3"><g id="Mayfly_side_" data-name="Mayfly (side)"><path class="cls-21" d="M63.22,37.49s-9.13-3.86-9.44-9.21c-.5-8.58,7.81-17.57,8.95-10.39S69.17,38,66.43,38.3c-3.29.34-3.21-.81-3.21-.81"/><path class="cls-21" d="M56,29.5c-3-.19-3.31,3-2.64,5.22.76,2.42,7.5,4.39,9.39,4.86S60.7,29.79,56,29.5Z"/><g id="Strokes"><path class="cls-22" d="M45.89,35.6s5.91,4.7,11.55,4.33c4.67-.32,6.27-3.11,13.48-3.53"/><path class="cls-23" d="M31.14,26.68c7.23,8.27,14.11,8.19,14.11,8.19"/><path class="cls-23" d="M31.89,23.49c4,8.26,13.9,11.83,13.9,11.83"/><path class="cls-23" d="M74.68,41.76c-3.2-2.85-8-1.71-9.69-3.31"/><path class="cls-23" d="M73.71,44.62c-3.42-3.83-7.3-1.72-9.23-5.83"/><path class="cls-23" d="M58.53,40.28,52,42.16s4.28,3.6,3.2,3.71"/></g><path class="cls-24" d="M74.21,34.83a7.68,7.68,0,0,1,.85,2c.07.93-2.31.4-2.31.4Z"/><circle class="cls-19" cx="44.68" cy="34.76" r="1"/><circle class="cls-19" cx="72.75" cy="35.61" r="1.65"/></g><g id="Mayfly_top_" data-name="Mayfly (top)"><g id="Stoke"><path class="cls-19" d="M185.23,25.17a12.08,12.08,0,0,0,3.36,1.23,6.14,6.14,0,0,0,3.19-.12c1.17-.28,2-.92,3.19-1.14a10.13,10.13,0,0,1,3.86-.2.19.19,0,0,1,.15.21.14.14,0,0,1,0,.07,7,7,0,0,1-1.33,1.58,7.75,7.75,0,0,1-1.58,1.14,5.11,5.11,0,0,1-1.91.62c-.69.07-1.38.07-2,.1a8.12,8.12,0,0,1-2.11-.13,8,8,0,0,1-1.94-.72,11,11,0,0,1-3-2.41.15.15,0,0,1,0-.21.15.15,0,0,1,.17,0Z"/><path class="cls-23" d="M179.9,25.49c3.46-1,7.4,1.17,7.4,1.17"/><path class="cls-23" d="M181.28,21.27a14.58,14.58,0,0,0,6.34,5.46"/><path class="cls-23" d="M195.26,25.85c-.18-2.69,2-4.08,3.36-4.74"/><path class="cls-23" d="M192.22,27.33c-1.28-.44-2.47-.91-4.19-3.38"/><path class="cls-23" d="M192.72,27.09c-1,.89-2,1.77-2.62,4.71"/><path class="cls-23" d="M195.45,27.21c2.12,1.66,4.49.66,5.8-.1"/></g><path class="cls-24" d="M198.46,24.54a3.89,3.89,0,0,1,1.08.12c.42.19-.53,1.2-.53,1.2Z"/><circle class="cls-19" cx="187.05" cy="26.51" r="0.34"/><circle class="cls-19" cx="198.38" cy="25.35" r="0.82"/><path class="cls-21" d="M193.38,26.3s-4.51-1.9-4.66-4.54c-.25-4.24,3.85-8.68,4.41-5.13s3.19,9.94,1.83,10.08c-1.62.16-1.58-.41-1.58-.41"/><path class="cls-21" d="M191.59,23.89c-1.11-.07-1.23,1.12-1,1.92s2.77,1.62,3.46,1.79S193.31,24,191.59,23.89Z"/><path class="cls-21" d="M194.23,28.47s-2,4.47-.31,6.51c2.71,3.27,8.73,3.72,6.73.74s-4.45-9.44-5.53-8.62c-1.31,1-.89,1.37-.89,1.37"/><path class="cls-21" d="M194.57,31.46c-.77.81-1.66,0-2-.74s.92-3.07,1.32-3.67S195.76,30.21,194.57,31.46Z"/></g><g id="Mayfly_top_2" data-name="Mayfly (top)"><g id="Stroke"><path class="cls-19" d="M366.25,34.38a10.93,10.93,0,0,1-3.8.73,8.1,8.1,0,0,1-2.05-.25,8.55,8.55,0,0,1-1.93-.87c-.56-.32-1.16-.64-1.74-1a5,5,0,0,1-1.41-1.43,8.16,8.16,0,0,1-.87-1.75,6.58,6.58,0,0,1-.44-2,.17.17,0,0,1,.16-.19h.07a10.13,10.13,0,0,1,3.33,2c.93.73,1.39,1.69,2.3,2.49a6.58,6.58,0,0,0,1.26,1,6.4,6.4,0,0,0,1.51.63,12.46,12.46,0,0,0,3.54.46h0a.15.15,0,0,1,.15.15A.14.14,0,0,1,366.25,34.38Z"/><path class="cls-23" d="M370.76,36.84c-2.62-2.46-7.1-2.39-7.1-2.39"/><path class="cls-23" d="M371.5,32.47a14.58,14.58,0,0,1-8.15,1.9"/><path class="cls-23" d="M357,30c1.4-2.3.13-4.54-.78-5.75"/><path class="cls-23" d="M359,32.76c1.34.21,2.62.35,5.29-1"/><path class="cls-23" d="M358.66,32.32c.5,1.26.92,2.48.14,5.39"/><path class="cls-23" d="M356.19,31.16c-2.65.49-4.28-1.5-5.09-2.78"/></g><path class="cls-24" d="M354.76,27.4a3.77,3.77,0,0,0-1-.4c-.45,0-.08,1.32-.08,1.32Z"/><circle class="cls-19" cx="363.96" cy="34.43" r="0.34"/><circle class="cls-19" cx="354.46" cy="28.15" r="0.82"/><path class="cls-21" d="M358.44,31.32s4.88.4,6.24-1.87c2.18-3.64.61-9.47-1.53-6.59s-7.43,7.33-6.3,8.08c1.37.9,1.59.38,1.59.38"/><path class="cls-21" d="M361.15,30c1,.45.57,1.56,0,2.15s-3.2.16-3.9,0S359.58,29.3,361.15,30Z"/><path class="cls-21" d="M356.68,32.84s-.29,4.89-2.74,5.91c-3.91,1.64-9.46-.75-6.3-2.46s8.31-6.3,8.9-5.08c.69,1.48.14,1.63.14,1.63"/><path class="cls-21" d="M355,35.34c.3,1.07,1.47.78,2.14.28s.61-3.15.54-3.87S354.53,33.67,355,35.34Z"/></g><g id="Larvae_top_" data-name="Larvae (top)"><g id="Strokes-2" data-name="Strokes"><path class="cls-19" d="M303.82,272.24a14.78,14.78,0,0,0,4.11,1.66,8.28,8.28,0,0,0,2.06.25,8.15,8.15,0,0,0,2-.28c1.46-.33,2.61-1,4-1.36a14.44,14.44,0,0,1,4.67-.55.18.18,0,0,1,.16.18.15.15,0,0,1,0,.09A9,9,0,0,1,319.1,274a11.4,11.4,0,0,1-2,1.31,7.33,7.33,0,0,1-2.33.76c-.84.11-1.66.14-2.45.18a10.53,10.53,0,0,1-2.55-.1,10.23,10.23,0,0,1-2.37-.83,13.9,13.9,0,0,1-3.79-2.84.15.15,0,0,1,.19-.24Z"/><path class="cls-23" d="M297.23,272.6c4.29-1.19,9.17,1.45,9.17,1.45"/><path class="cls-23" d="M298.94,267.37a18,18,0,0,0,7.85,6.77"/><path class="cls-23" d="M317.73,272.71a5.9,5.9,0,0,0-.35-3.5l3.8-.72"/><path class="cls-23" d="M323.27,275.48c-1.15.52-3.15,1.57-3.15,1.57s-.57-2.69-2-3.29"/><path class="cls-23" d="M319.31,280.94l-2.78-2.22a9.3,9.3,0,0,0,.33-3.86"/><path class="cls-23" d="M317.06,266.25l-1.91,3a9.21,9.21,0,0,1,1.55,3.54"/><path class="cls-23" d="M315.89,281.86a10.77,10.77,0,0,0-1.78-3.18,9.26,9.26,0,0,0,.33-3.85"/><path class="cls-23" d="M312.38,265.57c1.82,1.53.25,4.17.25,4.17a9.3,9.3,0,0,1,1.55,3.55"/></g><path class="cls-24" d="M320.22,271.42a4.9,4.9,0,0,1,1.34.15c.52.24-.66,1.49-.66,1.49Z"/><circle class="cls-19" cx="306.08" cy="273.86" r="0.42"/><circle class="cls-19" cx="320.12" cy="272.43" r="1.01"/></g></g><g id="PLANTS_fore_copy" data-name="PLANTS fore copy"><g id="Plant-3" data-name="Plant"><path class="cls-25" d="M107.94,215c-14.51-10.6-30-8.17-49.67,8.65-32.93,28.19-53,76.74-61.95,81.21"/><path class="cls-25" d="M97.59,165.26c-17.92,2.71-37.82,11.61-57.86,28-30.42,24.84-45.46,71-51.88,76.83"/><path class="cls-25" d="M116.19,188.85c-17.31-5.58-43.46-.11-63.5,16.25-30.42,24.84-50.79,72.16-57.21,78"/><path class="cls-25" d="M85.62,242.87s-16.75-10.05-31,6.36C44.82,260.55,29.25,287.52,12.76,311"/><path class="cls-25" d="M68.67,266c-3.19-.63-7.11.33-11.49,5C46.91,281.87,31.48,317.1,8,333.28"/></g><g id="Plant-4" data-name="Plant"><path class="cls-25" d="M53.36,139.66c-8.64,32.86-49.53,48-62.33,75"/><path class="cls-25" d="M40.22,112.39c1.94,7.79.42,20.42-8.77,36-9.74,16.56-42.37,36-49.85,62.84"/><path class="cls-25" d="M17.33,105.57c5.36,4.87,5.71,20.89,2.92,27.76-7.3,18-35,35.53-40.91,68.18"/></g><g id="Plant-5" data-name="Plant"><path class="cls-25" d="M522.06,191s-34.62,19.09-56.65,32.65c-29.18,18-39.6,36.09-53.47,83.44"/><path class="cls-25" d="M508.85,151.68S479.29,168.61,441,186.49c-33.49,15.63-51.79,56.7-55.81,125"/><path class="cls-25" d="M366.17,188.73s31.37,4.6,16.19,44.09C370.85,262.75,366.17,282.49,379,326"/><path class="cls-25" d="M354.05,206.33s23.62,3.47,12.19,33.2c-8.67,22.53-17,47.26-2.3,79.8"/><path class="cls-25" d="M502.55,226S465,238.86,442.1,276.53c-7.78,12.81-18.44,45.59-41.88,61.78"/><path class="cls-25" d="M516.48,168.14s-22.5,12.77-56.65,32.65c-33.94,19.76-57.94,63.29-60.73,103.47"/></g><g id="Plant-6" data-name="Plant"><path class="cls-25" d="M194.78,251.49c-16.18,30.28-50.4,42.77-52.25,64.66"/><path class="cls-25" d="M182.5,212.42c3.91,5.58,3,12.18,1.34,17.12-12.54,37.21-57.71,59.34-56.93,82.51"/><path class="cls-25" d="M155.15,208c10.61,3.35,12.28,17.31,5,29-20.67,33.39-51.34,53-52.46,82"/><path class="cls-25" d="M123.83,225.44s19.35,14-4.5,35.07c-18.08,16-25.46,32.23-30.48,66.1"/></g></g><path id="fish" class="cls-26" d="M261.62,115.26a75.81,75.81,0,0,1,28.78,5.93,108.37,108.37,0,0,1,23.44,14.25,98.57,98.57,0,0,1,15.73,15.74q5.93,7.71,5.93,11.58T329.57,174a92.46,92.46,0,0,1-15.73,16,98.89,98.89,0,0,1-23.44,14,72.52,72.52,0,0,1-28.78,6.24q-18.39,0-36.49-9.8A95.51,95.51,0,0,1,198.72,180l-26.11,19.6A4.77,4.77,0,0,1,167,200c-2-1.08-2.77-2.62-2.37-4.6L172,162.76,164.6,130.1q-.6-3,2.37-4.6a5.26,5.26,0,0,1,5.94.44l25.81,19.6a95.7,95.7,0,0,1,26.41-20.49Q243.22,115.26,261.62,115.26Zm26.11,54.62a7,7,0,0,0,4.9-2.08,6.84,6.84,0,0,0,0-10.09,7.2,7.2,0,0,0-5.05-2.08,6.66,6.66,0,0,0-4.89,2.08,7.13,7.13,0,0,0,5,12.17Z"/><g id="Turbidity-2" data-name="Turbidity" class="cls-27"><path class="cls-28" d="M500.5,65.13V326H.5V65.09a9.1,9.1,0,0,0,.91,0,10.68,10.68,0,0,0,10.86-10h0a10.66,10.66,0,0,0,10.85,10A10.67,10.67,0,0,0,34,55.17h0a10.9,10.9,0,0,0,21.72,0h0a10.9,10.9,0,0,0,21.72,0h0a10.9,10.9,0,0,0,21.72,0h0a10.9,10.9,0,0,0,21.72,0h0a10.9,10.9,0,0,0,21.72,0h0a10.9,10.9,0,0,0,21.72,0h0a10.67,10.67,0,0,0,10.86,10,10.83,10.83,0,0,0,10.42-7.43,10.8,10.8,0,0,0,10.41,7.43,10.67,10.67,0,0,0,10.86-10h0a10.9,10.9,0,0,0,21.72,0h0a10.9,10.9,0,0,0,21.72,0h0a10.9,10.9,0,0,0,21.72,0h0a10.9,10.9,0,0,0,21.72,0h0a10.9,10.9,0,0,0,21.72,0h0a10.9,10.9,0,0,0,21.72,0h0a10.9,10.9,0,0,0,21.72,0h0a10.9,10.9,0,0,0,21.71,0h0a10.9,10.9,0,0,0,21.72,0h0a10.9,10.9,0,0,0,21.72,0h0a10.9,10.9,0,0,0,21.72,0h0a10.9,10.9,0,0,0,21.72,0h0a10.9,10.9,0,0,0,21.72,0h0A10.68,10.68,0,0,0,500.5,65.13Z"/><g class="cls-29"><rect class="cls-28" x="-672.51" y="-370.56" width="1237.32" height="927.54"/><g class="cls-30"><rect class="cls-28" x="-4.03" y="50.64" width="509.06" height="279.89"/></g></g></g></g></g><g id="Healthy_Mid_fidelity" data-name="Healthy, Mid fidelity"><g class="cls-31"><g id="Wildlife_copy" data-name="Wildlife copy"><path id="Rocks_floor_background-2" data-name="Rocks / floor background" class="cls-16" d="M3.06,203.79c-3.78,0-18.94-7.84-28.79-10.41-8.51-2.22-19.34.16-19.34,4.11,0,4.35,3.85,5.33,3.85,7.48,0,1.88-7.49,5.2-7.58,11a6.37,6.37,0,0,0,.26,2,.61.61,0,0,1-.73.78,78.9,78.9,0,0,0-14.32-2.16c-10.83-.55-25.07,6.51-25.07,11.11,0,3.19,2.16,4.75,3.57,5.91.46.38.78.66.66,1s-1.86.3-5.54.51a.88.88,0,0,1-.8-1.35,3.7,3.7,0,0,0,.59-1.95c0-3.73-6.47-9.75-10.2-9.75s-9,6-9,9.75a5.94,5.94,0,0,0,2.72,4.5.36.36,0,0,1-.16.64l-1.4.25a.32.32,0,0,1-.29,0,.28.28,0,0,1-.1-.23c0-2.44-4.24-6.39-6.68-6.39s-5.89,4-5.89,6.39a3,3,0,0,0,.41,1.46,1,1,0,0,1-.68,1.52l-3.87.83a1.09,1.09,0,0,1-.79-.13c-1.86-1.09-4.34-1.85-4.55-2.46-.35-1-1.1-1.76-2.14-1.51-3.57.85-3.58,3.42-2.33,5.56a.5.5,0,0,1-.33.74c-24.59,5.37-51.18,11.27-63,11.68l-3.6.1a1.65,1.65,0,0,1-1.36-.68c-.89-1.16-2.38-2.23-3.38-2.23s-2.6,1.35-3.28,2.67a.64.64,0,0,1-.57.36h-.66a1.27,1.27,0,0,1-1.28-1.3,4.34,4.34,0,0,0-1.92-3.35,5.05,5.05,0,0,0-5.3-.42c-2.25,1-12.68-1.45-12.68,3.64a2.41,2.41,0,0,0,.05.71s.1.22,0,.32-.51.07-.54.06c-6.77-.22-10.49-.48-10.49-.48a.84.84,0,0,1-.7-.46c-1.76-3.42-8.93-5.26-23.3-7.79-17-3-27.83-6.54-40-3.12-8.87,2.49-6.47,10.26-7.56,10.91a8.2,8.2,0,0,1-1.81.19,1.59,1.59,0,0,1-1.58-1.08,3.77,3.77,0,0,0-1.57-1.76,2.74,2.74,0,0,0-2.84.05c-1.29.7-8-.89-8,2.4,0,.07,0,.14,0,.21a.58.58,0,0,1-.11.29.41.41,0,0,1-.35.15h-2a.9.9,0,0,1-.67-.31,5.16,5.16,0,0,0-3.12-1.91,3.9,3.9,0,0,0-2.52,1.56,2,2,0,0,1-1.54.68c-7.39,0-13.91,0-15.64,0a.69.69,0,0,1-.6-.33,6.26,6.26,0,0,0-4.95-2.67c-3,0-4.88,1.29-5.75,2.64a.73.73,0,0,1-.62.36h-9.94c-1.2,0-1.68-.39-1.75-.92a11.86,11.86,0,0,0-11.74-10.26,11.86,11.86,0,0,0-11.74,10.24A1.1,1.1,0,0,1-405,254h-1.21a.8.8,0,0,1-.89-.61c-1.66-9.25-10.19-24.65-22-25.39-12-.75-32.92,7.47-44.37,12.91a.73.73,0,0,1-1-.5c-.83-4.27-10.56-7.48-20.78-17.7-13-13-25.24,10.67-25.24,10.67V254h1v46.53a.78.78,0,0,0,.77.77H-18.36a.78.78,0,0,0,.77-.77l-.32-71.39s-4.48-1.77-9.25-3.53a.56.56,0,0,1,.18-1.08c7.77-.07,16.67-1.06,22.18,2.29,8.58,5.2,19.4,12.84,23.31,12.84C34,239.66,5.65,203.79,3.06,203.79Zm-486.88,49.44a.77.77,0,0,1-.77.77h-4.08a.76.76,0,0,1-.35-1.44c1.46-.78,2.87-1.55,4.19-2.31a.76.76,0,0,1,1.12.75C-483.78,251.76-483.82,252.51-483.82,253.23Z"/><g id="PLANTS_fore" data-name="PLANTS fore"><g id="Plant-7" data-name="Plant"><path class="cls-33" d="M3,191s-34.62,19.09-56.65,32.65c-29.19,18-39.61,36.09-53.48,83.44"/><path class="cls-33" d="M-2.58,168.14s-22.5,12.77-56.65,32.65c-33.94,19.76-57.94,63.29-60.73,103.47"/></g></g></g></g></g></svg>