<?xml version="1.0" standalone="no"?>
<!DOCTYPE svg PUBLIC "-//W3C//DTD SVG 20010904//EN"
 "http://www.w3.org/TR/2001/REC-SVG-20010904/DTD/svg10.dtd">
<svg version="1.0" xmlns="http://www.w3.org/2000/svg"
 width="1728.000000pt" height="1728.000000pt" viewBox="0 0 1728.000000 1728.000000"
 preserveAspectRatio="xMidYMid meet">
<metadata>
Created by potrace 1.11, written by Peter Selinger 2001-2013
</metadata>
<g transform="translate(0.000000,1728.000000) scale(0.100000,-0.100000)"
fill="#000000" stroke="none">
<path d="M9508 13435 c-2 -2 -52 -6 -113 -9 -60 -3 -135 -8 -165 -11 -30 -3
-75 -7 -100 -10 -25 -2 -74 -7 -110 -11 -36 -4 -77 -8 -92 -8 -16 0 -28 -3
-28 -6 0 -3 -15 -5 -32 -5 -18 0 -37 -2 -43 -5 -5 -3 -21 -6 -35 -6 -14 -1
-25 -3 -25 -4 0 -1 -35 -7 -95 -14 -19 -3 -60 -10 -90 -16 -30 -6 -66 -13 -80
-15 -14 -2 -47 -8 -75 -14 -27 -6 -61 -13 -75 -16 -14 -2 -38 -8 -55 -12 -16
-4 -32 -7 -35 -8 -3 -1 -18 -4 -35 -8 -16 -4 -40 -10 -52 -12 -13 -3 -33 -8
-45 -11 -13 -3 -27 -6 -33 -7 -5 -2 -16 -6 -22 -10 -7 -5 -13 -6 -13 -4 0 3
-38 -5 -85 -18 -47 -13 -86 -24 -88 -24 -1 0 -9 -2 -17 -5 -26 -9 -164 -48
-175 -50 -5 -1 -15 -5 -21 -8 -6 -4 -22 -9 -36 -12 -15 -2 -36 -9 -47 -16 -12
-6 -21 -8 -21 -5 0 3 -13 -1 -30 -10 -16 -8 -32 -15 -35 -15 -25 -1 -65 -15
-65 -23 0 -6 -3 -8 -6 -5 -5 5 -141 -40 -219 -73 -16 -7 -32 -13 -35 -13 -8
-2 -72 -27 -107 -43 -18 -7 -51 -20 -74 -29 -23 -8 -48 -19 -56 -25 -7 -6 -13
-8 -13 -5 0 4 -12 0 -27 -8 -55 -29 -142 -66 -157 -66 -9 0 -16 -3 -16 -7 0
-5 -21 -17 -48 -27 -75 -31 -397 -190 -400 -198 -2 -5 -12 -8 -22 -8 -10 0
-20 -3 -22 -7 -1 -5 -32 -23 -68 -41 -36 -18 -85 -44 -109 -58 -24 -14 -66
-37 -92 -51 -27 -14 -52 -29 -55 -34 -3 -5 -10 -7 -15 -4 -5 4 -12 -1 -15 -9
-3 -9 -9 -14 -13 -12 -4 3 -31 -11 -61 -30 -30 -18 -60 -34 -67 -34 -6 0 -13
-4 -15 -9 -3 -9 -41 -33 -113 -72 -22 -12 -42 -25 -45 -29 -3 -4 -27 -19 -55
-35 -64 -35 -399 -257 -403 -267 -2 -5 -10 -8 -18 -8 -8 0 -14 -4 -14 -10 0
-5 -7 -10 -15 -10 -8 0 -15 -4 -15 -8 0 -5 -12 -15 -27 -23 -15 -8 -35 -21
-44 -29 -28 -26 -59 -50 -65 -50 -5 0 -83 -58 -94 -70 -3 -3 -21 -17 -40 -30
-19 -13 -37 -27 -40 -30 -3 -3 -40 -32 -82 -64 -43 -32 -78 -63 -78 -69 0 -6
-3 -7 -6 -4 -4 4 -14 -1 -23 -11 -9 -9 -37 -33 -62 -52 -39 -30 -73 -58 -169
-140 -39 -33 -165 -146 -182 -162 -10 -10 -23 -18 -29 -18 -5 0 -7 -4 -4 -10
3 -5 2 -10 -3 -10 -22 0 -598 -574 -633 -632 -7 -12 -40 9 -61 37 -5 7 -8 7
-8 0 0 -7 -3 -7 -8 0 -4 6 -27 26 -52 45 -25 19 -47 38 -48 42 -2 4 -8 8 -14
8 -5 0 -15 6 -23 13 -7 6 -25 21 -40 31 -14 11 -36 28 -47 38 -12 10 -24 18
-27 18 -3 0 -17 10 -31 23 -14 12 -41 33 -60 47 -19 13 -37 27 -40 30 -3 3
-21 17 -40 30 -19 13 -37 27 -40 30 -3 3 -70 55 -150 115 -80 60 -149 113
-155 117 -23 20 -143 110 -185 140 -25 17 -47 34 -50 38 -3 3 -21 17 -40 30
-19 14 -46 35 -60 47 -14 13 -28 23 -31 23 -3 0 -17 10 -31 23 -48 42 -68 57
-68 49 0 -4 -5 1 -11 11 -5 9 -17 17 -24 17 -8 0 -15 4 -15 8 0 5 -21 24 -47
42 -27 19 -49 38 -51 42 -2 4 -8 8 -13 8 -9 0 -22 10 -82 62 -18 15 -35 28
-38 28 -3 0 -17 9 -30 20 -32 26 -31 26 -129 99 -47 36 -86 68 -88 73 -2 4
-10 8 -17 8 -8 0 -18 6 -22 13 -4 7 -19 20 -33 29 -14 8 -36 25 -49 37 -13 11
-27 21 -30 21 -3 0 -17 10 -31 23 -14 13 -41 34 -62 48 -20 13 -53 39 -75 57
-21 17 -86 67 -145 111 -59 44 -113 84 -120 90 -94 81 -303 221 -329 221 -10
0 -19 4 -19 9 0 7 -17 13 -75 26 -5 1 -12 3 -15 4 -15 7 -172 6 -176 -1 -3 -5
-9 -6 -14 -3 -17 10 -177 -55 -192 -79 -4 -6 -8 -7 -8 -3 0 15 -150 -113 -150
-127 0 -4 -11 -23 -24 -44 -45 -72 -54 -183 -26 -322 6 -30 14 -62 17 -70 8
-20 8 -18 17 -75 4 -27 11 -54 14 -60 4 -5 7 -19 7 -30 1 -11 4 -27 8 -35 3
-8 9 -31 12 -50 13 -75 17 -96 26 -112 5 -10 8 -18 5 -18 -3 0 0 -15 5 -32 5
-18 11 -44 14 -58 3 -14 7 -34 10 -45 2 -11 12 -54 21 -95 19 -87 19 -87 27
-120 4 -14 9 -36 11 -50 13 -69 17 -86 22 -100 3 -8 8 -26 10 -40 2 -14 9 -43
14 -65 6 -22 12 -49 14 -60 1 -11 6 -27 9 -35 3 -8 8 -28 11 -45 3 -16 10 -50
16 -74 6 -24 8 -46 5 -49 -2 -3 -1 -10 4 -16 5 -6 16 -45 25 -86 9 -41 19 -86
22 -100 3 -14 12 -52 19 -85 8 -33 23 -100 34 -150 12 -49 24 -101 27 -115 3
-14 9 -41 14 -60 12 -47 22 -90 25 -115 1 -11 5 -27 8 -35 8 -22 19 -71 24
-110 3 -19 9 -40 14 -46 5 -6 7 -13 4 -15 -2 -3 0 -22 6 -43 11 -40 16 -63 25
-106 3 -14 9 -41 14 -60 9 -36 13 -52 30 -134 5 -26 15 -67 21 -89 6 -23 13
-51 15 -62 3 -19 7 -34 19 -92 3 -13 7 -32 10 -43 13 -51 16 -66 20 -85 2 -11
7 -33 10 -50 4 -16 8 -37 10 -45 2 -8 4 -15 6 -15 1 0 3 -9 4 -20 2 -11 10
-51 19 -88 12 -52 14 -77 6 -110 -15 -60 -15 -59 -70 -312 -28 -126 -54 -237
-57 -245 -3 -8 -6 -18 -5 -21 1 -3 -5 -29 -13 -57 -7 -29 -11 -52 -9 -52 2 0
-1 -11 -6 -26 -6 -14 -12 -37 -15 -52 -5 -28 -7 -39 -26 -112 -6 -25 -13 -56
-15 -70 -3 -14 -11 -53 -19 -86 -8 -34 -16 -73 -19 -85 -2 -13 -16 -76 -31
-139 -33 -138 -65 -277 -70 -305 -2 -11 -4 -21 -5 -22 -2 -2 -3 -11 -4 -20 -1
-10 -5 -27 -9 -38 -3 -11 -9 -36 -13 -55 -8 -45 -12 -65 -14 -65 -1 0 -3 -7
-5 -15 -2 -8 -6 -26 -9 -40 -3 -14 -7 -36 -10 -50 -3 -14 -9 -41 -13 -60 -9
-46 -10 -50 -13 -52 -2 -3 -5 -19 -13 -61 -3 -15 -8 -35 -11 -45 -3 -9 -7 -28
-10 -42 -3 -14 -8 -36 -11 -50 -3 -14 -7 -36 -9 -50 -3 -14 -9 -37 -15 -52 -6
-16 -9 -28 -6 -28 2 0 -1 -15 -6 -32 -5 -18 -11 -44 -13 -58 -7 -45 -28 -115
-39 -129 -10 -12 -9 -13 2 -6 11 6 13 4 7 -11 -4 -10 -10 -28 -12 -39 -2 -11
-11 -49 -19 -85 -16 -65 -25 -106 -26 -115 0 -2 -7 -33 -16 -67 -8 -35 -16
-70 -18 -78 -2 -8 -4 -16 -5 -17 -2 -2 -3 -11 -4 -20 -1 -10 -8 -45 -16 -78
-8 -33 -13 -63 -12 -67 1 -5 -2 -8 -6 -8 -4 0 -8 -8 -9 -17 -1 -27 -14 -97
-20 -106 -2 -4 -6 -40 -9 -80 -4 -85 14 -169 51 -227 35 -55 122 -140 144
-140 5 0 11 -4 13 -8 5 -12 128 -72 147 -72 10 0 21 -3 25 -7 15 -15 137 -22
207 -11 48 7 109 30 109 41 0 4 4 6 8 3 11 -6 134 74 164 107 9 10 19 18 23
17 3 -1 25 13 47 32 23 18 53 40 67 49 14 9 36 26 49 38 12 12 22 18 22 14 0
-4 6 -1 13 7 7 8 84 69 172 134 88 65 166 126 173 134 6 9 12 13 12 9 0 -6 69
45 205 150 6 5 64 48 130 97 66 50 125 94 130 98 13 11 77 58 111 83 24 18 82
61 109 83 6 4 55 41 110 82 55 41 102 77 105 80 3 3 33 26 68 49 34 24 62 48
62 52 0 5 3 8 8 7 4 -2 14 3 22 10 8 7 40 31 70 53 30 23 66 50 80 60 71 54
101 76 126 94 15 11 32 25 38 30 7 6 27 21 46 35 19 13 40 28 45 32 17 14 121
92 150 113 37 27 96 73 119 92 10 8 38 28 62 43 24 15 41 30 37 34 -3 3 -1 6
6 6 10 0 79 48 101 70 3 3 19 15 36 27 l32 22 118 -125 c195 -207 624 -624
624 -608 0 2 21 -16 47 -40 87 -79 106 -97 141 -124 19 -15 45 -36 56 -47 12
-11 37 -31 56 -45 19 -13 37 -27 40 -31 3 -3 46 -38 95 -78 110 -87 95 -75
185 -141 41 -30 77 -57 80 -60 3 -3 24 -18 48 -34 23 -16 42 -33 42 -38 0 -5
4 -7 9 -4 5 4 11 2 13 -2 3 -7 105 -80 150 -107 9 -5 55 -37 103 -70 47 -33
94 -64 105 -70 11 -5 20 -13 20 -18 0 -4 5 -5 10 -2 6 3 13 -1 16 -9 3 -9 10
-16 14 -16 5 0 47 -24 94 -53 48 -28 95 -56 106 -62 11 -5 20 -13 20 -17 0 -5
4 -8 9 -8 5 0 53 -26 108 -58 54 -31 112 -64 128 -72 17 -8 32 -17 35 -20 5
-5 70 -41 145 -79 16 -9 32 -19 35 -22 6 -7 154 -83 355 -182 169 -84 228
-111 238 -109 4 1 7 -2 7 -8 0 -5 8 -10 18 -10 9 0 32 -9 50 -20 17 -11 32
-17 32 -15 0 3 15 -2 33 -12 17 -9 34 -18 37 -18 40 -10 60 -19 60 -26 0 -5 7
-9 15 -9 8 0 34 -8 58 -19 57 -25 104 -43 114 -43 4 0 13 -3 18 -8 6 -5 37
-18 70 -30 33 -12 69 -25 80 -30 33 -14 135 -48 153 -51 4 0 12 -4 17 -8 6 -5
24 -12 40 -16 45 -12 45 -12 48 -15 1 -1 9 -3 17 -5 8 -1 49 -14 90 -28 65
-22 160 -50 210 -63 8 -2 49 -13 90 -25 41 -11 85 -23 97 -25 12 -2 33 -8 45
-13 13 -5 26 -9 31 -9 25 -3 84 -16 92 -20 5 -3 19 -7 31 -8 12 -1 64 -11 115
-23 52 -11 108 -22 124 -25 17 -3 41 -8 55 -11 14 -3 39 -7 55 -10 17 -2 41
-6 55 -9 14 -4 45 -8 70 -11 25 -3 54 -7 65 -9 30 -6 185 -26 230 -31 22 -2
40 -4 40 -5 0 -1 29 -3 64 -6 36 -2 83 -6 105 -9 95 -12 301 -19 581 -19 249
0 530 8 530 15 0 1 14 3 30 4 96 7 303 30 370 41 17 3 44 7 60 9 59 8 110 16
135 21 14 3 36 7 50 9 34 4 98 16 124 21 11 3 32 7 46 10 14 3 30 7 35 8 33 8
124 27 145 30 14 3 25 5 25 6 0 2 21 7 60 15 17 3 48 11 70 17 22 5 42 10 45
10 3 0 15 4 28 9 12 5 33 11 45 13 12 3 31 7 42 10 16 4 350 107 390 120 6 2
25 7 43 11 17 4 32 11 32 16 0 5 3 8 8 7 12 -2 66 14 80 25 6 5 12 7 12 4 0
-3 38 10 85 28 47 19 85 31 85 27 0 -3 5 -1 12 6 7 7 20 12 29 12 10 0 19 4
21 10 2 5 12 11 23 13 11 2 38 11 60 21 22 10 58 24 80 32 22 8 49 18 60 23
54 26 141 64 150 65 6 2 45 19 89 39 43 21 80 37 82 37 12 0 160 75 166 84 4
6 8 8 8 3 0 -4 37 12 83 35 45 23 84 42 87 43 3 0 14 6 25 11 11 6 70 37 130
69 61 32 122 67 138 77 15 11 27 17 27 13 0 -3 24 10 53 28 30 19 63 38 75 41
12 4 22 12 22 17 0 6 4 8 9 4 5 -3 12 -1 16 4 3 5 47 33 98 62 50 29 94 56 97
59 3 4 14 10 25 14 20 7 20 8 1 22 -11 8 -27 14 -36 14 -9 0 -20 3 -24 8 -4 4
-11 7 -14 7 -9 0 -65 22 -119 46 -24 11 -44 19 -46 19 -11 0 -193 104 -199
114 -4 6 -8 7 -8 2 0 -4 -15 3 -34 18 -19 14 -39 26 -44 26 -6 0 -12 3 -14 8
-2 4 -30 27 -63 52 -33 24 -73 56 -90 70 -38 32 -222 217 -252 253 -49 59
-133 177 -133 186 0 6 -4 11 -8 11 -10 0 -76 124 -92 173 -11 35 -15 112 -7
162 18 128 139 260 267 293 34 8 157 8 185 0 82 -26 205 -114 205 -147 0 -6 4
-11 8 -11 5 0 15 -12 23 -27 8 -16 17 -32 21 -38 5 -5 29 -39 55 -75 80 -109
294 -310 331 -310 6 0 12 -4 14 -9 7 -18 222 -124 278 -136 8 -2 27 -8 43 -14
15 -6 27 -8 27 -5 0 4 7 1 15 -6 8 -7 15 -10 15 -7 0 3 17 1 38 -4 20 -6 53
-12 72 -14 19 -2 50 -7 69 -10 41 -8 244 -9 268 -1 10 3 38 8 63 11 63 7 73 9
88 18 6 5 12 6 12 3 0 -2 15 0 33 5 17 6 39 12 47 14 50 12 91 39 167 112 18
17 33 28 33 25 0 -4 6 0 13 8 7 9 26 26 42 39 33 25 152 130 197 173 16 16 30
28 32 28 13 0 464 443 568 556 26 29 49 49 52 46 3 -3 6 -1 6 5 0 9 9 20 123
147 94 105 98 110 152 178 27 35 55 68 61 73 6 6 26 30 45 55 38 51 40 53 106
136 26 34 57 73 68 89 11 15 25 32 30 39 6 6 22 27 35 46 27 38 48 65 68 85 6
8 12 17 12 20 0 4 16 27 36 51 20 24 32 44 28 44 -5 0 -4 4 2 8 14 9 71 94 72
106 0 5 4 12 9 15 13 10 59 84 67 109 4 12 12 22 17 22 5 0 9 4 9 9 0 4 18 40
39 80 22 39 37 71 35 71 -2 0 3 14 12 32 28 54 73 192 83 257 12 72 7 191 -9
252 -7 24 -13 49 -14 54 -1 6 -4 15 -7 20 -6 10 -19 54 -25 84 -1 7 -7 18 -13
24 -6 6 -11 19 -11 29 0 10 -4 18 -10 18 -5 0 -10 6 -10 13 0 13 -80 178 -91
187 -4 3 -16 23 -28 45 -40 73 -122 206 -137 222 -6 6 -26 35 -45 65 -18 29
-44 64 -56 78 -13 14 -23 30 -23 37 0 6 -4 13 -8 15 -5 2 -35 39 -68 83 -32
43 -66 86 -74 95 -8 9 -24 29 -35 44 -11 16 -27 36 -35 45 -9 9 -36 41 -60 71
-25 30 -49 60 -55 66 -5 6 -32 37 -60 69 -27 32 -63 73 -80 91 -16 18 -70 76
-120 130 -117 127 -365 374 -495 494 -57 52 -118 109 -136 125 -18 17 -58 53
-90 80 -32 28 -69 60 -82 73 -13 13 -70 61 -126 106 -55 46 -117 97 -136 114
-19 17 -37 31 -40 30 -3 -1 -17 9 -31 22 -14 14 -40 36 -58 50 -18 14 -41 32
-51 40 -10 8 -31 24 -46 35 -74 53 -119 89 -122 97 -2 4 -8 8 -13 8 -11 0
-122 81 -127 93 -2 4 -8 7 -13 7 -6 0 -19 9 -31 20 -12 11 -28 20 -35 20 -7 0
-13 3 -13 8 0 4 -18 18 -40 32 -22 14 -40 28 -40 32 0 5 -7 8 -15 8 -8 0 -15
5 -15 10 0 6 -6 10 -13 10 -7 0 -22 8 -33 18 -10 9 -50 37 -89 62 -38 25 -71
48 -73 52 -2 5 -7 8 -12 8 -5 0 -36 18 -69 40 -33 22 -64 40 -70 40 -5 0 -11
4 -13 8 -4 10 -232 152 -244 152 -4 0 -15 6 -23 14 -15 13 -32 23 -185 108
-38 21 -75 43 -83 49 -7 6 -13 8 -13 4 0 -5 -8 -2 -17 7 -10 8 -40 25 -68 39
-27 13 -52 27 -55 30 -3 3 -106 55 -230 116 -352 173 -390 190 -655 290 -171
65 -239 89 -277 99 -5 1 -10 3 -13 4 -3 1 -8 3 -12 5 -5 1 -15 4 -23 8 -14 5
-88 29 -100 32 -3 1 -12 4 -20 8 -23 9 -272 81 -355 103 -42 11 -45 11 -47 14
-3 2 -161 39 -193 44 -11 2 -58 13 -105 25 -47 11 -98 23 -115 26 -16 2 -41 7
-55 10 -14 3 -38 7 -55 10 -26 4 -70 12 -155 28 -78 14 -118 20 -145 21 -16 1
-34 4 -40 7 -5 3 -22 5 -37 4 -16 0 -28 2 -28 5 0 3 -17 5 -38 6 -20 0 -57 4
-82 8 -48 7 -98 12 -225 21 -44 3 -100 8 -125 11 -51 5 -737 14 -742 9z m3004
-4081 c131 -10 306 -85 398 -172 75 -70 120 -117 120 -126 0 -5 6 -14 14 -20
25 -19 85 -142 101 -202 23 -92 26 -114 25 -189 -1 -77 -12 -180 -20 -180 -1
0 -3 -9 -5 -20 -2 -12 -12 -39 -21 -60 -10 -22 -18 -42 -18 -46 -2 -18 -104
-159 -115 -159 -8 0 -12 -3 -9 -6 16 -15 -165 -155 -248 -191 -21 -9 -41 -17
-44 -18 -3 0 -10 -3 -16 -7 -6 -4 -21 -9 -35 -12 -13 -3 -35 -8 -49 -11 -14
-3 -45 -8 -70 -10 -25 -1 -49 -4 -55 -5 -5 -1 -12 -1 -15 0 -3 1 -29 3 -59 5
-30 2 -70 7 -90 11 -20 4 -42 8 -50 10 -56 11 -202 89 -252 134 -9 8 -25 22
-35 31 -32 26 -94 98 -94 107 0 5 -7 15 -15 22 -18 15 -78 136 -78 156 0 8 -3
14 -7 14 -4 0 -7 6 -8 13 0 11 -4 29 -21 107 -9 42 -7 222 2 237 4 6 9 28 13
49 7 43 46 145 69 181 9 12 15 26 14 29 0 4 3 10 8 13 4 3 26 28 48 56 22 27
54 62 70 77 36 34 146 108 159 107 5 0 12 3 15 8 15 23 150 62 235 69 27 2 51
5 54 8 2 3 9 3 13 0 5 -3 37 -7 71 -10z"/>
</g>
</svg>
